<?xml version="1.0" encoding="UTF-8" standalone="no"?>
<!-- Created with Inkscape (http://www.inkscape.org/) -->
<svg id="svg2" xmlns:rdf="http://www.w3.org/1999/02/22-rdf-syntax-ns#" xmlns="http://www.w3.org/2000/svg" preserveAspectRatio="none" height="481.91" width="486.72" version="1.1" xmlns:cc="http://creativecommons.org/ns#" xmlns:dc="http://purl.org/dc/elements/1.1/">
<defs id="defs4"></defs>
<metadata id="metadata7">
<rdf:RDF>
<cc:Work rdf:about="">
<dc:format>image/svg+xml</dc:format>
<dc:type rdf:resource="http://purl.org/dc/dcmitype/StillImage"/>
<dc:title/>
</cc:Work>
</rdf:RDF>
</metadata>
<g id="layer1" transform="translate(-545.65625,-47.375)">
<path id="path4036" fill="none" d="m546.14,48.067,0,480.72,356.56,0c-0.073-0.2955-0.3823-0.6998-0.9063-1.2812-2.2364-2.4824-3.0954-6.9223-1.6562-8.6563,0.6787-0.8179,2.7065-1.5,4.5-1.5,2.5275,0,3.4155,0.5061,3.9062,2.25,0.627,2.228,0.6494,2.2239,2.1563,0.25,1.3922-1.8235,1.3333-2.0743-0.5313-2.9063-1.7444-0.7784-2.0312-1.8236-2.0312-7.3124,0-7.9622,1.1278-10.281,5-10.281,1.9062,0,3.3036-0.6987,4-2s2.0938-2,4-2,3.3036-0.6987,4-2c0.7035-1.3146,2.0997-2,4.0625-2,2.1201,0,3.2881-0.6527,4.0313-2.25,0.5756-1.2375,2.7364-3.0335,4.8124-4,2.0761-0.9665,4.3132-2.9361,4.9688-4.375,1.081-2.3726,1.3508-2.49,2.9062-1.125,3.732,3.2751,5.7202,3.0183,8.0313-1.0937,1.9864-3.5346,2.6243-3.9219,7.4375-4.5,2.8959-0.3479,6.9375-0.6463,9-0.6563h3.75v-6c0-6.2015,0.5405-6.8534,4.125-4.9375,3.2387,1.7333,3.9855,5.09,1.6875,7.5938-1.9732,2.15-1.9552,2.1523,0.125,2.8124,1.802,0.5721,2.0702,1.5016,2.1563,6.8438,0.1499,9.3019,0.9224,11.13,4.7187,11.5,2.6443,0.258,3.3478-0.1119,4.125-2.1562,0.5192-1.3656,1.757-2.9986,2.75-3.625,1.2586-0.7939,1.4522-1.2945,0.5937-1.6563-0.677-0.2855-2.5631-2.4994-4.1874-4.9063-2.7872-4.1296-2.8569-4.4205-1.0313-5,1.4124-0.4482,1.9375-1.5216,1.9375-4,0-3.0293-0.4575-3.5867-4.25-5.2812-4.2238-1.8873-4.2346-1.9178-1.75-2.9688,1.375-0.5815,3.2875-1.2912,4.25-1.5937,1.1371-0.3573,1.75-1.5873,1.75-3.4687,0-2.5104,0.5984-3.1038,4.5-4.5938,4.1202-1.5735,4.5-2.0275,4.5-5.1562,0-2.9786-0.321-3.4063-2.5-3.4063-4.3918,0-6.5-3.2359-6.5-9.9687,0-7.238-1.0432-8.0611-10.188-8-6.1331,0.041-6.3782,0.1539-8.5937,3.625-2.126,3.3306-2.155,3.6792-0.5626,4.8437,1.5962,1.1671,1.565,1.4905-0.4687,4.9375-1.1977,2.0299-2.1875,5.1738-2.1875,7,0,4.2289-2.4486,6.6849-3.3438,3.3438-0.3346-1.2491-0.6149-3.6261-0.625-5.2813-0.01-1.9159-0.7579-3.4548-2.0312-4.25-1.2673-0.7914-2-2.3454-2-4.2187,0-1.927-0.6727-3.3377-1.9688-4.0313-1.0934-0.5852-2.2724-2.0948-2.5937-3.375-0.3322-1.3238-2.2977-3.2896-4.5625-4.5625-5.5447-3.1163-4.9196-5.4636,1.5625-5.875,3.7545-0.2383,5.5874,0.1824,7.75,1.7812,1.5561,1.1505,2.8337,1.7416,2.8437,1.3126s0.3876-1.3745,0.8438-2.0938c0.6569-1.0357,1.5963-0.8382,4.5,0.875,2.4381,1.4385,4.5015,1.9466,6.1562,1.5312,2.3044-0.5783,2.4688-1.0553,2.4688-6.5937,0-3.2895-0.3413-6-0.7812-6-1.6609,0-3.2188,2.5197-3.2188,5.2187,0,3.241-1.0603,3.4451-5.0938,1.0626-3.2116-1.8972-4.0808-6.5986-1.4062-7.625,2.1427-0.8223,1.8642-2.3342-0.5625-2.9688-3.262-0.8531-0.7587-4.6875,3.0625-4.6875,1.9062,0,3.3036-0.6987,4-2,0.9546-1.7838,2.0899-2,10.531-2,5.2056,0,9.4688,0.2075,9.4688,0.4375s0.2911,1.13,0.625,2c0.5126,1.336-0.3421,1.5625-5.5,1.5625-5.8475,0-6.125,0.1062-6.125,2.5,0,2.3889,0.2667,2.5,6,2.5,3.3,0,6,0.2075,6,0.4375,0,2.2927-1.6448,3.5625-4.5938,3.5625-3.0105,0-3.4062,0.3174-3.4062,2.6875,0,3.6929,2.6888,6.3193,6.4062,6.2812,4.0827-0.042,6.5938-2.0558,6.5938-5.3124,0-3.0709,2.3199-3.5276,5.75-1.125,1.9993,1.4002,2.2546,1.3598,3.25-0.5,0.9033-1.6878,2.093-2.0313,7.125-2.0313,5.792,0,6.0022-0.09,5.3438-2.25-0.3771-1.2375-1.4148-3.0451-2.2813-4.0313-1.4525-1.6529-1.3976-1.8461,0.625-2.375,1.7833-0.4663,2.1875-1.3119,2.1875-4.4687,0-2.7706-0.4074-3.875-1.4688-3.875-0.8181,0-2.6921-1.9125-4.1562-4.25s-3.0192-4.3852-3.4688-4.5625c-0.4497-0.1773-2.4387-1.4148-4.4062-2.75-2.7968-1.898-4.875-2.4375-9.5312-2.4375-3.2756,0-5.9688-0.1762-5.9688-0.4063s-0.2599-1.13-0.5938-2c-0.5122-1.3348,0.3411-1.5937,5.4376-1.5937,5.2284,0,6.1189-0.2714,6.6874-2.0625,0.5933-1.8691,5.863-5.9275,7.7188-5.9375,0.4125,0,0.75,1.2323,0.75,2.75,0,3.3079,3.4403,6.142,4.4062,3.625,0.3239-0.8441,0.5938-3.4821,0.5938-5.875,0-3.4917-0.4048-4.4838-2.0312-5-1.1148-0.3538-2.7746-1.7942-3.6876-3.1875-1.4661-2.2375-2.1606-2.4711-6.0624-2.0312-2.4298,0.2739-5.632,1.396-7.125,2.5-3.8156,2.8208-8.1038,1.9436-8.0938-1.6563,0-1.8751,0.8684-3.0995,3-4.3125,1.6465-0.9369,3-2.3994,3-3.25,0-2.4958,6.6924-2.1072,7.5,0.4375,0.5414,1.7059,1.5308,2,6.625,2,3.999,0,7.25,0.6608,9.875,2,2.1562,1.1,4.1718,2,4.4688,2,1.3103,0,0.3715-3.8509-1.3126-5.375-1.1916-1.0784-1.7054-2.5594-1.4062-4.125l0.4688-2.4375,3.9062,2,3.9375,2,0.6563-1.7812v-197.59c-0.4181-0.844-0.7188-1.8086-0.7188-2.75,0-1.5749-0.7166-3.2416-1.625-3.75-1.4628-0.8186-1.3887-1.2231,0.6875-4.0312,0.712-0.963,1.2199-1.5987,1.6563-2v-15.188c-0.229,0.093-0.4233,0.2088-0.6876,0.3126-3.4899,1.3708-4.0312,1.974-4.0312,4.6874,0,4.2475-3.5315,10.883-6.5312,12.25-2.2347,1.0182-2.4688,1.6955-2.4688,7.4376v6.3124l4.0625,2.0626c3.76,1.918,4.0349,2.3378,3.75,5.75-0.2493,2.9864-0.832,3.8765-3.0625,4.6562-1.7622,0.6203-3.7379,0.6187-5.5,0l-2.75-0.9688-0.2812-12.812c-0.2557-11.68-0.09-13.125,1.9062-16.469,1.2043-2.017,3.0486-4.3668,4.0938-5.2188,1.8501-1.5083,1.8423-1.5753-0.4063-2.6562-1.2702-0.6106-3.1502-1.3825-4.1875-1.7188-1.7538-0.5686-1.7713-0.7564-0.25-2.4374,2.0469-2.2618,2.1087-5.7387,0.125-6.5-0.8668-0.3327-1.5-1.8484-1.5-3.5626,0-5.6568-1.5993-8.0937-5.3125-8.0937-2.6005,0-3.6052,0.5734-4.4687,2.4687-0.6145,1.3486-2.5879,3.2009-4.375,4.125-3.1248,1.6159-3.2932,1.6151-4.5938-0.3437-1.3308-2.0043-1.4065-2.0224-3.5625-0.1563-10.355,8.9628-10.924,10.594-4.6875,13.406l4,1.8125v6.2188c0,10.238,0.7148,12.21,5.125,14.156l3.875,1.7188,0.031,7.0624c0.017,8.2974,1.3223,11.481,5.5938,13.531,3.6462,1.7503,7.375,8.1188,7.375,12.594,0,1.8279,0.8189,3.8374,2,4.9063,3.1058,2.8107,2.621,5.5-1,5.5-2.576,0-3.2544-0.5746-4.625-4-1.7431-4.3566-2.481-4.7822-4.375-2.5-2.1795,2.6261-4.8158,1.7391-7.2188-2.4687-2.2761-3.986-2.2917-3.99-8.5312-4-6.2-0.01-6.25-0.053-6.25-2.875,0-1.5649-0.8683-3.6261-1.9375-4.5938-2.8183-2.5504-2.9684-5.5213-0.4687-10.062,1.6167-2.9373,1.9831-4.5978,1.3437-6.25-0.7688-1.9864-1.5805-2.25-6.875-2.25-5.0858,0-6.1633,0.3281-7.125,2.125-0.9675,1.8078-1.7967,2.0529-5.5937,1.625-4.6248-0.5213-6.7601-1.6847-4.5626-2.4687,0.6991-0.2495,1.9538-1.7747,2.7813-3.375,1.1437-2.2117,2.2035-2.9063,4.4375-2.9063,1.8837,0,3.3044-0.6962,3.9688-1.9375,0.57-1.0652,2.7801-2.8987,4.9062-4.0938,2.1927-1.2323,4.6655-3.7472,5.7188-5.8124,1.0213-2.0024,2.0132-3.9388,2.1874-4.2813,0.1743-0.3425-0.6274-0.8627-1.75-1.1563-1.4933-0.3904-2.0312-1.3247-2.0312-3.5624,0-2.035-0.6693-3.4441-2-4.1563-2.0999-1.1239-2.8482-6.3652-1.0625-7.4687,1.6317-1.0085,6.9209-9.3291,6.3125-9.9376-0.3186-0.3186-3.8149-0.5937-7.7812-0.5937-6.3595,0-7.4037-0.2658-8.75-2.25-1.267-1.8673-1.7587-1.9994-2.875-0.9063-1.1253,1.1018-1.0655,1.5066,0.4062,2.5938,1.6532,1.2214,1.572,1.7066-1.3438,7.9375-1.7067,3.6474-3.5015,6.8795-4,7.1875-1.6107,0.9955-0.9492,7.2757,1.1876,11.375,2.5195,4.8341,1.8764,9.345-0.9376,6.625-3.3061-3.1957-9.287-6.5625-11.687-6.5625h-2.4688v12.375,12.375l-3.125,0.625c-5.8521,1.1704-8.6997,0.7528-9.375-1.375-0.4341-1.3676-1.5068-2-3.4062-2-3.1774,0-5.6257-2.2766-6.5938-6.1563-0.3673-1.472-1.4509-3.3854-2.4062-4.25-2.2878-2.0703-1.6045-7.6231,1.0312-8.3124,1.3593-0.3554,1.875-1.4125,1.875-3.875,0-3.0606,0.2719-3.4063,2.875-3.4063,1.5826,0,3.4865-0.7114,4.2188-1.5937,0.7321-0.8823,2.374-2.0125,3.6562-2.5,1.964-0.7468,2.1559-1.1823,1.25-2.875-0.9022-1.6856-2.0669-2.0313-7.3438-2.0313-5.4169,0-6.6337-0.3472-8.6562-2.5-1.2917-1.375-2.9153-2.5-3.625-2.5-0.7098,0-1.7863-0.9-2.375-2-0.7601-1.4203-2.0867-2-4.5938-2-5.1879,0-7.4062-1.5289-7.4062-5.125,0-2.2175,0.55-3.1833,2-3.5625,2.3523-0.6151,2.5315-1.6105,0.5938-3.2188-2.583-2.1435-2.8149-6.0479-0.5938-9.8124,2.2385-3.794,2.2077-3.9948-1.1875-5.6876-1.2307-0.6134-3.2716-2.6307-4.5313-4.5-3.9836-5.9112-9.6422-8.6156-10.75-5.125-0.4804,1.5136-1.5168,2.0313-3.9687,2.0313-2.9177,0-3.3757,0.3785-3.9375,3.1875-0.3503,1.7514-1.2338,3.8889-1.9688,4.75-2.4814,2.9077-2.699,5.0172-0.625,6.3125,2.789,1.7417,2.7274,7.3859-0.094,8.2813-1.9741,0.6265-1.9893,0.7442-0.3437,2.5624,1.0281,1.1363,3.0271,1.9063,4.9687,1.9063,5.2058,0,6.4375,0.8688,6.4375,4.5625,0,2.8491-0.5136,3.5993-3.5312,5.0312-1.9493,0.925-4.2164,2.9867-5.0313,4.5626-1.9258,3.724-5.9855,3.9359-7.5937,0.4062-0.8326-1.8274-2.0276-2.5244-4.7188-2.75-2.4883-0.2086-3.7086-0.8546-3.9375-2.0625-0.202-1.0657,0.2919-1.75,1.25-1.75,1.1689,0,1.5625-1.0283,1.5625-4,0-3.1925-0.3688-4-1.8125-4-0.9948,0-2.6823-0.6746-3.75-1.5-1.7661-1.3654-1.777-1.5684-0.2813-2.4687,3.2782-1.9734,5.8438-8.7389,5.8438-15.375v-6.3126l-4.125-1.375c-4.5754-1.51-8.875-4.501-8.875-6.1874,0-0.6043-0.7046-1.8958-1.5625-2.8438-1.4251-1.5748-1.3395-1.9417,0.9063-4.1875,1.3518-1.3518,3.1477-3.7894,4-5.4375,1.2799-2.4751,1.3684-3.1851,0.2187-5.5938h-28.688c-2.0509,2.5476-1.4587,6.8941,1.25,8.3438,2.087,1.1169,2.4856,5.2209,0.9062,9.375-0.7527,1.9795-1.6779,2.5625-4.0312,2.5625-2.2742,0-3.2763,0.6044-3.9375,2.3437-0.4877,1.2827-2.3826,3.0764-4.2187,3.9688-3.323,1.615-3.3386,1.5984-4.2188-1.0938-1.71-5.2302-4.0239-6.688-5.125-3.2187-0.4724,1.4883-1.5082,2-4.0625,2-1.8879,0-3.4275,0.3375-3.4375,0.75s-0.4103,1.3607-0.875,2.0937c-0.8177,1.2899-2.519,0.6876-13.125-4.75-0.825-0.4229-3.1138-3.8928-5.0938-7.6874-3.3383-6.3977-3.8635-6.9033-7.1874-7.1876-4.1677-0.3562-6.1735,2.1038-5.125,6.2813,0.5149,2.0522,1.2397,2.5,3.9062,2.5,4.1942,0,5.1512,2.8933,2.4375,7.3437-2.5134,4.1222-2.4597,4.3964,1,5.1563,3.4327,0.7539,4.6506,2.0235,5.5937,5.7813,0.554,2.2067,1.2514,2.7187,3.5938,2.7187,2.1368,0,3.227,0.6661,4.0625,2.5,1.0361,2.274,1.692,2.5,7.3125,2.5s6.2764-0.226,7.3125-2.5c1.4036-3.0805,5.6317-3.4112,7.1563-0.5625,1.4744,2.755,1.3488,21.37-0.1563,22.875-0.66,0.66-2.4434,1.1875-3.9687,1.1875-1.5254,0-4.8228,1.0091-7.3126,2.2187-3.9436,1.916-4.5312,2.6034-4.5312,5.3438,0,5.6715,6.2084,8.0741,9.6875,3.75,1.0027-1.2462,1.3264-1.1633,2.25,0.5625,0.5931,1.1081,1.9865,2.2949,3.125,2.6563,1.9807,0.6287,1.9905,0.7118,0.25,2.0312-1.3095,0.9926-5.2377,1.3832-14.031,1.4062-14.232,0.037-14.281,0.024-14.281-9.8437,0-5.0198,0.3558-6.2284,2.0312-7.125,1.6249-0.8697,1.7835-1.4506,0.9376-3.0313-1.4822-2.7692-7.5862-2.7498-8.4688,0.031-0.5755,1.8131-1.5121,2-10.031,2-8.2261,0-9.5116-0.2346-10.406-1.9063-0.6758-1.2627-1.7002-1.7231-3.0313-1.375-2.5615,0.6699-2.5848,1.9147-0.031,3.2813,1.1,0.5887,2,1.6858,2,2.4063,0,0.7204,0.9,2.0982,2,3.0937,1.6904,1.5298,2.9354,7.5,1.5625,7.5-0.2435,0-2.0435-0.9394-4-2.0937-4.0975-2.4177-4.5905-1.3178-1.5937,3.5312,1.1731,1.8982,1.7195,4.0577,1.375,5.375-0.5103,1.9512-1.2488,2.1875-6.4688,2.1875-5.8143,0-5.875,0.031-5.875,2.875,0,1.5827-0.7252,3.5032-1.625,4.25-0.8998,0.7467-2.7242,3.0544-4.0312,5.125-1.3071,2.0706-2.9768,3.75-3.7188,3.75s-3.7513,1.3061-6.6875,2.875l-5.3437,2.8437-2.625-3.9374c-2.9341-4.3687-2.8941-8.0103,0.125-10.125,1.5765-1.1042,1.8818-2.944,2.125-12.719l0.2812-11.438,3.1562-0.2813c2.4689-0.2395,3.3344,0.1452,3.8438,1.75,0.571,1.7992,1.4479,2.0313,7.1562,2.0313,5.6853,0,6.6069,0.2577,7.0626,2,1.0157,3.8842,4.2812,1.2132,4.2812-3.5,0-2.6871-0.6084-3.3753-4.5312-5.2813-4.0645-1.9746-6.1052-2.2187-19.938-2.2187-14.659,0-15.411,0.1093-16.031,2.0625-0.5204,1.6394-0.963,1.8135-2.0938,0.875-0.7788-0.6463-1.4062-1.9658-1.4062-2.9375s-0.84-2.8155-1.875-4.0937l-1.875-2.3126,4.125-1.875c3.9228-1.7636,4.0304-1.9242,2.1875-3.2812-1.0676-0.7861-3.2672-1.4375-4.9063-1.4375-5.4211,0-6.6562-2.2054-6.6562-12.094v-8.8126l6.25-0.2812c5.5707-0.2654,6.2833-0.5373,6.5625-2.5,0.1965-1.3809-0.4561-2.6919-1.75-3.5-1.3843-0.8645-2.0625-2.327-2.0625-4.4688,0-2.3137-0.5503-3.3836-2-3.8437-1.365-0.4332-2-1.4874-2-3.375,0-3.4009-0.5704-4.0267-3.0625-3.375-2.7968,0.7314-2.7456,6.8282,0.063,7.5625,1.5319,0.4006,2,1.341,2,4.0938,0,1.9764-0.1763,3.5937-0.4062,3.5937-0.2301,0-1.0773,0.2564-1.875,0.5625-0.9062,0.3478-1.664-0.215-2-1.5-0.4685-1.7915-1.3165-2.0625-6.625-2.0625-3.3515,0-6.0938,0.3725-6.0938,0.8125,0,1.6742,2.5262,3.1875,5.2812,3.1875,1.5762,0,3.8059,0.5338,4.9688,1.1563,1.865,0.9981,1.9379,1.2442,0.5625,2.25-1.1081,0.8103-1.6938,3.3688-1.9687,8.8124-0.2128,4.2135-0.6476,7.9599-1,8.3126-0.3527,0.3525-2.0916-0.1252-3.8438-1.0313-3.4343-1.7759-3.7178-1.6678-5.4062,1.7187-0.6135,1.2308-2.4518,2.8866-4.0938,3.6876-1.642,0.8009-4.6251,2.278-6.625,3.2812s-4.1374,1.8125-4.75,1.8125c-1.8296,0-1.2788-4.7775,0.7188-6.1875,1.018-0.7187,2.5877-2.6962,3.4687-4.4062s2.9803-3.6809,4.6563-4.375c3.1381-1.2998,3.6476-2.5023,2.125-4.9063-0.7008-1.1067-1.1184-0.9559-2.0313,0.75-0.7,1.3079-2.0903,2.125-3.625,2.125-1.3779,0-3.8094,0.9756-5.4063,2.1563-2.1604,1.5972-4.8461,2.264-10.469,2.625l-7.5625,0.5v3.375c0,1.8526,0.4329,3.3437,0.9688,3.3437,0.5358,0,1.6648,1.3226,2.5,2.9375,1.1305,2.186,2.3559,3.0162,4.7812,3.25,2.7228,0.2624,3.2963,0.7773,3.5625,3.0938,0.1752,1.5241-0.5163,4.224-1.5625,6-2.8151,4.7782-0.9347,9.7341,4.5,11.812,1.7335,0.6631,2.25,1.6488,2.25,4.3126,0,2.4731,0.5337,3.6466,1.8438,4.0624,1.0072,0.3198,2.9706,2.324,4.375,4.4688l2.5624,3.9062-2.1562,0.5626c-1.174,0.315-3.7464,0.5837-5.75,0.5937-2.3902,0.01-3.8518,0.5559-4.25,1.5937-0.9827,2.5609-0.737,3.2376,1.4688,3.9376l2.0937,0.6562-2.0937,1.4688c-3.0083,2.1071-2.613,4.8362,2,14,4.363,8.6675,5.3354,9.3077,14.094,9.3437,1.7773,0.01,2.9016,0.6739,3.3125,1.9687,0.3412,1.0748,2.5041,2.9802,4.8125,4.25,3.2561,1.7911,4.2686,2.9954,4.5313,5.3126,0.6298,5.5581,4.3548,7.1411,9.0624,3.8437,2.1825-1.5287,2.4258-1.5287,3.2813,0,1.3643,2.4379,7.4493,2.1721,8.8125-0.375,0.8827-1.6495,2.0899-2,6.9062-2,9.7695,0,11.938-0.7778,14.156-5.125,1.5863-3.1094,2.5402-3.875,4.8125-3.875,3.2287,0,5.5736-2.2526,6.5312-6.2813,0.3852-1.6203,1.9971-3.5737,3.875-4.7187,4.0181-2.4502,4.4332-2.475,5.2188,0,0.5289,1.6664,1.5185,2,5.9062,2,2.8964,0,5.5577-0.2764,5.9063-0.625,0.3487-0.3487-0.2617-1.7495-1.3437-3.125-1.5499-1.9704-1.9688-4.0687-1.9688-9.8437,0-6.4039-0.2739-7.4637-2.0938-8.4376-1.8366-0.9829-1.8868-1.3083-0.625-2.7812,0.7871-0.9187,1.6899-2.4748,2.0313-3.4375,0.5799-1.6353,0.8885-1.5889,4.6563,0.375,2.4923,1.299,4.6467,3.4037,5.6562,5.5313,0.8985,1.8933,3.0367,4.1559,4.75,5.0312s3.4976,2.2182,3.9375,2.9688c0.4398,0.7504,2.2845,1.3437,4.0937,1.3437,2.5388,0,3.5273,0.5708,4.4063,2.5,1.044,2.2914,1.6997,2.5,7.625,2.5,5.5469,0,6.6643,0.3117,8,2.2187,0.8561,1.2225,1.5625,3.2125,1.5625,4.4063s0.7875,2.4729,1.75,2.8437c1.6453,0.634,1.6408,0.7214,0.031,1.625-0.9417,0.5288-2.8542,0.6941-4.25,0.3438-2.0931-0.5253-2.5312-1.2342-2.5312-4.0312,0-2.9743-0.3125-3.4063-2.5625-3.4063-4.4057,0-6.4375,1.7512-6.4375,5.5,0,3.1983,0.2372,3.3959,3.6875,3.6875,2.02,0.1707,3.8287,0.82,4.0313,1.4375,0.5014,1.5288-3.0342,2.359-10.219,2.375-4.9175,0.011-6.2279,0.3634-7.25,2-0.7914,1.2673-2.3454,2-4.2188,2-1.9329,0-3.3314,0.6924-4.0312,2-0.704,1.3153-2.0964,2-4.0625,2-2.2421,0-3.2164,0.623-3.9063,2.4375-0.5059,1.3306-1.7257,2.881-2.7187,3.4688-1.6974,1.0045-1.6711,1.2033,0.5,2.9062,1.99,1.5643,2.2671,2.542,2,7.25-0.2812,4.9564-0.5394,5.4709-2.8125,5.7812-1.375,0.1876-3.175,0.9465-4,1.6563s-2.5125,1.5916-3.75,1.9687c-2.162,0.6589-2.25,0.4481-2.25-5.4062,0-5.5781-0.211-6.1922-2.5-7.0625-1.9014-0.7229-2.5-1.6516-2.5-3.9375,0-2.3169-0.5409-3.1413-2.3438-3.5938-3.1222-0.7836-10.561,3.142-11.719,6.1876-0.8144,2.1418-1.469,2.3437-7.3437,2.3437-8.3371,0-13.594,2.7505-13.594,7.0937,0,1.9667-0.7919,3.3808-2.5,4.5-1.375,0.9011-2.5,2.1779-2.5,2.8438,0,2.1975-4.3824,5.2811-13,9.0938-4.675,2.0683-9.1098,4.2611-9.875,4.875-0.7652,0.6138-3.0152,1.5682-5,2.125-2.704,0.7586-4.0958,1.9495-5.4688,4.75-2.3076,4.707-5.6562,5.2005-5.6562,0.8437,0-1.5826,0.6352-3.3913,1.4062-4.0313,0.7711-0.6399,1.6919-2.2725,2.0313-3.625,0.509-2.028,1.2281-2.4687,4.125-2.4687,2.1501,0,3.7209-0.5475,4.0625-1.4375,0.3068-0.7997,2.1016-2.3799,4-3.5,1.8985-1.1202,4.2034-3.3318,5.125-4.9375l1.6875-2.9375,3.7187,1.9062,3.6876,1.875,0.6562-2.9062c0.3518-1.602,1.2729-3.4383,2.0625-4.0938,0.7897-0.6553,1.4375-2.286,1.4375-3.5937,0-1.9688-0.5136-2.375-2.9688-2.375-1.9413,0-3.3304,0.6904-4.0312,2-2.3208,4.3363-10,1.1684-10-4.125,0-1.3066-1.3157-1.8074-5.9375-2.3437l-5.9375-0.6876,1.6875-3.5624c1.6493-3.4585,1.6338-3.573-0.5625-5.0313-1.4426-0.9579-2.25-2.4769-2.25-4.2813,0-1.9328-0.6239-3.0319-2-3.4687-1.1006-0.3493-2.4624-1.4998-3.0312-2.5625-0.6993-1.3068-2.0947-1.9375-4.3126-1.9375-2.7676,0-3.5511-0.5273-4.9687-3.5-2.4772-5.1948-5.9505-6.1645-11.75-3.2813-2.9691,1.4761-5.318,3.5416-6.5313,5.7813-2.1707,4.0075-5.6165,5.0559-8.4062,2.5313-1.7126-1.5498-1.8498-1.5177-2.5,0.5312-0.4652,1.4657-3.1089,3.2883-8.0312,5.5625-4.0372,1.8653-7.6304,3.8585-7.9688,4.4063-0.3385,0.5477-1.7199,0.9687-3.0625,0.9687-1.3425,0-3.3375,0.9-4.4375,2s-3.3101,2-4.9062,2c-2.3401,0-3.2768,0.7304-4.8438,3.75-1.4108,2.7185-2.8868,4.0202-5.4375,4.75-1.9324,0.5529-4.3256,1.6753-5.3125,2.5-1.1565,0.9665-4.5988,1.6453-9.6562,1.875-8.4192,0.3823-9.4577-0.362-6.375-4.4375,1.9656-2.599,1.9091-3.1828-0.4688-3.9375-2.4922-0.791-6-7.3832-6-11.312,0-1.6046,0.7012-3.5041,1.5625-4.2188s2.2333-2.5817,3.0313-4.125c0.798-1.5431,2.9092-3.5331,4.6874-4.4374,4.2162-2.144,4.0648-1.9143,2.7813-4.3126-0.7494-1.4002-2.1179-2.0937-4.125-2.0937-2.2365,0-3.2229-0.6087-3.9063-2.4063-0.5025-1.3216-1.3758-2.6961-1.9687-3.0624-2.082-1.2867,0.1073-2.5313,4.4687-2.5313,5.5056,0,6.4688-1.5485,6.4688-10.312,0-10.417,0.6968-12.381,5.0938-14.406,3.2287-1.487,3.853-2.2576,3.875-4.8126,0.034-4.021,1.6559-5.4687,6.125-5.4687,2.0226,0,4.1768-0.6092,4.8124-1.375,0.6357-0.7659,2.4201-1.921,3.9688-2.5625,4.306-1.7836,7.125-7.6761,7.125-14.906,0-5.0552,0.3367-6.2662,2-7.1563,1.7026-0.9112,2-2.0779,2-7.9375,0-8.7056-0.5183-10.062-3.9688-10.062-1.5223,0-4.1875-0.2813-5.9062-0.625-2.7328-0.5466-3.125-1.0256-3.125-3.875,0-2.4174-0.5162-3.3933-2-3.7813-1.4462-0.3781-2-1.3665-2-3.5624,0-1.8116-0.7443-3.5644-1.8438-4.3438-2.4438-1.7325-3.2871-6.4338-1.4374-7.9688,0.7843-0.6509,2.0763-2.4555,2.875-4,0.7988-1.5444,3.0461-3.6226,5-4.625,0.2781-0.1426,0.5813-0.304,0.875-0.5h-49.469zm463.94,0c-0.7633,0.6736-0.3898,0.9735,1.0313,1.9688,2.4115,1.6891,2.7191,6.4967,0.5312,8.3125-0.825,0.6846-1.49,0.8548-1.5,0.375-0.084-4.7864-6-3.2457-6,1.5625,0,4.4199,5.7134,5.7374,8.375,1.9375,1.2675-1.8096,2.7884-2.1906,10.312-2.625l8.8125-0.5,0.2188-0.4687v-10.531c-0.01-0.012-0.024-0.019-0.031-0.031h-21.75zm-254.44,16.281c-2.1676,0-2.5,0.4482-2.5,3.3437,0,2.6016-0.5617,3.6027-2.5312,4.5-1.3904,0.6335-2.7754,1.8266-3.0938,2.6563-0.3655,0.9524-1.919,1.5405-4.2188,1.5625-3.2378,0.032-10.402,2.8182-7.4687,2.9062,0.6485,0.019,2.4725,1.9879,4.0625,4.3438l2.875,4.2812-2.6562,2.625c-2.6117,2.5739-2.7088,2.5919-4.3126,0.7188-0.902-1.0534-2.2681-1.9375-3.0312-1.9375-0.763,0-1.9403-0.675-2.625-1.5s-1.6424-1.5-2.125-1.5c-1.5252,0-0.9576,4.037,0.6562,4.6563,1.3709,0.526,1.3848,0.8038-0.094,2.4374-0.9503,1.0505-1.3979,2.5757-1.0313,3.5313,0.595,1.5501,0.7625,1.5471,2.4376,0.031,3.723-3.3694,5.1562-2.1801,5.1562,4.3437v6h4.5,4.5l-0.031-3.75c-0.029-6.3695,3.7852-12.57,9.5312-15.531,2.75-1.4172,5.7875-2.7974,6.75-3.0937,1.4108-0.4343,1.75-1.6918,1.75-6.5,0-5.0857-0.2945-6.0837-2-6.625-1.4883-0.4724-2-1.5082-2-4.0625,0-2.9948-0.3189-3.4375-2.5-3.4375zm276.22,4.25c-0.1619,0.093-0.2999,0.1878-0.4688,0.2813-0.07,0.039,0.1062,0.5653,0.4688,1.3437v-1.625zm0,43.938c-0.2387,0.2773-0.2201,0.8486,0,1.5625v-1.5625zm-237.03,74.125c0.4082-0.1363,0.7733,0.6565,1.5937,2.6875,0.7776,1.925,1.6662,4.226,1.9688,5.0937,0.3027,0.8679,2.0652,2.3195,3.9062,3.2188,3.2305,1.578,3.3951,1.5419,5.0626-0.5938,0.9502-1.2172,1.738-1.6797,1.75-1.0312,0.012,0.6486,2.0912,2.5611,4.5937,4.25,4.3262,2.9198,5.0238,3.0625,14.531,3.0625,11.318,0,14.943-1.2368,17.406-6,1.5358-2.9701,1.5935-3,10.406-3,9.5524,0,10.593,0.5016,11.969,5.6875,0.6,2.2615,1.4132,2.8978,4.0625,3.1562,2.2168,0.2165,3.4504,0.9221,3.7813,2.1876,0.2707,1.0349,1.5573,2.6054,2.875,3.4687,1.6664,1.0919,2.4062,2.4889,2.4062,4.625,0,2.2402,0.5567,3.2081,2.0312,3.5937,1.588,0.4152,1.7736,0.8237,0.875,1.9063-0.8292,0.9992-3.855,1.375-10.969,1.375-9.0471,0-9.862,0.182-10.469,2.0937-0.6301,1.9851-0.7382,1.9918-2.5938,0.3126-1.4146-1.2803-4.1551-1.8549-10.156-2.1563-7.4804-0.3757-8.647-0.1876-12.969,2.25-2.6125,1.4736-4.75,3.3158-4.75,4.0937,0,1.756-0.019,1.7518-3.8438-0.1562-3.8037-1.8976-5.1562-1.2209-5.1562,2.5312,0,3.1474-1.4465,4.0313-6.4688,4.0313-4.1417,0-6.9893-2.8009-3.7187-3.6563,1.7459-0.4565,1.9493-0.8971,1.125-2.4374-0.9416-1.7594-1.2401-1.6663-4.4687,1.5624-2.1302,2.13-3.4688,4.443-3.4688,6,0,2.9617-2.3719,3.4008-5.0938,0.9376-1.8933-1.7134-3.9062-1.1497-3.9062,1.0937,0,0.7555-0.9,1.6509-2,2-2.5233,0.8009-2.5621,2.1852-0.094,2.9687,3.3028,1.0483,1.449,4.5313-2.4062,4.5313-2.8494,0-3.3284,0.3923-3.875,3.125-1.0115,5.0576-0.7216,14.594,0.5312,17.344,0.847,1.859,1.9278,2.5313,4,2.5313,2.4949,0,2.8438-0.3677,2.8438-3.0313,0-1.7721-0.6231-3.2572-1.5-3.5937-2.3663-0.908-1.974-7.0898,0.5-7.875,1.4883-0.4724,2-1.5081,2-4.0625v-3.4375h8.5c4.675,0,8.5,0.2252,8.5,0.4687,0,1.4289-4.5314,7.77-6.1875,8.6563-1.8982,1.0159-1.9232,1.0804-0.1563,2.375,1.568,1.1487,1.9822,1.1179,2.75-0.3125,1.3532-2.5208,1.422-2.549,3.0626-1.1875,1.1658,0.9676,1.5312,3.4411,1.5312,10.562,0,8.456,0.1692,9.3877,2,9.9688l2.0312,0.625-2.0312,2.5624c-2.8622,3.6384-2.8566,12.253,0,13,1.863,0.4873,2,1.3772,2,12.813,0,10.272-0.2702,12.367-1.5938,12.875-2.5023,0.9601-3.4062,0.7077-3.4062-0.9063,0-2.0661-1.2455-1.8775-3.2812,0.5-0.9419,1.1-2.3884,2-3.2188,2-1.0312,0-1.5132,1.0303-1.5312,3.25-0.025,3.0265-0.4719,3.4635-6.5,6.1563-3.5602,1.5903-6.4688,3.229-6.4688,3.6562,0,2.4474,1.5214,3.9375,4,3.9375,3.5323,0,4.6083,3.1797,1.9062,5.625-1.6,1.4481-1.9062,3.1625-1.9062,11.125,0,9.2975,0.028,9.396,2.25,8.7187,1.2375-0.377,2.9754-1.3024,3.8438-2.0624s2.9336-1.4063,4.5937-1.4063c2.0991,0,3.288-0.6382,3.9375-2.0937,0.8999-2.017,0.9864-1.9896,2.25,0.75,0.7212,1.5637,1.9762,4.1704,2.7812,5.7812,1.301,2.6021,1.2888,3.0388-0.094,3.8125-0.8663,0.4848-1.5625,2.1815-1.5625,3.8437,0,2.5865-0.6021,3.2355-4.5,4.9063-3.8608,1.6549-4.5,2.3466-4.5,4.8437,0,2.4599-0.4839,3.0031-3.125,3.5313-5.2949,1.059-7.7571,0.722-8.8125-1.25-0.8063-1.5065-0.5777-2.1926,1.1563-3.3437,2.1405-1.4213,2.1141-1.4661-2-3.2813-3.7868-1.6707-4.0631-2.0147-2.7188-3.5,0.8175-0.9033,1.5-2.6184,1.5-3.8125,0-1.7402-0.5926-2.1875-2.9688-2.1875-3.9232,0-5.0312,2.3036-5.0312,10.406,0,5.4174,0.3128,6.7098,1.9062,7.5624,1.8794,1.006,1.874,1.1185-0.25,5.0313-2.9174,5.3743-5.6562,5.4314-5.6562,0.125,0-3.3669-0.3239-3.953-2.5312-4.375-2.1541-0.4117-2.8608,0.1318-4.5313,3.4063-2.2201,4.3517-2.756,4.5093-7.125,2.25-2.8068-1.452-3.2087-1.4452-4-0.031-1.4179,2.5337-3.5993,0.7837-4.3125-3.4375-0.4051-2.398-1.2303-3.9375-2.0938-3.9375-0.7766,0-1.4062-0.3508-1.4062-0.8125,0-1.0337,4.4956-3.1875,6.6875-3.1875,1.4656,0,1.4686-0.155,0.031-1.75-0.8675-0.9625-1.8367-2.875-2.1876-4.25s-1.3113-3.3715-2.125-4.4687c-1.273-1.7167-1.619-1.7864-2.4687-0.5-0.5432,0.8222-1.2674,2.7185-1.5937,4.2187l-0.5938,2.7187-2.5-1.9687c-1.3829-1.0877-3.2366-2.0132-4.125-2.0313-2.8001-0.055-5.125-2.5653-5.125-5.5624,0-2.3066,0.7576-3.31,3.7188-4.9063,4.1352-2.2292,5.0384-4.3651,5.1874-12.312,0.1206-6.4319-0.8896-8.5055-4.875-10.156-3.3752-1.3982-4.1275-4.8765-1.5312-7.0313,4.2027-3.4879-1.3439-4.4046-7.75-1.2813-2.6125,1.2738-4.75,2.9968-4.75,3.8126,0,1.6845-1.57,1.9734-2.5,0.4687-0.3399-0.55-1.72-1-3.0625-1-2.0455,0-2.4375,0.486-2.4375,3,0,1.65-0.4863,3-1.0625,3-0.5763,0-2.1296,1.2112-3.4687,2.6563-2.1364,2.3051-2.5202,2.4011-3.0938,0.9062-0.3596-0.9371-1.7-2.0995-3-2.5938-2.0905-0.7948-2.375-1.5272-2.375-6.4062,0-4.4333,0.3927-5.7775,2-6.7812,1.6698-1.0429,2-2.336,2-7.8126,0-8.8296-1.2449-9.8409-5.9688-4.875-5.4843,5.7653-7.0312,5.2942-7.0312-2.0937,0-5.943,0.025-6,2.875-6,3.8055,0,6.0897-2.5617,3.8125-4.2813-1.4584-1.1012-1.3246-1.8213,1.4063-7.4687,2.6918-5.5665,3.3473-6.25,5.9687-6.25,2.2766,0,2.9375-0.453,2.9375-2,0-2.8214-6.5772-2.903-7.4688-0.094-0.4101,1.2923-1.224,1.7251-2.5624,1.375-1.4651-0.3832-1.9688-1.3527-1.9688-3.875,0-1.861,0.4297-3.4063,0.9375-3.4063s2.2874-1.1478,3.9687-2.5625c4.1413-3.4846,6.9981-2.8852,9.75,2.0312,1.2175,2.1749,3.1736,4.3172,4.3438,4.75,1.6606,0.6143,2.0576,1.4604,1.8125,3.9063-0.2595,2.5897-0.9202,3.3207-3.8125,4.25-3.0918,0.9935-3.5357,1.5812-3.8125,4.9375l-0.3125,3.8125,6.3125-0.3125,6.3125-0.3125,0.3125-4.9687c0.1728-2.7394,0.8478-5.304,1.5-5.7188,2.0362-1.2947,3.5282-0.8899,4.1875,1.1875,0.4691,1.478,1.513,2,4,2s3.5309,0.522,4,2,1.513,2,4,2,3.5309-0.522,4-2c0.787-2.4797,1.2558-2.4797,5,0,1.65,1.0927,3.3375,2,3.75,2s0.75-2.6569,0.75-5.9375c0-4.9282-0.3584-6.1526-2-7.0312-1.9735-1.0563-1.965-1.1107-0.031-4.7188,2.0374-3.8014,1.8869-5.3125-0.5313-5.3125-1.08,0-1.4375-1.3779-1.4375-5.5,0-3.025,0.3725-5.5,0.8125-5.5,1.6609,0,3.1875,2.5197,3.1875,5.2187,0,2.523,0.3447,2.7813,3.4375,2.7813,2.6325,0,3.5712-0.4789,4.0937-2.125,0.4705-1.4822,0.184-2.4488-0.9687-3.0937-2.4117-1.3498-0.1241-3.7813,3.5625-3.7813,2.5377,0,2.875-0.3562,2.875-3.0313,0-6.518-11.732-13.566-13.469-8.0937-0.7409,2.3346-3.3578,4.7016-6.1874,5.5625-1.7834,0.5425-2.566-0.045-4.4376-3.375l-2.2812-4.0625h-8.7188-8.75l-2.0624,3.375c-2.6856,4.3453-2.6168,4.7634,1.1874,7.1563,4.3228,2.7192,5.7022,6.7278,3.25,9.4374-2.0668,2.2839-4.1104,2.5308-8.2187,0.9688-2.491-0.9471-2.611-1.1647-1.0625-2.0312,2.276-1.274,2.2445-5.1311-0.063-7.2188-3.0891-2.7956-7.4302-3.1098-11.25-0.7812-2.5179,1.5349-5.1148,2.0937-9.7813,2.0937-5.5043,0-6.4211-0.2646-6.875-2-0.3916-1.4976-1.3679-2-3.875-2-2.2867,0-3.6679-0.5851-4.375-1.9063-1.3715-2.5628-1.2898-3.0937,0.4063-3.0937,1.9758,0,7.5625-4.8443,7.5625-6.5625,0-0.9331,1.1354-1.4375,3.3438-1.4375,2.5916,0,3.5846-0.5598,4.4687-2.5,0.8337-1.8298,1.9095-2.5,4.0313-2.5,1.5945,0,3.5039-0.7013,4.2187-1.5625,0.7148-0.8613,2.5695-2.2269,4.125-3.0312,1.5556-0.8044,3.8934-3.1818,5.2187-5.2813,1.3905-2.2026,4.0375-4.551,6.25-5.5625,2.1092-0.9642,5.6702-2.6107,7.9063-3.6562,2.2362-1.0456,5.0153-1.9063,6.1875-1.9063,1.1723,0,4.2577-1.125,6.8438-2.5,3.5934-1.9107,6.2085-2.5,11.062-2.5,6.1078,0,6.3438-0.096,6.3438-2.5,0-3.3374,3.3277-6.5,6.8438-6.5,2.3555,0,3.1644-0.6918,4.6562-4l1.8125-4h6.3437c5.9575,0,6.3438-0.1227,6.3438-2.2813,0-1.2649-0.5296-2.842-1.1875-3.5-0.9284-0.9283-0.8448-1.4645,0.375-2.4374,0.8646-0.6896,2.0404-2.1813,2.625-3.2813,0.3701-0.6963,0.6301-1.1057,0.875-1.1875zm75.219,57.219c0.4055,0,0.7215,0.5034,1.3438,1.5,0.6852,1.0972,1.7253,1.9687,2.3438,1.9687,2.0586,0,6.4062,4.1386,6.4062,6.0937,0,2.8139-5.9807,2.7285-6.7188-0.094-0.5583-2.135-1.1787-2.3617-3.75-1.375-1.4924,0.5725-1.4731,0.7719,0.063,2.4687,0.931,1.0289,1.9355,4.4388,2.2812,7.6563,0.5766,5.3664,0.8135,5.7709,3.3438,6.0625,1.4984,0.1726,3.4792-0.1062,4.4062-0.625,1.5301-0.8563,1.5097-1.0226-0.375-2.0312-1.667-0.8923-1.9358-1.6591-1.3438-3.875,0.4056-1.5179,1.8205-3.3019,3.1563-3.9376,1.3358-0.6356,5.2977-2.548,8.8125-4.25,3.5147-1.7019,6.9758-3.0937,7.6562-3.0937,0.6805,0,1.7841-0.675,2.4688-1.5,2.6976-3.2505,9.0365-0.6752,10.469,4.25,0.5642,1.9404,0.3033,2.25-2.0313,2.25-3.3816,0-5.3652,2.5032-5.4063,6.8437-0.017,1.8382-0.9312,4.5079-2.0312,5.9063s-2,3.1435-2,3.875c0,0.7314,0.9,1.7863,2,2.375,1.7909,0.9585,2.012,2.1134,2,10.812-0.018,12.682-0.4825,14.188-4.0938,14.188-1.8248,0-3.2205,0.7187-3.9062,2-0.9009,1.6834-2.0899,2-7.5312,2-4.9448,0-6.4688-0.3104-6.4688-1.4063,0-0.7879-0.875-1.7253-1.9375-2.0624-2.4123-0.7657-7.0625-8.5458-7.0625-11.813,0-1.3404,0.9-3.5702,2-4.9687,2.9607-3.7639,2.5916-5.75-1.0625-5.75-2.7429,0-3.3084-0.5443-5.5-5.5-1.5084-3.4107-3.2948-5.8709-4.6875-6.4063-1.2396-0.4765-3.6-1.4147-5.25-2.0937l-3-1.2187,2.3125-1.0626c3.195-1.4643,6.8795-8.641,5.0313-9.8124-0.7368-0.4671-1.739-0.865-2.2188-0.875-2.0905-0.037,1.861-3.0313,4-3.0313,1.3077,0,3.2779-0.8715,4.375-1.9687,0.9965-0.9966,1.5008-1.5,1.9062-1.5zm83.188,3.4687c5.704,0,8.5825,1.5388,11.437,6.0625,1.4276,2.2615,3.9313,4.6759,5.5938,5.375,3.5068,1.4745,7.9471,8.533,7.1875,11.438-0.5018,1.9191-0.5652,1.9288-4.1563-0.1563-2.0111-1.1676-4.25-2.9228-4.9687-3.9062-0.8646-1.1832-2.6012-1.8125-5.1563-1.8125-5.8072,0-7.0312,0.7812-7.0312,4.5,0,4.3499,3.4695,5.4268,8.2188,2.5313,1.8091-1.1031,3.5771-2,3.9374-2,0.9988-0.01,5.8438,8.6194,5.8438,10.406,0,0.8645,0.3725,1.5625,0.8125,1.5625,1.6609,0,3.1875-2.4886,3.1875-5.1875,0-2.5165,0.3567-2.8125,3.4062-2.8125,4.9026,0,6.5222,5.1343,2.9063,9.1875-1.5774,1.7681-1.0444,3.8125,1,3.8125,0.659,0,2.4113,2.025,3.9063,4.5,2.2199,3.6752,3.2547,4.5,5.625,4.5,6.6649,0,6.7079,7.2026,0.062,10.938l-4,2.25,2.0626,3.4688c2.5263,4.281,2.5091,4.3437-0.063,4.3437-1.1507,0-3.2265,0.9-4.625,2-1.3984,1.1-3.1681,2-3.9062,2-0.7382,0-2.0678,1.125-2.9688,2.5-2.0822,3.1779-6.9584,3.4863-7.9062,0.5-1.1224-3.5362-4.0094-1.6767-4.6562,3-0.2732,1.9741-1.0101,2.5731-3.4688,2.8125-2.162,0.2105-3.4447,1.0511-4.2188,2.75-2.0331,4.4623-6.3859,2.1982-8.3124-4.3125-0.5944-2.0087-0.3104-2.25,2.5937-2.25,3.615,0,5.5625-2.7566,5.5625-7.875,0-1.5388,0.9-3.6295,2-4.625s2-2.3852,2-3.0937c0-0.7086,0.9399-1.9419,2.0938-2.75l2.0937-1.4688-2.0625-1.0938c-1.7173-0.919-2.2473-0.7525-3.2188,1.0626-1.06,1.9809-1.2184,2.0327-2.0937,0.4687-0.528-0.9435-2.0756-2.1503-3.4063-2.6563-1.823-0.693-2.4062-1.6581-2.4062-3.9374,0-1.6636,0.4012-3.0313,0.9062-3.0313,0.5051,0,1.586-0.2477,2.4063-0.5625,0.9488-0.3641,1.758,0.2093,2.1875,1.5625,0.669,2.108,0.6848,2.0944,3.0312-0.4375,1.3021-1.405,2.8594-2.5625,3.4688-2.5625,0.669,0,0.9998-1.486,0.8125-3.75l-0.3125-3.75-8.5-0.25-8.5-0.2813-2.3438,4.4376c-2.4237,4.5959-2.3199,7.3883,0.375,9.625,0.8038,0.6669,1.4688,2.5111,1.4688,4.0937,0,2.5052-0.3634,2.875-2.875,2.875-1.9738,0-3.4105,0.7896-4.5312,2.5-0.901,1.375-2.2417,2.5-2.9688,2.5-0.727,0-2.1295,0.9-3.125,2-0.9996,1.1045-3.0898,2-4.6562,2-1.7536,0-3.2903-0.7636-4.0626-2-0.8294-1.3282-2.3586-2-4.5-2-2.2008,0-3.5506,0.6348-4.2812,2-0.69644,1.3013-2.0938,2-4,2-1.8876,0-3.2918,0.704-3.9688,1.9687-1.5754,2.9439-4.0312,1.4499-4.0312-2.4687,0-2.8333-0.5408-3.5882-3.75-5.1563-6.2161-3.0374-5.2185-9.0013,1.7812-10.656,1.6546-0.3911,3.5584,0.064,5.5,1.3438,1.6333,1.0765,3.2669,1.9687,3.625,1.9687,0.3582,0,1.6082-1.6056,2.7813-3.5937,1.9421-3.2917,1.9743-3.7346,0.5-4.8126-1.473-1.077-1.4243-1.5075,0.5625-4.875,1.6754-2.8396,2.8305-3.7187,4.9375-3.7187,1.5104,0,3.5485-0.8828,4.5313-1.9687,0.9827-1.086,2.6287-2.2364,3.6562-2.5626,1.3294-0.4218,1.875-1.5465,1.875-3.9062,0-2.4749,0.5072-3.4533,2-3.8438,1.6843-0.4403,2-1.3748,2-5.875,0-2.939,0.4897-7.0312,1.0625-9.0937,0.9062-3.263,1.4344-3.75,4.0313-3.75,1.9625,0,3.1634-0.5992,3.5312-1.75,1.6867-5.2776,2.6821-6.25,6.4688-6.25zm-61.344,79.469c0.5339-0.091,1.1518,0.5269,2.5938,1.9688,1.4107,1.4107,3.05,2.5625,3.625,2.5625,0.6248,0,1.0312,2.7487,1.0312,6.8125,0,7.731,0.9362,9.1875,5.7812,9.1875,4.9764,0,7.2188-1.5676,7.2188-5.0313,0-2.298,0.4497-2.9687,2-2.9687,1.8578,0,2,0.695,2,9.4063,0,8.3668,0.2202,9.5259,2.0625,10.75,2.9062,1.9308,1.6109,4.8437-2.1563,4.8437-2.3795,0-2.9062,0.4507-2.9062,2.4063,0,1.3076,0.675,2.909,1.5,3.5937s1.5,2.5424,1.5,4.125c0,2.8776-0.01,2.875-6.5,2.875-5.6443,0-6.5-0.2152-6.5-1.8125,0-1.0167,1.1687-2.399,2.625-3.0625,2.4791-1.1295,2.5992-1.4862,2.0312-6.2813-0.3319-2.8025-0.7781-5.2782-1-5.5-0.2218-0.2217-2.028,0.6162-4,1.875-2.6464,1.6894-3.594,3.0186-3.625,5.0313-0.027,1.7633-0.9086,3.3011-2.5,4.3437-1.3535,0.8869-2.729,2.4493-3.0624,3.5-0.4084,1.2868-1.5343,1.9063-3.4376,1.9063-3.7028,0-4.9708-2.9322-2.0937-4.8437,1.3946-0.9266,2.0625-2.4518,2.0625-4.6876,0-2.4324,0.5306-3.5023,2-3.9687,1.7092-0.5425,2-1.4949,2-6.6563,0-4.6696-0.7035-7.4947-3.0625-12.437-2.731-5.7223-3.3604-6.4063-6-6.4063-2.1884,0-2.9375-0.4576-2.9375-1.8125,0-1.9731,3.9101-6.1875,5.75-6.1875,0.6209,0,1.7982-0.9268,2.5938-2.0625,0.6324-0.9029,0.9909-1.3978,1.4062-1.4688zm139.97,35.156c-0.4703,1.3783-0.6791,4.0686-0.6876,8.125l-0.031,7.25h0.7188v-15.375zm-177.81,11.719c0.7785-0.031,1.4896,0.1567,2.0938,0.5938,0.825,0.5968,2.625,1.624,4,2.2812,1.375,0.6575,2.6345,1.2938,2.8125,1.4063,1.1799,0.7457-3.5518,6.7533-7.3437,9.3125-5.281,3.5641-8.9077,3.9124-10.688,1.0625-0.8209-1.3147-2.3598-2-4.4374-2-2.5889,0-3.5425,0.697-5.3438,3.75l-2.1875,3.7187,2.0937,1.4063c2.8428,1.8875,2.7374,5.8861-0.1874,7.2187-3.2392,1.4759-7.0152,8.9213-6.1876,12.219,0.3606,1.4369,1.2916,3.1413,2.0626,3.7812,0.771,0.64,1.4062,2.4487,1.4062,4.0313v2.875h-12.406c-14.35,0-13.594-0.5662-13.594,10.594v7.4063h-3.8438c-3.3281,0-4.1499-0.4736-6.25-3.7187-1.3299-2.0553-3.6485-4.3399-5.1562-5.0626-1.5077-0.7226-3.2076-2.1779-3.7812-3.25-1.1963-2.2352-5.4473-2.5851-9.4063-0.7812-1.9893,0.9064-2.5625,1.8919-2.5625,4.5,0,1.9081-0.5102,3.3125-1.1875,3.3125-0.6521,0-2.1986,0.9612-3.4375,2.125l-2.25,2.125-1.5-3.625c-1.6857-4.0343-2.2454-4.294-4.5312-2.0937-0.8712,0.8384-3.2881,2.6385-5.375,4-4.8237,3.1468-6.7472,3.0192-14.625-1-5.9077-3.0141-6.2461-3.3716-4.3126-4.4063,1.1549-0.618,2.7951-1.125,3.6563-1.125,0.8611,0,2.4625-0.9,3.5625-2,1.1051-1.1051,3.3224-2,4.9688-2,2.4537,0,3.3401-0.6826,4.9687-3.875,2.3045-4.5172,3.5162-5.125,10.156-5.125,2.7049,0,4.8962-0.3375,4.9062-0.75s0.4188-1.3119,0.875-2.0313c0.658-1.0375,1.5464-0.8877,4.375,0.7813l3.5625,2.0937,0.7187-3.2812c0.3983-1.8128,1.5677-3.8751,2.5938-4.5938,1.0261-0.7186,1.875-1.9463,1.875-2.7187,0-0.7723,0.8391-2.2036,1.875-3.1875,1.036-0.984,2.2155-3.2332,2.5938-5,1.021-4.7699,5.152-6.5931,16.5-7.25l9.4374-0.5625,2.5626-3.6875c1.3986-2.0347,4.2255-4.8472,6.3124-6.25,3.3887-2.2778,4.7835-2.5625,13.063-2.5625h9.2812l1.6875-3.5c1.436-3.0113,4.2584-5.064,6.5937-5.1563zm-176.12,30.656c2.5086,0,3.1842,0.7234,5.5626,5.875l2.7187,5.875,5.2187,0.625c2.87,0.3447,7.1059,0.615,9.4063,0.625,3.3,0.01,4.3117,0.4221,4.8125,2,0.4724,1.4883,1.5081,2,4.0625,2,3.132,0,3.4375,0.2852,3.4375,2.9687,0,1.6175,0.459,3.2088,1.0312,3.5626,0.5723,0.3536,2.1924,2.4675,3.5938,4.6874,1.4013,2.22,3.8674,4.5206,5.4688,5.125,2.3411,0.8837,2.9062,1.6969,2.9062,4.1563,0,1.821-0.8092,3.7616-2,4.7813-1.1,0.9418-2,2.7674-2,4.0624,0,1.2953-0.9,3.1608-2,4.1563s-2,2.4234-2,3.1563c0,0.7328-1.8525,2.5028-4.125,3.9374-3.2986,2.0824-4.3191,2.3557-5,1.2813-0.4691-0.7401-0.865-1.7834-0.875-2.2813-0.035-2.0443-3.9049,2.8407-4.1875,5.2813-0.2509,2.1669-0.8782,2.6839-3.5,2.9375-2.118,0.205-3.4363,0.9665-3.8437,2.25-0.3871,1.2199-1.5019,1.9375-3.0313,1.9375-2.4106,0-2.4375-0.079-2.4375-9.75,0-8.3539-0.2549-9.9336-1.8125-10.906-3.1557-1.9706-7.0567-0.4179-9.4375,3.7188-1.7864,3.104-2.5143,3.6222-3.9688,2.8438-2.6639-1.4257-2.5154-12.149,0.2188-15.625,1.1-1.3986,2-3.13,2-3.8438,0-0.7137,0.9-1.5884,2-1.9375,2.4363-0.7732,2.5953-2.0422,0.3438-2.9063-1.5258-0.5855-3.3058,0.8082-3.3438,2.6563-0.01,0.4125-1.5071,0.75-3.3438,0.75-2.5916,0-3.5847,0.5598-4.4687,2.5-1.0558,2.3171-1.6619,2.5-8.0937,2.5-8.9845,0-10.094,0.4889-10.094,4.375,0,2.3136-0.6005,3.4325-2.25,4.1563-1.2375,0.5428-3.3266,2.6562-4.6562,4.7187-1.8388,2.852-3.1077,3.75-5.2188,3.75-1.6524,0-3.3443,0.8274-4.1875,2.0313-1.5218,2.1727-3.7536,1.922-6.9375-0.8126-3.0876-2.6517-2.1818-5.7061,2.2812-7.7187,2.5124-1.1329,4.2336-2.6584,4.5938-4.0937,0.3172-1.2636,1.1978-2.8289,1.9688-3.4688,1.9394-1.6097,1.7579-2.6911-0.5938-3.4375-1.7007-0.5398-2-1.5096-2-6.5,0-5.7944,0.063-5.8989,3.9688-8.0937,6.8815-3.8678,6.2019-11.33-1.0938-12.094l-2.9062-0.3125,2.5312-3.75,2.5625-3.75h15.062c14.216,0,15.1,0.1117,15.594,2,0.2875,1.1,0.8257,2,1.2187,2,0.7266,0,2.4245-3.0802,3.4375-6.25,0.3604-1.1276,1.5662-1.75,3.4062-1.75zm-123.44,67.406c0.4295-0.052,0.8971,0.1745,1.1562,0.5937,0.3455,0.559-0.08,1-0.9375,1-1.7565,0-2.012-0.5803-0.625-1.4375,0.128-0.079,0.2631-0.1391,0.4063-0.1562zm423.66,14.594-7.25,0.031c-8.3428,0.017-11.566,1.2909-13.719,5.4687-1.9762,3.8341-3.541,5.0766-9.0312,7.1563-5.7253,2.1687-5.5904,2.024-3.8125,4.0937,3.9258,4.5702,2.799,8.9326-2.4375,9.4375-2.7619,0.2663-3.3098,0.757-3.5938,3.25-0.2394,2.1024,0.3092,3.4126,1.875,4.5938,1.6848,1.2707,2.1748,2.6804,2.5938,8.4062h25.312c0.1331-0.1413,0.2651-0.2806,0.375-0.4375,1.3353-1.9064,3.3216-1.7912,6.7187,0.4375h7.4688c0.467-0.8711,0.5-2.4944,0.5-5.875,0-8.292,0.5365-9.5625,4.125-9.5625,1.9063,0,3.1369-0.6092,3.5-1.75,0.3063-0.9625,1.6618-4.0631,3.0312-6.9063,2.0628-4.2825,2.3097-5.539,1.3438-7.3437-1.1177-2.0885-1.2124-2.1152-2.4375-0.3437-0.7029,1.0162-1.617,2.9687-2.0313,4.3437-0.9521,3.1615-3.4285,6-5.2187,6-0.7581,0-3.612,1.1469-6.3437,2.5313l-4.9688,2.5312v-2.625c0-1.435,0.9-3.7578,2-5.1562,1.615-2.0532,2-4.0554,2-10.406v-7.875zm-414.63,1.3437c0.2722-0.072,0.6838,0.3824,0.9688,1.125,0.6761,1.7621,0.1109,2.0643-0.875,0.4688-0.3626-0.5866-0.4496-1.2692-0.1876-1.5312,0.033-0.033,0.055-0.052,0.094-0.063z" stroke="#1b99fa"/>
</g>
</svg>
