<?xml version="1.0" encoding="UTF-8" standalone="no"?>
<!-- Created with Inkscape (http://www.inkscape.org/) -->
<svg id="svg2" xmlns:rdf="http://www.w3.org/1999/02/22-rdf-syntax-ns#" xmlns="http://www.w3.org/2000/svg" preserveAspectRatio="none" height="506" width="489.56" version="1.1" xmlns:cc="http://creativecommons.org/ns#" xmlns:dc="http://purl.org/dc/elements/1.1/">
<defs id="defs4"></defs>
<metadata id="metadata7">
<rdf:RDF>
<cc:Work rdf:about="">
<dc:format>image/svg+xml</dc:format>
<dc:type rdf:resource="http://purl.org/dc/dcmitype/StillImage"/>
<dc:title/>
</cc:Work>
</rdf:RDF>
</metadata>
<g id="layer1" transform="translate(-545.21875,-579.71875)">
<path id="path4034" fill="none" d="m552.58,580.21c-1.5516,2.7638-2.3752,3-5.2812,3-0.5094,0-1.0449-0.041-1.5938-0.1563v17.969c0.7499,0.1372,1.6582,0.1827,2.8126,0.1875,2.2947,0.01,4.2344,0.7397,5.375,2,0.9827,1.086,2.6287,2.2364,3.6562,2.5625,1.5476,0.4912,1.875,1.6164,1.875,6.5312v5.9063h-3.0312c-1.8045,0-3.2739,0.6475-3.625,1.5625-0.3243,0.8453-1.8854,2.1813-3.4688,3-2.6822,1.3871-2.875,1.8961-2.875,7.4375,0,2.3664-0.2317,4.4607-0.7188,6.4063v15.437c0.9556,1.328,1.7341,1.7274,2.5626,1.4376,1.3414-0.4694,1.4234-0.3151,0.4062,0.7812-0.6875,0.7409-1.25,3.5043-1.25,6.125,0,3.7414,0.4296,4.972,2,5.8125,1.3463,0.7205,2,2.1107,2,4.2187,0,1.7223,0.2821,2.843,0.625,2.5,0.3429-0.3429,2.0741,0.4941,3.8438,1.8438,1.7695,1.3497,4.9772,3.0689,7.125,3.8125,3.0911,1.0701,4.1012,2.058,4.9062,4.75,1.5566,5.2053,3.4372,7.9774,10.5,15.656,6.5243,7.0935,12,10.225,12,6.8437,0-2.6793,1.3862-1.8192,3.7812,2.375,1.4348,2.5125,3.2489,4.2324,4.9376,4.6563,2.2624,0.5679,3.2121,0.067,6.2187-3.3126,4.6295-5.2036,6.9072-6.3437,12.812-6.3437,2.6811,0,5.659-0.575,6.625-1.2813,1.6382-1.1979,1.5299-1.6238-1.5625-6.4687-1.8233-2.8565-3.8432-5.2067-4.5-5.2187-0.6569-0.012-2.4569-1.1785-4-2.5938l-2.8125-2.5625,2.6562,0.5625c1.4671,0.3145,2.8171,0.1829,3-0.2812,0.1831-0.4642,2.4208-1.097,4.9688-1.4376,4.3286-0.5785,4.8797-0.3964,8.3125,2.9376,3.5406,3.4385,3.7525,3.507,5.625,1.8124,3.0025-2.7173,2.3469-4.1967-3-6.9062-5.9075-2.9935-5.9072-3.026-7.5625-10.938-0.7206-3.4441-2.2261-7.7447-3.3125-9.5313-1.8204-2.9934-1.8537-3.5244-0.5-6.9062,0.8552-2.1365,3.3335-5.0581,5.9063-6.9688,2.4303-1.8048,4.4062-4.0225,4.4062-4.9374,0-2.4694-5.0351-7.2813-7.625-7.2813-3.1115,0-3.8467-1.5939-1.125-2.4687,1.9002-0.6109,1.9854-0.7909,0.5-1.1876-0.9625-0.257-1.75-1.1216-1.75-1.9062,0-0.7847-0.6402-1.4375-1.4062-1.4375-1.1623,0-2.5938-1.9657-2.5938-3.5625,0-1.1544,3.1329-0.1689,6.375,2.0312,2.7484,1.8653,3.625,2.1101,3.625,1,0-0.8083,0.4313-1.4687,0.9688-1.4687,0.5372,0,1.6789-1.0431,2.5312-2.3437,1.2095-1.8461,1.3234-2.9905,0.5-5.1563-0.8302-2.1834-0.7339-3.1399,0.4688-4.4687,0.8405-0.9289,1.5312-2.6496,1.5312-3.8438,0-2.4132,1.124-2.7166,4.1562-1.0938l2.0313,1.0938-2.0937,1.9375c-3.7811,3.5225-2.7422,10.808,2.8437,19.875,0.5082,0.825,1.5127,3.6375,2.2187,6.25,1.3769,5.0942,1.7983,5.4138,4.8126,3.5313,1.676-1.0467,2.3844-0.7884,4.9687,1.6874,1.6559,1.5865,3.5197,4.3845,4.125,6.2188,1.332,4.0357,3.7105,4.3081,6.75,0.8125,1.2788-1.4708,3.2485-2.5,4.7813-2.5,1.6053,0,3.6793-1.1514,5.4062-3,1.5413-1.65,3.0347-3,3.3125-3,1.3011,0-0.7966,4.0907-3.3437,6.5313-2.3272,2.2296-2.6281,3.0439-1.7188,4.5,0.6108,0.978,1.6779,1.5487,2.375,1.2812,0.9918-0.3806,1.0329,0.1667,0.1875,2.4062-0.8912,2.3613-0.6941,3.5882,1.0625,7.0313,1.5888,3.1143,1.8929,4.7582,1.2188,6.5313-0.9253,2.4338-10.582,11.719-12.188,11.719-1.5468,0-0.9954,2.7605,0.6876,3.4063,1.2251,0.4702,1.4762,1.4302,1,3.9687-0.4779,2.5473-0.008,4.4452,2.0312,8.0937l2.6875,4.7813,5-0.5937c2.9256-0.3465,6.5217-1.6458,8.6563-3.125,4.3566-3.0193,8.9199-3.2023,14.594-0.625,2.2301,1.0128,5.8301,1.8437,8,1.8437,2.17,0,6.5675,0.5909,9.7813,1.3125,6.8041,1.5279,7.6562,2.8576,7.6562,11.875,0,4.7205,0.5449,6.5779,2.9062,10.094,1.5832,2.3573,3.9185,4.8601,5.2188,5.5937h0.0312c3.85,2.1174,10.784,1.648,16.25-1.125,7.9748-4.0458,8.5938-4.9106,8.5938-12.344,0-5.4177-0.4378-7.1702-2.5938-10.281-3.6107-5.2104-6.4194-6.7661-12.937-7.2187-4.4638-0.3102-6.2693-1.0028-8.7813-3.2813-4.3241-3.9221-4.6944-4.5447-4.0937-6.9375,0.3054-1.2169-0.1172-2.6164-1.0313-3.375-1.9333-1.6047-1.9611-5.7413-0.0625-9.0625,0.786-1.375,1.4498-4.5128,1.4688-7,0.0273-3.5011,0.6826-5.3516,2.9687-8.125,2.2182-2.6911,2.945-4.5424,2.875-7.4687-0.1698-7.0665,1.3155-8.9766,12.312-15.688,2.1595-1.3178,2.8457-2.7835,3.7812-8.1562,1.0689-6.1373,0.9914-6.9104-1.25-11.594-1.376-2.8746-1.9839-5.2559-1.4374-5.5937,0.5237-0.3237,2.6494,0.1919,4.7187,1.125l3.75,1.6875,5.5313-3.5312c3.0385-1.9438,5.8034-4.225,6.125-5.0626,0.9601-2.5018-3.8896-7.1564-12-11.531-7.3543-3.9668-7.6889-4.0664-9.5938-2.3438-1.5768,1.4262-3.5765,1.7785-10.094,1.6876-7.4832-0.1047-8.791-0.4493-16.125-4.25-4.3895-2.2749-8.9845-4.1563-10.187-4.1563-5.5388,0-6.7742-2.3018-3.125-5h-12.75c0.9483,0.9478,1.7422,1.9766,2.0937,2.8125,0.6877,1.6355,1.7393,3.2516,2.3437,3.625,0.6043,0.3735,1.0938,1.7375,1.0938,3.0312,0,2.2329,4.964,7.5313,7.0625,7.5313,0.5078,0,0.9375,1.227,0.9375,2.7187,0,2.6474,0.6615,3.5351,8.7188,11.594,7.0348,7.0361,7.9739,7.6875,10.906,7.6875,2.3484,0,3.2263,0.6411,4.3438,3.25,0.7654,1.7875,1.5475,3.5325,1.75,3.875,0.2024,0.3424-0.5651,0.8627-1.6876,1.1563-3.1521,0.8242-2.8184,6.4084,0.4688,7.9062l2.5,1.1562-2.5,4.25c-2.1392,3.6503-2.5,5.5103-2.5,12.813,0,7.3145-0.2732,8.6739-1.875,9.5312-1.3225,0.7077-2.0008,2.4938-2.3438,6.0625-0.2665,2.7747-1.2197,5.8436-2.125,6.8437-1.2888,1.4244-1.6562,3.9258-1.6562,11.5v9.6563h-11c-8.9937,0-11-0.2399-11-1.4375,0-1.9545-3.1465-3.5625-7.0312-3.5625-1.737,0-4.2891-0.9-5.6876-2-1.3984-1.1-3.3227-2-4.2812-2s-2.2621-0.6053-2.875-1.3437c-0.8832-1.0642-0.2891-1.6121,2.875-2.6563,4.2134-1.3906,4.9768-2.3933,2.5-3.3437-0.825-0.3165-1.5-1.6751-1.5-3,0-1.325,0.675-2.9716,1.5-3.6563,1.1387-0.9451,1.5-3.4874,1.5-10.625,0-8.8804,0.1173-9.4585,2.2812-10.281,1.2602-0.4791,2.8929-1.5865,3.625-2.4687,0.7324-0.8823,2.6362-1.625,4.2188-1.625,2.6761,0,2.875-0.2635,2.875-3.875,0-3.0424-0.4331-3.9965-2-4.4063-1.4522-0.3796-2-1.3641-2-3.5937,0-5.5016-5.5332-7.334-10.156-3.375-1.4975,1.2825-1.9481,0.8214-4.4063-4.6563-2.5148-5.6036-2.9462-6.0937-5.9063-6.0937-1.9245,0-3.9281-0.7843-5-1.9687-0.9828-1.086-2.6287-2.2364-3.6562-2.5626-2.7057-0.8587-2.6239-11.546,0.125-16.937,1.0917-2.1412,1.757-4.0868,1.5-4.3438s-3.8871-0.7009-8.0625-0.9688c-6.4393-0.4133-8.3171-0.134-12.406,1.7813-2.6714,1.2512-5.3057,3.3071-5.9062,4.625-0.793,1.7405-1.8825,2.375-4.0938,2.375-4.4469,0-4.1397-3.4749,0.5-5.6875,2.0887-0.9959,4.5272-3.3931,6-5.9062,2.9879-5.0984,2.9682-5.0339,0.4688-5.6876-1.4351-0.3753-2-1.3634-2-3.5,0-2.167,0.4163-2.9276,3.2188-4.2187h-95.063zm257.41,0c0.1793,0.1325,0.3437,0.2627,0.5313,0.4063,4.3422,3.3216,10.875,6.7193,38.156,19.937,14.009,6.7875,16.37,7.4673,19.812,5.625,2.3874-1.2777,6.3688-7.4297,7.3437-11.375,0.3961-1.6019,2.9152-5.202,5.625-8,2.2792-2.3531,3.6438-4.016,4.9376-6.5937h-23.969c0.0127,5.5035,0.2564,5.9709,3.5312,8.4687l3.5313,2.6876-2.2813,4.1874c-2.3463,4.2617-5.0121,5.5159-7.7812,3.6876-1.1512-0.7601-0.7557-0.988,1.7188-1,2.5513-0.012,3.5428-0.6342,4.75-2.9688,1.9632-3.7963,2.0111-3.5757-1.4376-6.0312l-2.9374-2.0938-1.625,3.125c-0.8902,1.7211-1.85,2.9-2.125,2.625-0.2751-0.275,0.2281-1.8574,1.0937-3.5312,0.9232-1.7855,1.4518-5.1028,1.5313-9.1563h-50.406zm176.41,0c0.5086,4.97,0.1533,9.2031-1.1563,11.219-0.8191,1.2609-2.2964,4.7563-3.2813,7.7813-0.9847,3.025-2.6141,7.1739-3.625,9.1875-3.2395,6.4534-3.9363,11.604-2.3437,17.719,0.7904,3.0344,1.4375,7.1975,1.4375,9.2187,0,2.7523,0.5862,4.0359,2.3438,5.1875,1.2906,0.8457,2.9079,2.9068,3.5937,4.5625,1.6494,3.9819,2.9488,3.3363,9.1563-4.5625,2.8087-3.574,7.2514-7.8378,9.875-9.4688,2.6236-1.6309,5.3461-4.0678,6.0624-5.4062,1.26-2.3544,1.665-2.4375,12.438-2.4375h11.156l2.2188,2.3125v-45.312h-47.875zm-440.69,116.44,0,50.094c0.7301-0.3355,1.3931-0.6604,1.9063-1,3.2912-2.1781,4.3963-2.3875,10.219-1.8438,7.0415,0.6575,11.594-1.0577,11.594-4.3438,0-0.8881-2.8125-4.2249-6.25-7.4374-4.3205-4.0376-5.688-5.8601-4.4375-5.875,1.0252-0.012,1.5303-0.4885,1.1563-1.0938-0.3632-0.5873-1.3016-0.8232-2.0626-0.5312-1.8997,0.7289-3.3347-2.3331-2.6874-5.7188,0.3956-2.0694-0.2573-3.8681-2.4688-6.9688-4.193-5.8785-6.25-10.193-6.25-13.031,0-0.9556-0.2366-1.7289-0.7188-2.25zm134.91,8.125c-0.6228,0.032-1.2598,0.1222-1.875,0.25-2.8259,0.5871-4.4624,1.7864-6.5,4.75-1.4973,2.1778-2.9854,5.1333-3.3125,6.5625-0.327,1.4292-2.1316,4.0963-4.0312,5.9375-1.8996,1.8411-3.4688,3.7141-3.4688,4.1562,0,0.4422,1.5332,0.7813,3.4062,0.7813,2.417,0,4.6044-0.9921,7.5313-3.4375,4.0125-3.3524,4.2263-3.392,7.9063-2.0938,3.0916,1.0913,4.3281,1.0759,6.8124,0.031,4.2994-1.8078,4.6184-3.2014,2.75-12.312-0.58-2.8289-4.8593-4.8492-9.2187-4.625zm-134.91,54.031,0,2.125c1.5842-0.3868,3.5594-0.6443,5.3126-0.6562,9.6938-0.067,14.83,5.9333,16.969,19.938,1.2716,8.3281,5.2485,13.224,12.594,15.5,5.2117,1.6147,6.8112,1.2913,13.344-2.75,11.045-6.8327,11.344-6.9172,20.344-6.4063,7.3915,0.4197,8.0853,0.2934,6-0.9062-6.5852-3.7882-6.6405-3.7895-12.406-2.4062-4.3654,1.0471-6.2632,1.078-8.8125,0.1562-4.6156-1.669-5.2711-1.5406-8.8125,1.8438-3.7852,3.6172-4.921,2.6599-4.625-3.9063,0.2412-5.3483-2.8608-8.6404-7.3125-7.75-3.1589,0.6317-8.9805-3.1512-15.438-10.031-3.7489-3.9945-4.4981-4.3418-9.5-4.5312-2.9596-0.1121-5.4225-0.168-7.6563-0.2188zm5.2813,6.4063c-2.308,0-2.5625,0.3792-2.5625,4v4h-2.7188v4.5625c0.1944,0.2803,0.3682,0.5796,0.5313,0.9375,0.6264,1.375,1.9033,2.5,2.8437,2.5,1.457,0,1.3958,0.3254-0.4687,2.0625-1.2037,1.1215-2.1875,2.9835-2.1875,4.1562,0,0.7845-0.2951,1.7845-0.7188,2.625v8.1876l6.7813,0.1874c6.6998,0.1867,10.404,0.7086,10.656,1.4688,0.2125,0.6408-0.5261,1.4538-1.6563,1.8125-1.5219,0.483-2.0625,1.4828-2.0625,3.9063,0,2.9349-0.4197,3.4331-4.0312,4.625-4.8533,1.6017-4.651,2.9666,0.7187,4.9687,5.1203,1.909,6.947,3.4875,7.7187,6.5625,0.601,2.394,0.8885,2.4375,10.063,2.4375,5.291,0,9.6792-0.4304,10.031-1,0.3448-0.5579,2.2976-1.8625,4.3438-2.9063,2.7108-1.3829,4.3806-3.2757,6.125-7,2.5984-5.5475,4.3629-6.1059,4.8124-1.5,0.5174,5.3017,2.237,7.4063,5.9688,7.4063,5.4377,0,7.25,1.5091,7.25,5.9687v3.9063l3.1562-1.5937c3.6748-1.8333,6.1677-0.8239,6.6876,2.6874,0.3775,2.5505-1.4691,7.7112-3.6563,10.281-1.1983,1.4081-1.2176,2.0087-0.1875,3.25,1.1145,1.3428,1.5491,1.2375,3.5938-0.9687,1.278-1.3791,2.7674-2.5313,3.3437-2.5313,0.5762,0,1.0625-1.575,1.0625-3.5,0-2.7573,0.3958-3.5,1.875-3.5,1.0326,0,2.3917,0.6109,3,1.3437,1.4208,1.7121,7.715,14.462,8.5938,17.406,0.5156,1.7273,1.4004,2.264,3.8437,2.25,2.9839-0.017,3.4216-0.5044,6.9375-7.875,2.0625-4.3238,3.75-8.3261,3.75-8.875s0.675-1.5653,1.5-2.25c1.1401-0.9462,1.5-3.4886,1.5-10.688,0-8.6302,0.1776-9.5234,2-10,3.7406-0.9782,1.5223-3.8394-3.8125-4.9062-1.7227-0.3446-3.6516-1.2414-4.2813-2-0.6297-0.7589-2.4825-1.4063-4.0937-1.4063-6.5632,0-14.114-7.0735-10.938-10.25,2.1358-2.1358,1.0949-2.5344-8.125-3.125-5.0875-0.3259-11.95-0.8466-15.25-1.1563-5.6332-0.5285-6.3668-0.3497-12,3.125-9.9711,6.1508-11.818,6.8893-16.594,6.75-10.83-0.3155-19.7-8.94-21.437-20.844-1.5503-10.623-5.2827-15.5-11.906-15.5zm89.031,19.406c-1.0355,0.033-1.9767,0.2133-2.75,0.5312-1.2946,0.5322-5.0438,1.3032-8.3438,1.7188-5.8704,0.739-5.7517,0.7728,5.5,1.5,6.325,0.4086,13.525,1.4568,16,2.3437,7.0997,2.5443,15.832,3.0254,20.375,1.125,4.9438-2.0674,9.996-2.0413,16.75,0.063,4.5407,1.4145,6.8731,3.1811,15.125,11.5,8.6394,8.7096,10.148,9.8125,13.25,9.8125h3.5v4.9375c0,2.7998-0.5053,5.0642-1.1562,5.2812-0.7547,0.2515,0.1541,3.7754,2.625,10.344,2.059,5.4737,5.9693,16.462,8.7187,24.438,2.7494,7.975,6.2854,16.75,7.8437,19.5,1.5584,2.75,7.29,9.3875,12.75,14.75l9.9376,9.75,4.9062-0.1563c3.5491-0.1161,4.0112-0.2723,1.6875-0.5624-2.0658-0.2581-3.4464-1.0606-3.8437-2.3126-0.4464-1.4065-1.5026-1.9687-3.9063-1.9687-2.7407,0-3.4185-0.4077-3.8125-2.4687-0.554-2.8981,1.6544-5.4791,2.5938-3.0313,0.3733,0.9728,1.8823,1.5,4.1562,1.5h3.5625l-3.5313-3.0937c-2.4848-2.1818-4.6833-3.1735-7.4062-3.3126-2.926-0.1494-5.1111-1.2337-8.9375-4.4374l-5.0625-4.2188,0.3438-10.594c0.3457-10.23,0.4926-10.748,3.9374-15.75,3.2429-4.7085,3.4994-5.6089,2.9688-10.125-0.5157-4.3895-0.2744-5.2703,2.0312-7.75,1.4329-1.5408,2.5938-3.2164,2.5938-3.7187,0-1.2581-3.4352-3-5.9375-3-1.1361,0-2.1132-0.1125-2.1563-0.25s-0.2818-3.5978-0.5312-7.6875-0.8865-7.9609-1.4375-8.625c-1.5226-1.8345-13.428-3.7497-18.844-3.0312-4.2992,0.5702-5.0636,0.3739-7.4376-2-1.4578-1.4579-2.6562-3.0074-2.6562-3.4376,0-1.7197-6.9477-4.9897-10.094-4.75-1.8729,0.1427-3.4247-0.274-3.6562-0.9687-1.1301-3.3903-4.3147-5.3865-11.75-7.375-12.454-3.3307-14.828-3.4309-18.5-0.7187-4.1998,3.1024-10.865,2.9515-17.562-0.4063-4.5657-2.289-8.7375-3.4432-11.844-3.3437zm-22.5,8.7187c0.3474-0.014,0.7327,0.074,1.0937,0.2187,0.7977,0.3193,0.5712,0.5458-0.5937,0.5938-1.0542,0.043-1.6449-0.1989-1.3126-0.5312,0.1662-0.1663,0.4651-0.267,0.8126-0.2813zm-4.5938,0.9063c0.55,0,0.325,0.4355-0.5,0.9687-0.825,0.5331-1.95,0.9687-2.5,0.9687s-0.325-0.4356,0.5-0.9687c0.825-0.5332,1.95-0.9687,2.5-0.9687zm32.062,0.4687c-0.7334,0.1098-0.8173,0.9327,0.0937,1.8437,0.9557,0.9557,2.3438,0.8297,2.3438-0.2187,0-0.4912-0.675-1.1521-1.5-1.4687-0.3811-0.1463-0.693-0.1929-0.9375-0.1563zm33.625,0.6563c-0.8528,0.018-1.696,0.093-2.5313,0.25-4.4319,0.8314-4.714,2.7798-0.7812,5.6874l2.9062,2.125-2.1562,3.3438c-1.6752,2.6314-2.8158,3.3733-5.3125,3.4062-2.3212,0.031-3.3634,0.6114-3.8437,2.125-0.3624,1.1416-0.5002,2.1521-0.3126,2.25,0.1877,0.098,1.7974,1.2018,3.5626,2.4376,2.518,1.7624,4.585,2.2187,9.625,2.2187,5.5828,0,6.4828,0.2618,6.9374,2,0.9734,3.7224,6.7288,2.146,6.7188-1.8437-0.008-3.7769-1.9379-10.156-3.0625-10.156-1.6832,0-1-1.831,0.8125-2.1875,2.1415-0.4213,9.239,3.2701,9.25,4.8125,0.005,0.6133-0.9084,2.2913-2.0312,3.7187l-2.0626,2.5938,3.3126,0.8438c3.2635,0.8539,3.2784,0.8496,3.9374-3.1876,0.6517-3.9922,0.5346-4.1959-6-10.687-6.6327-6.5891-12.999-9.8753-18.969-9.75zm-71.219,1.4374c0.3318,0.046,0.4581,1.0504,0.25,2.4688-0.2379,1.6209-0.6312,2.9375-0.8438,2.9375-0.762,0-0.3643-4.8795,0.4375-5.375,0.0563-0.035,0.1088-0.038,0.1563-0.031zm17.719,6.5313c1.205-0.055,2.4726,0.325,2.8125,0.875,0.34,0.55,0.4825,0.9612,0.3125,0.9063-0.1699-0.055-1.4375-0.466-2.8125-0.9063-2.3273-0.7453-2.3521-0.782-0.3125-0.875zm-9.5937,2c0.3474-0.014,0.7327,0.074,1.0937,0.2187,0.7977,0.3193,0.5712,0.5458-0.5937,0.5938-1.0542,0.043-1.6449-0.1989-1.3126-0.5312,0.1662-0.1663,0.4651-0.267,0.8126-0.2813zm13.344,0.875c0.275,0,1.2093,1.35,2.0625,3,0.8533,1.65,1.3375,3,1.0625,3s-1.2092-1.35-2.0625-3c-0.8532-1.65-1.3375-3-1.0625-3zm81.75,9c-0.4545,0-0.6485,1.35-0.4063,3s0.6312,3,0.8438,3,0.375-1.35,0.375-3-0.3578-3-0.8125-3zm-3.7187,8.125c-1.2812,0.06-1.4688,0.6057-1.4688,2.3125,0,2.251,0.4059,2.5625,3.4062,2.5625,4.8001,0,4.9755,2.1451,0.3438,4.2187-3.6808,1.6479-4.3452,3.7813-1.1875,3.7813,2.3532,0,1.8821,6.6917-0.5625,8-1.1,0.5887-2,1.7735-2,2.625s-0.3375,1.3686-0.75,1.1563c-0.4125-0.2124-2.3792-1.1183-4.375-2.0313s-3.8944-2.342-4.2188-3.1875c-0.8236-2.1465-2.4017-1.9396-3.1562,0.4375-0.3487,1.0987-1.7022,2.2679-3,2.5937-2.584,0.6486-5.2237,3.2012-6.9375,6.6876-0.6065,1.2337-2.6083,3.0048-4.4687,3.9374-3.2292,1.6186-3.5644,1.5838-7.2813-0.3124-2.1414-1.0924-4.4133-3.0813-5.0313-4.4376-1.0574-2.3205-1.2096-2.3762-2.9374-0.8124-1.0516,0.9515-1.8438,3.0466-1.8438,4.875,0,2.7708,0.5361,3.4269,4.0938,5.0312,2.2775,1.027,4.4822,2.8767,4.9687,4.1562,0.6783,1.7841,1.6664,2.2813,4.3125,2.2813,2.8102,0,3.5152,0.4436,4.0312,2.5,0.5862,2.3353,1.0546,2.521,6.875,2.5,3.943-0.014,7.7605-0.7363,10.406-1.9375,4.1436-1.8813,4.2016-1.8775,5.5313,0.125,1.1911,1.7941,1.9773,1.9479,7.0624,1.3125,3.1501-0.3936,5.7188-0.9947,5.7188-1.3437-0.0131-2.2218-4.3355-7.1645-6.7188-7.6876-4.7274-1.0374-5.4248-1.396-4.7812-2.4374,0.3424-0.5539,4.1696-1.0313,8.5-1.0313,7.0627,0,7.9468-0.1899,8.5312-2.0313,0.5499-1.7325,0.8707-1.8429,2.1876-0.75,1.9411,1.611,1.8861,1.3884-5.1876-18.219-5.1405-14.249-5.275-14.505-8.375-14.812-0.7001-0.07-1.2604-0.083-1.6874-0.063zm-69.594,9.3437c0.1573,0.023,0.34,0.071,0.5625,0.1563,0.8535,0.3276,1.5625,0.7838,1.5625,1,0,0.8099-1.9128,0.3565-2.5-0.5937-0.2628-0.4251-0.0969-0.6329,0.375-0.5626zm3.2188,1.0313,1.9374,2.375c1.078,1.2984,1.9688,2.9859,1.9688,3.75,0,2.0569-0.3331,1.6926-2.2188-2.4063l-1.6874-3.7187zm336.91,18.375-2.625,2.0625c-1.448,1.139-3.4138,2.0625-4.3438,2.0625-0.9298,0-4.9271,1.1411-8.9062,2.5313-6.6037,2.3072-8.1305,2.4787-17.469,1.875-8.5084-0.5501-10.782-0.3896-13.469,1-3.0705,1.5877-3.4675,1.5921-7.8437-0.3438-5.3647-2.373-11.577-2.6784-13.281-0.625-0.6553,0.7896-2.6255,1.7569-4.375,2.125-1.7495,0.368-5.7611,1.5202-8.9063,2.5625-3.1451,1.0423-7.0344,1.875-8.6562,1.875-1.6217,0-5.0588,0.9-7.625,2-8.9853,3.8515-13.5,2.2647-13.5-4.7813,0-6.5005-6.3178-10.378-15.625-9.5624-11.78,1.0324-19.23,3.4421-26.125,8.4687-10.428,7.6022-16.046,7.5123-23.406-0.4375-4.2774-4.6199-7.2872-4.5637-10.094,0.1875-1.7051,2.8864-1.7369,5.4129-0.1562,15.875,0.6896,4.5645,3.3061,5.6781,8.4374,3.625,3.5717-1.4291,4.6591-1.4667,8.1563-0.3125,5.738,1.8937,10.161,6.2717,9.3125,9.1875-1.1045,3.7942-4.2768,5.75-9.25,5.75-4.4113,0-4.4923,0.081-2.8125,1.9375,1.6433,1.8158,1.6399,1.9269-0.0937,2.375-1.004,0.2595,0.4405,0.5298,3.2187,0.5938,4.2426,0.097,6.6323-0.7036,14.969-5,7.4325-3.8306,11.364-5.2643,15.688-5.6563,3.1752-0.2879,5.7812-0.9014,5.7812-1.375s4.3173-0.875,9.5938-0.875c8.7525,0,9.6478-0.1754,10.125-2,0.4544-1.7374,1.3737-2,6.9374-2,5.8615,0,6.4889-0.2121,7.5313-2.5,1.0084-2.2132,1.7645-2.5,6.5-2.5,4.1118,0,5.7462-0.4627,7.0625-2,0.9583-1.1192,2.9276-2,4.5-2,4.3198,0,9.3171-2.4887,11.844-5.9063,2.8171-3.8103,6.9544-4.2243,8.4374-0.8437,0.8484,1.9334,1.8566,2.3069,7.2188,2.5625,4.9794,0.2374,6.4473,0.692,7.2812,2.25,0.8547,1.5971,2.1256,1.9375,6.9376,1.9375,3.2355,0,6.5987,0.2911,7.4687,0.625,1.7508,0.6718,2.153,2.375,0.5625,2.375-0.556,0-3.0913,0.9965-5.625,2.1875-4.2285,1.9876-4.6757,2.0287-5.5312,0.5-0.544-0.9719-2.1702-1.6875-3.9063-1.6875-2.2532,0-3.2176-0.6066-3.9375-2.5-0.7248-1.9062-1.6624-2.5-3.9688-2.5-1.6635,0-3.0312,0.1838-3.0312,0.4063,0,0.2224,2.4511,1.7832,5.4375,3.4687,6.2329,3.5176,12.128,8.4621,13.781,11.531,0.6259,1.1621,1.7308,6.5937,2.4687,12.094,2.0124,15,3.1357,22.165,4.8125,31,0.835,4.4,1.9715,11.997,2.5312,16.875,1.3682,11.92,3.5671,16.569,15.656,32.906,5.665,7.6556,11.086,15.212,12.031,16.812,1.416,2.3974,2.3816,2.9063,5.5,2.9063h3.7812v4.9375c0,2.7042-0.4268,5.0667-0.9688,5.25-0.5896,0.1995-0.2516,2.813,0.875,6.5312,2.7507,9.0771,3.4489,17.047,2.0626,23.875-3.3359,16.43-2.8808,21.832,2.25,26.625,3.0086,2.8106,6.6875,4.1124,20.781,7.3126,7.0949,1.611,12.666,4.0333,16.969,7.4687h5.875v-33c-0.045-0.029-0.08-0.064-0.125-0.094-5.3455-3.4889-9.8918-7.6069-14.594-13.219-6.732-8.0347-15.418-16.537-20.375-19.906-1.3899-0.9446-3.4543-3.6447-4.5625-6-5.0384-10.708-7.1875-15.5-7.1875-16.031,0-0.3161-2.1426-4.3254-4.7812-8.9063-2.6387-4.5808-6.2981-12.047-8.125-16.594-2.441-6.0752-4.1679-8.8349-6.4688-10.406-5.914-4.0392-6.8418-6.851-4.4375-13.5,1.1035-3.0515,0.9538-3.6612-1.9063-7.7187-3.8831-5.509-5.2812-13.741-5.2812-30.938v-12.438l3.9688-5.875c4.188-6.1887,9.8638-12.318,14.937-16.156,4.9019-3.7085,6.0855-11.642,2.9688-20.031l-0.875-2.3125zm-259.44,23.125c-2.9461,0-3.5992,0.5351-5.4063,4.1875-2.1719,4.3901-2.0423,5.8125,0.5313,5.8125,1.2763,0,1.3288,0.2754,0.3125,1.5-0.6847,0.825-2.5552,1.5-4.1562,1.5s-5.1304,1.125-7.8438,2.5c-3.6662,1.8578-6.5094,2.5-11.062,2.5-5.2858,0-6.2051,0.2745-6.6563,2-0.3865,1.4781-1.3681,2-3.75,2-4.0133,0-6.2513,3.7306-4.4062,7.3125,1.6513,3.2058,5.0393,6.6875,6.5,6.6875,0.698,0,1.9378,1.0145,2.7812,2.2187,0.8435,1.2045,1.6625,1.9919,1.8126,1.75,0.1502-0.2418,0.7312-1.2805,1.2812-2.2812,0.8822-1.6051,5.4642-4.3408,13.531-8.125,2.2436-1.0525,2.8338-0.8893,5.25,1.5625,2.3255,2.3595,2.7188,3.6009,2.7188,8.5,0,4.0588-0.5115,6.2881-1.75,7.6563-1.2982,1.4339-1.8322,4.1155-2.0938,10.344l-0.375,8.375h2.625c1.7959,0,2.5961-0.5425,2.625-1.75,0.0507-2.0945,6.0474-6.1177,10.375-6.9687,1.7034-0.3351,3.6876-1.428,4.4063-2.4376,1.8205-2.5569,6.7856-2.4558,7.4687,0.1563,0.6316,2.415,2.2666,2.612,3.125,0.375,0.3616-0.9424-0.0406-2.1026-0.9687-2.7813-1.4509-1.0608-1.3911-1.5327,0.5625-4.8437,1.1867-2.0113,3.0025-3.9135,4.0625-4.25,1.5141-0.4805,1.9375-1.5509,1.9375-4.9687,0-7.0274-0.4602-7.5313-7.0625-7.5313-3.2153,0-6.9742-0.5181-8.375-1.1563-2.5301-1.1529-2.5625-1.2395-2.5625-13.562,0-6.823-0.4619-13.28-1.0312-14.344-0.7082-1.3232-2.1075-1.9375-4.4063-1.9375zm238.34,0c0.2751,0-1.0404,1.575-2.9062,3.5s-3.6312,3.5-3.9062,3.5c-0.2751,0,1.0404-1.575,2.9062-3.5s3.6312-3.5,3.9062-3.5zm-44.156,4.2187c-3.1227-0.011-5.8009,1.5082-9.25,4.6876-2.9816,2.7483-6.1516,4.5135-10.156,5.625-3.2048,0.8894-8.9938,2.8663-12.844,4.375-6.0209,2.3594-7.0403,3.0925-7.3125,5.4062-0.2827,2.4039,0.01,2.6875,2.75,2.6875,1.9544,0,3.0625-0.4872,3.0625-1.375,0-1.7073,2.177-2.625,6.2812-2.625,1.8127,0,4.0513-0.8834,5.4063-2.1563,1.9028-1.7876,3.8373-2.2606,10.781-2.625,7.1752-0.3765,8.5578-0.7537,9.0624-2.3437,0.8814-2.777,7.1047-2.602,8,0.2187,0.6034,1.9012,0.8122,1.9426,2.4063,0.5,2.7864-2.5217,6.0625-2.0552,6.0625,0.875,0,2.9281-2.5624,4.5313-7.2188,4.5313-2.1059,0-3.9526,0.7402-5.0312,2-2.1558,2.5178-5.2735,2.5359-10.125,0.063-4.9216-2.5092-8.0138-1.5208-8.4375,2.6875-0.2425,2.4089-0.8726,3.1496-3.0937,3.5937-1.5356,0.3071-4.4204,1.607-6.4063,2.875-2.8447,1.8165-3.6233,2.941-3.6563,5.375-0.0584,4.268-3.023,5.3985-14.312,5.4376-10.55,0.036-12.719,1.0475-12.719,5.9062,0,4.8007-1.6068,7.0625-5,7.0625-1.9062,0-3.3036,0.6987-4,2-0.704,1.3153-2.0964,2-4.0625,2-2.2687,0-3.2162,0.6028-3.9375,2.5-0.7239,1.904-1.6716,2.5-3.9688,2.5-1.9333,0-3.4495,0.7181-4.25,2-1.0854,1.738-2.3449,2-9.5312,2-7.0317,0-8.5125,0.2993-9.9688,2-1.373,1.6035-2.9636,2-7.9687,2-5.3046,0-6.3953,0.3216-7.3437,2.0937-0.6139,1.1472-0.9633,2.1931-0.7813,2.3126,0.1821,0.1193,1.489,0.9395,2.9375,1.8437,1.4485,0.9043,3.0921,2.9756,3.6562,4.5937,0.979,2.8083,0.8723,3.015-2.9062,4.7188-3.3062,1.4909-3.9066,2.224-3.6562,4.375,0.2465,2.1192,0.8899,2.6415,3.6562,2.9062,2.3142,0.2216,3.4967,0.923,3.8438,2.25,0.3713,1.4201,1.4094,1.9063,3.875,1.9063,2.2565,0,3.6641,0.6359,4.3437,1.9063,1.5622,2.9189,5.9101,3.5713,8.4375,1.2812,2.9995-2.7178,7.0981-3.4961,8.625-1.6562,1.0047,1.2105,0.9671,1.4687-0.2812,1.4687-1.5694,0-6.3056,7.4885-7.3438,11.625-0.3164,1.2607-1.1977,2.8288-1.9688,3.4687-1.9292,1.6011-1.7447,2.674,0.5626,3.4063,1.9331,0.6147,1.9331,0.642,0,3.8125-1.0723,1.7586-1.9688,3.525-1.9688,3.9375-0.006,1.2967,2.4713,0.8243,5.0312-0.9687,3.1214-2.1863,6.9628-1.7346,9.1876,1.0624,2.461,3.0944,2.1885,4.4805-0.9688,4.8438-2.1271,0.2447-3.1917,1.2752-4.7188,4.5625-1.628,3.5052-2.4605,4.25-4.75,4.25-1.7815,0-2.7812-0.5208-2.7812-1.4687,0-0.8123-1.125-2.1928-2.5-3.0938-1.6518-1.0823-2.5-2.5789-2.5-4.375,0-3.3532-0.5775-3.9624-3.0625-3.3125-1.7954,0.4695-1.9375,1.4649-1.9375,13.312,0,11.938,0.137,12.846,2,13.438,1.5962,0.5066,2,1.5274,2,5,0,5.9034,0.7651,7.5,3.625,7.5,1.4352,0,3.8558,1.4183,5.9062,3.4687l3.4688,3.4688v14.625c0,13.186,0.2034,14.784,1.9375,16.281,0.3193,0.2757,0.625,0.679,0.9063,1.1563h20.406c0.8119-4.1242,3.6931-7.8049,7-8.5313,1.7452-0.3832,4.3773-1.6033,5.8438-2.6874,2.8277-2.0905,5.9649-2.1076,6.6562-0.031,0.2289,0.6875-0.2854,1.25-1.1562,1.25-1.9338,0-2.0469,2.0113-0.25,4.4687,1.1385,1.557,2.1567,1.7223,6.9374,1.125l5.625-0.7187-1.9687-3.1875c-2.6472-4.3415-2.4763-5.0428,1.5625-6.9688,3.1716-1.5124,3.5-1.5382,3.5-0.094,0,0.8768,1.4136,3.8106,3.1562,6.5l3.1876,4.875,7.0624,0.031c5.3848,0,7.8127,0.4579,10.094,1.9687,1.65,1.0927,4.4048,2,6.125,2h106.81c-3.9085-1.5792-8.7481-2.8395-14.875-3.9375-11.664-2.0902-19.364-7.8841-21.625-16.281-1.1893-4.4165-0.5918-13.902,1.1563-18.5,1.5179-3.9925,1.2493-15.191-0.5313-22.063-2.6589-10.261-3.3142-11.219-7.7187-11.219h-3.8438v-4.9063c0-2.7346,0.5032-5.0739,1.125-5.2812,0.6149-0.205-3.735-6.8529-9.6562-14.781-13.769-18.436-16.048-23.298-17.906-38.063-0.7925-6.2961-2.5662-17.994-3.9375-25.969-1.3712-7.975-2.7728-17.588-3.125-21.375-0.3523-3.787-1.0339-7.8993-1.5-9.125-1.1675-3.071-7.0264-7.6903-14.594-11.531-3.5391-1.7964-6.2274-2.7413-8.6562-2.75zm-14.312,1.9063c-0.5415-0.01-1.8015,0.4398-3.4375,1.375-1.6024,0.916-1.9367,1.4457-0.9375,1.4687,0.8574,0.02,2.4324-0.63,3.5-1.4374,1.2429-0.9403,1.4165-1.3995,0.875-1.4063zm-160.66,5.8437c-0.3866,0.012-0.4774,0.571-0.5937,1.5313-0.4941,4.0815,0.2209,5.0263,5.9375,7.875,2.9027,1.4465,5.4225,2.625,5.625,2.625,0.2026,0-2.2395-2.9657-5.4375-6.5937-3.4714-3.9382-4.8869-5.4576-5.5313-5.4376zm41.344,2.125c-2.2742,0.053-4.4194,0.5232-6.1875,1.4376-1.6226,0.8391-2.9375,1.739-2.9375,2,0,0.2608,5.0625,0.4807,11.25,0.4687l11.25-0.031-4.3438-1.9687c-2.9322-1.3305-6.1072-1.9746-9.0312-1.9063zm85.062,4.9063c-0.4545,0-0.6485,1.35-0.4063,3s0.6312,3,0.8438,3,0.375-1.35,0.375-3-0.3578-3-0.8125-3zm-65.562,1.5937c-0.3704,0.04-0.625,0.1796-0.625,0.4376,0,0.4602,1.0125,1.0429,2.25,1.2812,1.2375,0.2384,2.3926,0.4875,2.5625,0.5625,0.17,0.075,0.0489-0.2664-0.25-0.75-0.5615-0.9086-2.8264-1.6519-3.9375-1.5313zm44.656,0.5c-5.2952,0.01-10.136,1.5751-17.031,5.125-4.8187,2.4811-9.9446,4.8082-11.406,5.1563-2.0494,0.4881-2.5292,1.0793-2.125,2.625,0.4223,1.6152,1.3635,2,4.8437,2,6.2298,0,9.2167-1.4671,11.125-5.4687l1.6875-3.5313h13.312c12.323,0,13.312-0.1193,13.312-1.8437,0-1.4682-1.265-2.127-5.9688-3.125-2.8291-0.6005-5.343-0.9411-7.75-0.9376zm-204.22,5.5626c-2.1616,0.043-4.2918,0.9119-5.125,2.4687-0.6627,1.2383-2.104,1.8962-4.2187,1.9063-6.2095,0.026-7.7188,0.9124-7.7188,4.5624,0,2.2517,0.6128,3.6683,1.875,4.3438,1.774,0.9495,1.6793,1.4338-1.9375,8.7188-3.7707,7.5952-4.065,9.3437-1.5313,9.3437,0.7074,0,2.0983,0.9,3.0938,2s3.0796,2,4.625,2c1.7864,0,3.1945,0.7285,3.875,2,0.751,1.4031,2.0938,2,4.5,2s3.7491-0.5969,4.5-2c0.6923-1.2936,2.0948-2,3.9688-2,2.0192,0,3.0888,0.6062,3.5312,2,0.4644,1.4632,1.5123,2,3.9062,2,2.5199,0,3.5291,0.5747,4.4063,2.5,1.5223,3.3411,4.326,3.1793,7-0.4375,3.2152-4.3487,2.9136-7.0625-0.7813-7.0625-3.393,0-5.0312-2.226-5.0312-6.875,0-1.6668-0.9045-4.0556-2-5.3125-5.7925-6.6456-7.6451-8.5123-9-8.9688-1.2923-0.4353-1.2506-1.0156,0.2812-4.25,1.7693-3.7355,1.5794-5.5937-0.5312-5.5937-0.6196,0-2.0521-0.8354-3.1875-1.875-1.1203-1.0258-2.8188-1.5019-4.5-1.4687zm115.31,1.5937c-0.1614,0.04-0.0554,0.4105,0.2188,1.125,0.3464,0.9028,1.3296,1.625,2.1874,1.625,0.8579,0,1.3542-0.1256,1.125-0.2813-0.2292-0.1556-1.2123-0.8778-2.1874-1.625-0.7718-0.5913-1.1824-0.8836-1.3438-0.8437zm-8.9688,51c-1.3436,0.295-10.491,4.3563-12.312,5.5-0.2259,0.1417,0.3366,1.0846,1.25,2.0937,3.4992,3.8667,2.2303,4.9275-6.25,5.3126-5.9062,0.2681-8.4161,0.8417-9.9376,2.2187-2.3236,2.1028-7.5913,1.5118-8.5312-0.9375-0.8636-2.2505-2.3475-1.6926-3.0625,1.1562-0.4403,1.7544,0.0251,3.7216,1.4063,6.0626,2.2709,3.8492,2.6846,9.3153,0.8437,11.156-1.9444,1.9443-6.4091,1.4426-7.9687-0.9062l-1.4063-2.125-1.1875,2.5937c-1.0816,2.3737-0.9659,2.6705,1.2188,3.2187,1.3197,0.3313,3.1743,1.4496,4.125,2.5,1.3516,1.4937,3.0909,1.9063,8,1.9063,5.3994,0,6.3602,0.2798,6.9062,2,0.7709,2.429,5.5,2.832,5.5,0.4687,0-0.8422-0.675-1.7771-1.5-2.0937s-1.5-1.6249-1.5-2.9063c0-1.8973,0.603-2.401,3.25-2.6562,2.4832-0.2394,3.3199-0.8243,3.5625-2.5312,0.2445-1.7212-0.5015-2.627-3.25-3.9376-2.5726-1.2267-3.5625-2.3308-3.5625-4,0-1.9702,0.516-2.3437,3.4375-2.3437,2.5544,0,3.5901-0.5117,4.0625-2,0.547-1.7234,1.528-2,7-2,6.3457,0,6.3252,0,8.1562-3.75,1.0078-2.0625,3.0467-4.327,4.5313-5.0313l2.7187-1.25-2.5-3.7187c-1.3786-2.0315-2.6658-3.822-2.8437-4-0.0157-0.016-0.0667-0.02-0.1563,0zm232.78,50.75c-0.4545,0-0.6485,1.35-0.4063,3s0.6312,3,0.8438,3,0.375-1.35,0.375-3-0.3578-3-0.8125-3zm-325.97,32c-3.0521,0-5.8498,2.7384-7.6563,7.4687-1.6074,4.2087-2.0042,4.5313-5.25,4.5313-2.6699,0-3.6336-0.4791-4.0313-2-0.4211-1.6105-1.3664-2-4.8437-2-6.226,0-9.2214,1.477-11.125,5.4687-0.9212,1.932-2.4992,3.7762-3.5,4.0938-2.2059,0.7001-2.3641,2.3065-0.3125,3.0938,0.825,0.3166,1.5,1.6017,1.5,2.8437,0,3.5808,3.708,7.5,7.0625,7.5,2.3777,0,3.2613,0.7445,4.9063,3.9687,1.106,2.1683,1.7496,4.5929,1.4374,5.4063-0.4778,1.2453-1.1255,1.1399-4.2187-0.6563-2.0203-1.173-4.2814-2.9228-5-3.9062-0.7587-1.0381-2.5807-1.8125-4.3437-1.8125-2.1959,0-3.1843-0.5539-3.5626-2-0.3965-1.5163-1.364-2-4-2-2.6359,0-3.6034-0.4838-4-2-0.3816-1.4592-1.3701-1.99-3.6562-2-2.8399-0.012-3.4015-0.597-6.2188-6.25-2.5111-5.0388-3.6639-6.3493-6-6.8125-4.8555-0.9628-7.4062,2.204-7.4062,9.2188,0,6.3906-1.2753,7.8437-6.75,7.8437-3.5719,0-5.25-1.6092-5.25-5.0313,0-2.8544,1.8775-4.8715,6.2812-6.75,2.3877-1.0183,2.6376-1.4706,1.7188-3.1874-1.4479-2.7054-8-2.9145-8-0.25,0,0.9776-0.7385,2.8459-1.6562,4.1562l-1.6876,2.4062-0.8124-2.2187c-0.683-1.8463-1.1548-2.029-2.8438-1.125-2.8255,1.5122-2.8194,9.6971,0,13.281,1.1,1.3984,2,3.4097,2,4.4687,0,3.0344,0.8432,3.1923,5.0625,0.9063l3.9375-2.1563,3.875,2.2187c4.1714,2.3763,5.125,2.1759,5.125-1.1562,0-2.9145,1.8444-4.5625,5.1875-4.5625,2.76,0,2.8125,0.086,2.8125,6.0937,0,5.2526,0.276,6.1742,2,6.625,2.3852,0.6238,2.5339,1.5933,0.5,3.2813-0.3462,0.2873-0.6233,0.6394-0.8438,1h87.25c0.0518-0.3497,0.0938-0.7064,0.0938-1.0937,0-2.2443,0.5452-3.2133,2-3.5938,2.4763-0.6476,2.4763-0.883,0-4.0312-1.1-1.3985-2-3.0693-2-3.7188,0-0.6496-1.8-2.201-4-3.4375-2.2-1.2364-4-2.3989-4-2.5937,0-2.0733,1.6734-3.5313,4.0938-3.5313,2.4335,0,2.9062-0.3881,2.9062-2.5313,0-2.4902-0.1409-2.541-6.25-2.25-6.2302,0.2967-6.2535,0.3061-6.5625,3.5-0.229,2.3675,0.2279,3.5496,1.75,4.5,2.643,1.6506,2.5981,3.5702-0.125,6.4688-3.0444,3.2406-4.8125,2.9509-4.8125-0.7812,0-2.2528-0.5437-3.2129-2-3.5938-2.3969-0.6268-2.5672-3.0219-0.4375-6.0625,1.6835-2.4035,1.2029-4.25-1.125-4.25-3.0185,0-5.4375-6.0858-5.4375-13.75-0.003-6.2794-0.2418-7.25-1.7812-7.25zm55.125,13.031c-1.3584,0-6.3438,8.1473-6.3438,10.375,0,0.8431-0.9722,2.4281-2.1562,3.5312l-2.1563,2,2.6563,1.0312c2.0181,0.7673,2.6562,1.696,2.6562,3.875,0,3.2023-3.0323,5.1563-7.9062,5.1563-3.7538,0-5.8897,2.713-5.1563,6.5,0.1846,0.9529,0.5382,1.7533,1.125,2.5h101.06c-2.2101-4.6014-2.819-5-5.6562-5-2.4128,0-3.4975,0.551-3.9376,1.9375-0.5757,1.814-0.9965,1.7344-7.8124-1.4062-5.0247-2.3151-7.7785-4.2475-9.0626-6.4063-1.3778-2.3166-2.5699-3.125-4.7187-3.125-1.8493,0-3.2485-0.7125-3.9375-2-0.7306-1.3652-2.0804-2-4.2812-2-2.1695,0-3.6682-0.6492-4.5313-2.0313-1.3854-2.2184-4.2838-1.9671-7.2813,0.6563-0.9681,0.8472-3.8766,1.375-7.5624,1.375-5.4707,0-6.1314-0.213-7.1876-2.5313-0.6383-1.4009-1.1562-3.7984-1.1562-5.3124,0-3.6304-1.6888-5.1563-5.6875-5.1563-1.8017,0-4.7305-0.8708-6.5313-1.9687-1.8007-1.098-3.8022-2-4.4374-2z" stroke="#1b99fa"/>
</g>
</svg>
