<?xml version="1.0" encoding="UTF-8" standalone="no"?>
<!-- Created with Inkscape (http://www.inkscape.org/) -->
<svg id="svg2" xmlns:rdf="http://www.w3.org/1999/02/22-rdf-syntax-ns#" xmlns="http://www.w3.org/2000/svg" preserveAspectRatio="none" height="388.52" width="289.05" version="1.1" xmlns:cc="http://creativecommons.org/ns#" xmlns:dc="http://purl.org/dc/elements/1.1/">
<defs id="defs4">
<filter id="filter3967" color-interpolation-filters="sRGB">
<feGaussianBlur id="feGaussianBlur3969" stdDeviation="0.3361721"/>
</filter>
</defs>
<metadata id="metadata7">
<rdf:RDF>
<cc:Work rdf:about="">
<dc:format>image/svg+xml</dc:format>
<dc:type rdf:resource="http://purl.org/dc/dcmitype/StillImage"/>
<dc:title/>
</cc:Work>
</rdf:RDF>
</metadata>
<g id="layer1" transform="translate(-119.50569,-87.474437)">
<path id="path3932" d="m120.8,88.795,0,26.188c0.0664,0.4212,0.1441,0.6562,0.2188,0.6562,0.9508,0,1.7692-1.539,3.5-6.5,0.4371-1.253,0.8948-1.5331,1.1874-0.75,0.3121,0.8354,2.7636,1.25,7.4063,1.25,5.4483,0,7.0808,0.3696,7.5625,1.625,0.3379,0.8805,0.0593,1.9209-0.625,2.3438-0.6842,0.4229-1.1026,1.6222-0.9062,2.6562,0.4601,2.4242,5.8437,3.287,5.8437,0.9376,0-0.8617-0.7875-1.5698-1.75-1.5938-1.02-0.026-0.1101-0.8985,2.1563-2.0938,2.9861-1.5747,4.3784-1.8135,6-1.0312,1.1613,0.5603,5.6905,1.2485,10.062,1.5312,6.1836,0.3999,8.2933,0.9288,9.5,2.4063,0.8531,1.0446,3.2773,2.6845,5.4063,3.6563,2.129,0.9719,4.1071,2.6318,4.375,3.6562s1.3344,2.1072,2.375,2.4375c2.4789,0.7867,2.4359,4.1757-0.0625,4.9687-1.6586,0.5265-1.7951,0.9808-0.875,3,0.5963,1.3088,2.3589,2.9087,3.9375,3.5626,3.0331,1.2563,3.6216,2.8159,1.75,4.6874-1.6496,1.6497-0.2509,4.5174,1.875,3.8438,0.9652-0.3058,3.0497,0.1196,4.625,0.9375,3.8877,2.0184,6.3357,1.8504,8.375-0.5313,1.8075-2.1109,4.25-2.6874,4.25-1,0,0.5501,0.9,1,2,1s2,0.45,2,1c0,0.5501,0.6571,1,1.4375,1s2.9179,0.7699,4.75,1.6876c1.8321,0.9176,3.9875,1.9891,4.8125,2.375,0.8461,0.3957,1.3712,1.6621,1.1875,2.9062-0.2845,1.9273-0.0688,2.065,1.6875,1.125,2.7033-1.4467,5.8597-1.3782,6.375,0.1562,0.3273,0.9749,1.032,0.9588,3.125-0.1562,2.0619-1.0985,2.9374-1.1564,3.8437-0.25,0.6489,0.6488,2.6551,1.1562,4.4376,1.1562,1.7824,0,3.5038,0.45,3.8437,1,1.1923,1.9293,4.5479,1.0356,5.5-1.4687,0.5675-1.4928,2.0368-2.727,3.7187-3.125,1.532-0.3626,4.218-1.7285,5.9688-3.0313,3.7039-2.7561,4.894-2.943,5.6875-0.875,0.333,0.8678,1.8117,1.5,3.5313,1.5,1.6348,0,3.2538,0.45,3.5937,1,0.3399,0.5501,1.7438,1,3.0937,1,1.35,0,3.345,0.5678,4.4376,1.25,1.581,0.9873,2.3877,0.9873,3.9687,0,1.0926-0.6822,3.7683-1.25,5.9375-1.25,3.3287,0,3.9803-0.351,4.25-2.25,0.287-2.0208,0.949-2.2638,6.5625-2.5312,3.4375-0.1638,6.25-0.6959,6.25-1.1562,0-0.8882-10.226-2.611-13.312-2.25-1.0055,0.1175-2.7894-0.4864-3.9688-1.3126-2.085-1.4608-2.0637-1.5002,1.3126-1.5312,3.8477-0.035,7.5549-2.2499,6.5312-3.9062-0.8341-1.3502-4.5625-1.3999-4.5625-0.063,0,0.5966-3.8333,1-9.5,1s-9.5-0.4034-9.5-1c0-1.2912-6.2745-1.288-7.5625,0-0.5403,0.5404-2.7865,1.1539-4.9688,1.375-2.1822,0.2212-4.6437,0.6628-5.4687,0.9688-1.6764,0.6219-8.3606,1.4671-17.75,2.2812l-6.25,0.5626v-3.0938c0-2.4187-0.4321-3.0938-2-3.0938-1.1,0-2-0.4499-2-1,0-0.55-0.9-1-2-1s-2-0.4499-2-1c0-0.55-0.8241-1-1.8437-1-2.867,0-7.34-4.6457-6.9688-7.25,0.2498-1.7518,0.908-2.21,3.0625-2.0624,1.512,0.1035,2.75-0.2097,2.75-0.6876,0-0.4776,1.0125-1.0118,2.25-1.1874,1.611-0.2288,2.336-1.0935,2.5625-3.0626,0.2179-1.8937,0.9148-2.75,2.1875-2.75,2.3017,0,7-8.1055,7-12.062,0-1.5484,0.45-3.0975,1-3.4376,0.55-0.3398,1-1.7094,1-3.0624,0-2.1765,0.3171-2.3941,2.75-1.8126,1.5125,0.3617,3.4686,1.0223,4.3437,1.4688,3.7544,1.9156,10.649,3.8922,13.656,3.9062,1.7875,0.01,3.25,0.45,3.25,1,0,0.5501,0.9,1,2,1s2,0.45,2,1c0,0.5501,2.22,1,4.9375,1s5.2226,0.45,5.5625,1c0.3399,0.5501,4.6332,1,9.5313,1,7.5871,0,9.547,0.3838,13.281,2.4688,2.4108,1.3459,7.485,2.9873,11.281,3.6562,3.7963,0.6691,8.678,2.0212,10.844,3.0313,5.2917,2.4678,9.7562,2.4046,11.375-0.1875,0.7005-1.1224,0.9824-2.4724,0.6562-3-0.3261-0.5277,0.0148-0.9688,0.75-0.9688,2.2182,0,4.7813-3.8155,4.7813-7.125,0-2.5943-0.2367-2.9028-1.4375-1.9062-0.792,0.6573-1.5795,2.1774-1.75,3.375-0.2185,1.5343-1.1246,2.2458-3.0625,2.4688-1.5128,0.1739-2.75,0.9313-2.75,1.6874,0,2.6063-1.9475,2.5559-7.2187-0.1874-4.3639-2.2713-4.8882-2.8021-3.0313-3.0938,1.3814-0.2171,2.25-1.0679,2.25-2.1875,0-2.758-2.637-3.195-4.2813-0.7187-1.3104,1.9737-1.6686,2.0435-3.9687,0.8124-1.3964-0.7475-3.0609-1.0435-3.6875-0.6562-0.6267,0.3873-2.1921,0.024-3.4688-0.8125-1.3623-0.8926-2.6946-1.1491-3.2187-0.625-0.5195,0.5214-1.4796,0.5148-2.3125,0-1.1538-0.7131-1.2186-1.5556-0.3438-4.4063,1.2335-4.0189,0.6084-4.8996-4.2187-6.0624-6.0119-1.4483-11.678-1.76-12.75-0.6876-1.3052,1.3053-3.75-0.3439-3.75-2.5312,0-0.4004-0.1808-0.8198-0.4687-1.1875h-159.72zm183.06,0c0.8939,0.9939,2.0164,1.8437,2.8437,1.8437,0.7028,0,1.2813,0.45,1.2813,1,0,1.6359,3.7445,1.1311,4.4063-0.5937,0.3444-0.8976,0.3525-1.6601,0.0937-2.25h-8.625zm103.34,13.969c-0.7207,0.2278-1.2187,0.7627-1.2187,1.4063,0,0.8386-1.0437,1.9432-2.3437,2.4375-1.3,0.4942-2.6427,1.5878-2.9688,2.4375-1.0528,2.7436-7.4701,4.5937-15.875,4.5937-5.9212,0-7.8678,0.3203-7.5625,1.25,0.2258,0.6876,1.6238,1.3886,3.0937,1.5626,2.3029,0.2726,2.5168,0.5839,1.625,2.25-1.059,1.9786-3.9687,2.7166-3.9687,1,0-0.5242-1.5359-1.6749-3.4063-2.5626-1.8704-0.8876-3.6282-2.4992-3.9062-3.5624-0.6607-2.5263-2.3239-2.4499-3.7188,0.1562-1.3386,2.5015-0.6064,4.9062,1.5,4.9062,0.8423,0,1.5313,0.45,1.5313,1,0,0.5501,1.545,1,3.4375,1s3.696,0.4144,4,0.9063c0.6041,0.9774,6.2919,1.9593,13.969,2.4375,4.5369,0.2827,10.626-1.0323,12.25-2.6562,0.3015-0.3016,1.8068-0.534,3.5937-0.625v-17.938h-0.0313zm-263.25,70.063c-0.7647,0.014-1.5739,0.2343-2.5,0.6562-1.4056,0.6405-3.8458,1.1562-5.4374,1.1562-1.5917,0-3.1914,0.45-3.5313,1-0.3399,0.5501-1.8962,1-3.4687,1-5.8698,0-7.9755,2.7848-4.2813,5.6563,1.6603,1.2905,1.6543,1.435-0.125,2.8125-2.2375,1.7323-1.4451,4.7764,1.125,4.3438,1.1478-0.1934,1.8691,0.4284,2.0625,1.7812,0.2687,1.88,0.8177,2.034,5.75,1.625,5.4529-0.4519,5.4375-0.4486,5.4375,2.4375,0,2.4246,0.6584,3.168,4.0937,4.6563,3.407,1.476,3.886,2.0004,2.875,3.2187-0.6678,0.8047-2.0043,1.4687-3,1.4687-0.9956,0-2.1112,0.9361-2.4687,2.0626-0.587,1.8494-1.2485,1.9969-6.625,1.5-5.7062-0.5276-5.8948-0.468-4.875,1.4374,0.8246,1.5409,0.6184,2.8889-0.9687,6-1.9749,3.871-4.2428,5.0849-5.5313,3-0.6041-0.9774-1.2135-1.2101-1.6875-0.8437v5.5937c0.3461,0.338,0.8057,0.5496,1.4375,0.7188,1.2375,0.3313,3.9241,1.1058,5.9687,1.7188,2.8743,0.8615,4.0653,0.827,5.25-0.1563,1.6928-1.4048,2.1176-7.0313,0.5313-7.0313-2.0946,0-0.3794-3.6129,1.9687-4.1562,1.0905-0.2523,1.3532,0.6519,1.1563,3.8438-0.2027,3.2853,0.1489,4.3952,1.6875,5.2187,1.0759,0.5758,2.2665,2.2278,2.625,3.6563,0.6158,2.4535,0.9713,2.5583,6.2812,2.3124,5.0716-0.235,5.6999-0.016,6.4688,2.0626,0.6799,1.8378,1.3065,2.155,3.0938,1.5624,1.232-0.4083,4.4036-0.9582,7.0624-1.2187,4.0908-0.4007,5.0665-0.1539,6.3126,1.625,2.1617,3.0864,4.3437,2.6787,4.3437-0.8125,0-5.874-1.8908-7.4217-5.9687-4.875-1.0675,0.6667-2.2813,0.842-2.7188,0.375s-0.2212-1.0557,0.5-1.3125c1.016-0.3617,0.9323-0.8992-0.375-2.3437-1.2726-1.4062-2.1179-1.6146-3.5-0.875-1.4152,0.7575-2.0885,0.5318-2.875-0.9376-0.8226-1.5371-0.6278-1.9887,0.9688-2.4062,2.8314-0.7405,2.4472-2.3456-0.9376-3.8438-2.3172-1.0257-2.7255-1.6446-2-3,0.7275-1.3595,0.2945-1.9741-2.0937-3.0312-1.962-0.8685-2.8346-1.8277-2.4687-2.7812,0.308-0.8029-0.3207-2.1524-1.4063-3-1.0857-0.8477-2.1026-2.4626-2.2813-3.5626-0.2813-1.7318,0.2932-2.0173,4.4063-2.2812,3.9343-0.2525,4.75-0.6389,4.75-2.25,0-1.6983-0.7049-1.9688-5.6563-1.9688-7.7148,0-9.3437-1.5518-9.3437-9.0312v-5.75l4.25-2c3.6416-1.7343,3.9637-2.1382,2.25-2.7188-1.1-0.3726-2.9859-1.1594-4.2187-1.75-0.8123-0.3888-1.5478-0.577-2.3126-0.5624zm20.5,51.937c0.5099,0,0.4453,0.2844-0.4687,0.875-0.825,0.5332-2.175,0.9676-3,0.9376-0.989-0.036-0.8187-0.3709,0.5-0.9376,1.3745-0.5906,2.4589-0.875,2.9687-0.875zm176.59,19.875c-2.503,0-4.0597,2.8644-3,5.5,1.2502,3.1096,1.0715,4.5-0.5625,4.5-0.825,0-1.5-0.4071-1.5-0.9062s-2.3625-1.0877-5.25-1.3125-6.0505-0.7769-7.0313-1.2187c-1.6071-0.7242-1.6694-0.5487-0.5937,1.8124,0.7579,1.6633,2.0185,2.625,3.4063,2.625,1.2021,0,3.6107,0.745,5.375,1.625,2.9918,1.4925,3.0889,1.6616,1.4062,2.9376-2.078,1.5755-11.312,1.9337-11.312,0.4374,0-2.1206-1.8437-0.8418-2.8125,1.9376-0.8277,2.3742-0.7036,3.2127,0.7188,4.5,1.9508,1.7654,5.0937,2.105,5.0937,0.5624,0-2.2231,2.8386-0.8038,4,2,0.9738,2.3509,1.8693,3,4.125,3,1.5833,0,2.875-0.3892,2.875-0.875s0.9-1.1185,2-1.4062,2-1.0235,2-1.625-0.9-1.0938-2-1.0938-2-0.484-2-1.0937c0-0.6643-0.9345-0.885-2.3437-0.5313-1.2935,0.3246-2.6894,0.2776-3.0938-0.125-0.4044-0.4023,1.6898-1.2435,4.625-1.875,4.4303-0.9529,4.9331-1.3007,3.0312-1.9062-2.8367-0.9032-2.3939-2.5346,1.125-4.25,1.472-0.7175,2.6563-2.0837,2.6563-3.0312,0-0.9476,0.6204-2.634,1.375-3.7188,1.7974-2.5843,0.4051-6.4688-2.3125-6.4688zm-59.75,54c-3.8055,0-3.9595,0.2963-1.5625,2.9376,4.0008,4.4083,4.272,5.1328,4.25,12.281-0.0174,5.6947-0.4728,7.829-2,9.7812-1.0755,1.375-1.9567,3.2877-1.9687,4.25-0.0123,0.9626,0.6437,1.75,1.4687,1.75s1.5-0.4549,1.5-1.0312c0-1.8899,5.2499-5.9688,7.6875-5.9688,1.312,0,2.6516-0.6738,2.9688-1.5,0.9643-2.5131-0.626-6.6632-2.75-7.2187-2.9303-0.7662-1.887-3.6527,1.5312-4.25,2.6638-0.4655,5.0163-3.0313,2.7812-3.0313-0.5317,0-1.2123-0.9-1.5-2-0.3171-1.2123-1.3617-2-2.6562-2-1.1745,0-3.1006-0.9-4.2812-2-1.2508-1.1651-3.5396-2-5.4688-2zm-143.69,9c-3.0461,0-3.5522,6.4334-0.625,8,2.0365,1.0901,2.7858,4,1.0313,4-1.8196,0-3.263,4.0094-2,5.5313,0.6355,0.7657,0.8548,1.8634,0.5,2.4375-0.8243,1.3339-5.5313,1.3585-5.5313,0.031,0-0.55-2.475-1-5.5-1h-4.6875v91.531l24.375,50.156,3.0938,6.375h134.53c-0.2051-1.0281-0.8072-2.0573-1.8125-3.0626-1.8929-1.8927-2.6458-4-1.4375-4,0.3044,0,2.1044,1.2376,4,2.75,2.0405,1.6283,2.9117,2.6874,3.25,4.3126h55.562c-0.8622-1.6875-2.0532-3.0626-2.6875-3.0626-0.6473,0-2.6173-1.3524-4.375-3-1.7576-1.6473-3.7146-3-4.3438-3-0.6291,0-1.966-1.0124-2.9687-2.25-1.6517-2.0384-2.1329-2.1351-5.0625-1.0312-3.5201,1.3264-4.9375,0.9554-4.9375-1.2812,0-1.0146,1.1839-1.4376,4-1.4376,2.8889,0,4-0.4165,4-1.5,0-1.7309-6.4725-2.1625-7.5-0.5-0.3399,0.5501-1.9124,1-3.5,1-2.1641,0-3.2039-0.6881-4.1875-2.75-0.9177-1.9236-2.2215-2.8557-4.3125-3.0937-1.6442-0.1871-3.2708-0.8019-3.625-1.375-1.0498-1.6986-7.033,1.3826-6.25,3.2187,0.352,0.8255,0.8566,2.5125,1.125,3.75,0.4064,1.8741,0.0677,2.25-2.0625,2.25-1.4067,0-2.8476-0.4499-3.1875-1-0.3399-0.55-1.4149-1-2.4063-1-1.3865,0-1.6822-0.5659-1.3124-2.5,0.2644-1.3832,0.8594-2.7632,1.3437-3.0624,1.2132-0.7499,1.1323-6.4376-0.0937-6.4376-0.5454,0-1.5631,0.9-2.25,2-1.7072,2.7337-3.4324,2.5148-5.0938-0.6562-1.243-2.3723-1.1783-3.0591,0.625-6.4375l2.0312-3.8125,2.7188,1.9688c2.8197,2.0077,4.9645,2.512,4.9375,1.1874-0.0325-1.5897-1.6822-2.842-6.6563-5.125-3.9048-1.7923-5.2775-3.019-5.6562-5-0.6196-3.2416-0.1096-4.125,2.375-4.125,2.2472,0,5.9375,3.3664,5.9375,5.4063,0,1.5646,2.695,2.8956,4.0937,2.0313,0.5292-0.327,0.4458-1.4458-0.2187-2.6876-0.8567-1.6059-0.8574-2.2454,0-2.5312,0.6289-0.2096,1.125-1.227,1.125-2.2812,0-1.5647,0.7515-1.9376,3.9687-1.9376,2.1676,0,4.1914,0.45,4.5313,1,0.3399,0.5501,1.7454,1,3.125,1,2.0533,0,2.3946,0.363,1.875,2-0.4938,1.5557-0.1558,2,1.4375,2,1.3316,0,2.2623-0.8364,2.6562-2.4062,0.3504-1.3959,1.8162-2.9275,3.5-3.625,2.39-0.99,2.9063-1.8075,2.9063-4.5312,0-1.8258,0.4901-3.5838,1.0625-3.9376,0.5723-0.3537,0.7719-1.5088,0.4375-2.5624-1.0929-3.4435,1.3695-2.0316,3.1563,1.8124,0.9587,2.0626,2.2612,4.1007,2.9062,4.5,0.6451,0.3995,1.7486,2.087,2.4375,3.75,1.4398,3.4761,4.5384,4.0299,5.5,1,0.3491-1.0999,1.2616-2,2.0313-2,1.4596,0,8.4687,6.4918,8.4687,7.8438,0,1.9421-2.8122,4.4627-4.3437,3.875-1.7718-0.6798-2.3066,0.7614-0.6563,1.7812,0.55,0.3401,1,1.72,1,3.0626,0,2.1229,0.4559,2.4374,3.5,2.4374,2.0078,0,3.5-0.4843,3.5-1.1562,0-1.4346,2.9955-4.8438,4.25-4.8438,0.5018,0,0.5991,0.9001,0.25,2-0.3641,1.1474-0.1748,2,0.4375,2,0.5871,0,1.0625,0.9,1.0625,2,0,1.1001,0.45,2,1,2s1,1.3641,1,3.0313c0,3.5224-2.099,4.7592-5.3125,3.125-1.2004-0.6104-2.8625-1.0071-3.6875-0.9063-2.4893,0.3041-9-1.3922-9-2.3437,0-0.4888-1.3234-0.9063-2.9687-0.9063-1.9086,0-3.4532-0.724-4.25-2-1.3938-2.2316-4.3601-2.6742-5.0313-0.75-0.789,2.2619,0.4395,3.7493,3.125,3.7813,2.4109,0.029,2.4713,0.1632,0.875,1.375-2.5776,1.9567-2.1168,2.9172,1.0625,2.2813,3.1605-0.6322,4.1923-0.1116,5.9062,2.9687,0.919,1.6517,0.9227,2.8883,0.0313,5.25-0.904,2.3957-0.8756,3.3432,0.0937,4.3125,0.9956,0.9957,1.3462,0.8143,1.8126-0.9688,0.3434-1.3132,1.3609-2.25,2.4687-2.25,1.0359,0,1.875-0.3914,1.875-0.875,0-0.4835,2.7422-0.8209,6.0937-0.75l6.0938,0.125,1.3125,3.8438c1.6392,4.7709,1.8134,4.8975,5.5,5.1875,3.2987,0.2595,3.8675-1.1781,1.8125-4.4687-0.9331-1.4943-0.9041-2.2287,0.125-3.4688,1.5959-1.9228,3.0625-2.0655,3.0625-0.2812,0,0.7232,1.6292,2.0943,3.5937,3.0312,3.5573,1.6963,3.5707,1.6861,3.25-0.5625-0.1862-1.3058-1.1619-2.4054-2.3124-2.625-1.0944-0.2088-2.5881-1.2469-3.3126-2.2813-0.7245-1.0343-2.4073-1.875-3.7187-1.875-1.3113,0-2.6601-0.4499-3-1-1.0151-1.6424,6.4973-1.1611,10.688,0.6876,2.8677,1.2651,3.8125,2.2876,3.8125,4.0312,0,1.5677,0.8196,2.6425,2.5,3.2812,1.375,0.5228,2.5,1.3703,2.5,1.875,0,1.4471,3.2325,2.2988,4.375,1.1563,1.8755-1.8754,5.625-1.2287,5.625,0.9687,0,1.1113,0.6667,2,1.5,2,0.9859,0,1.5-0.9834,1.5-2.875,0-1.853,0.807-3.3751,2.2187-4.3124,2.1132-1.4031,2.1146-1.5831,0.5626-4.875-0.8859-1.8788-1.3755-4.6145-1.0938-6.0626,0.6789-3.4907-1.1395-4.453-4.4062-2.3124-2.5633,1.6795-2.7129,1.6734-4.0938-0.4063-0.7853-1.1827-2.0233-2.1563-2.7812-2.1563-1.5915,0-1.8689,2.5768-0.375,3.5,0.5539,0.3425,1.8231,2.3564,2.8437,4.4688l1.875,3.8438-2.3125,1.2187c-3.2576,1.7434-7.2742,0.4852-8.0312-2.5313-0.359-1.4299-1.3322-2.5-2.3126-2.5-2.2669,0-6.0937-5.2648-6.0937-8.4062,0-3.1007,3.2037-5.0859,5.875-3.6562,1.2706,0.68,2.2066,0.6059,3-0.1876,1.6576-1.6575,1.4022-2.5272-0.875-3.25-1.1-0.3491-2-1.4996-2-2.5624,0-1.0631-0.3375-1.9376-0.75-1.9376s-1.2774-1.1714-1.9375-2.5937c-1.068-2.3011-0.9039-2.8591,1.4062-5,2.698-2.5003,6.2813-3.2323,6.2813-1.2813,0,0.783,0.3777,0.8161,1.25,0.094,0.8837-0.7318,2.3487-0.5096,5,0.7812,2.0625,1.0037,3.75,1.4397,3.75,0.9376,0-0.5022,0.9012-0.9376,1.9687-0.9376s2.158-0.3605,2.4376-0.8124c0.5157-0.8345-2.8044-4.1775-4.1563-4.1876-0.4062,0-0.8153-1.498-0.9063-3.3124-0.1802-3.5979-5.0178-9.6876-7.6874-9.6876-0.8468,0-1.8163-0.4499-2.1563-1-0.3399-0.55-2.3684-1-4.5313-1-2.8495,0-4.2824-0.5507-5.1874-2-0.9315-1.4913-2.3237-2-5.5-2-2.7262,0-4.2633,0.45-4.2813,1.25-0.0153,0.6876-1.325,2.5432-2.9063,4.0938-2.5246,2.4759-3.1356,2.6566-4.9374,1.5312-2.5462-1.59-3.9698-0.391-2.4376,2.0626,1.5422,2.4695-0.9634,6.0624-4.2187,6.0624-2.4688,0-4.283-1.5618-2.5-2.1562,0.6555-0.2185,0.5945-1.5469-0.2187-3.75-1.008-2.7212-1.0305-3.4711-0.0313-3.8125,2.4732-0.8449,1.321-3.2813-1.5625-3.2813-1.5584,0-3.1543-0.3105-3.5312-0.6874-2.5445-2.5444-15.656-4.4507-15.656-2.2813,0,0.5978-0.8145,0.4903-2-0.25-1.2096-0.7554-2-2.3427-2-4,0-2.6725-0.1114-2.7265-4.5-2.125-4.452,0.6102-4.5,0.5918-4.5-2.3125,0-3.5086-1.5733-5.3438-4.625-5.3438-1.2325,0-2.4853-0.396-2.7813-0.875-0.2959-0.479-1.9722-1.1507-3.7187-1.5-3.7017-0.7404-5.875-2.2842-5.875-4.2187,0-0.7539-0.7641-3.1712-1.7187-5.375-1.285-2.966-2.3114-4.0313-3.9688-4.0313-1.9546,0-2.18-0.3811-1.6562-3,0.516-2.5803,0.2965-3-1.5313-3-1.1688,0-2.125-0.4499-2.125-1,0-0.55-0.9-1-2-1-2.4475,0-2.5064-0.7599-0.2813-3.2187,2.6005-2.8735,0.5806-5.2091-4.8124-5.5625-3.5444-0.2322-4.6347,0.1267-5.6563,1.7812-1.2172,1.9711-1.1077,2.0231,2.75,1.4063,3.3078-0.529,4-0.3715,4,0.9687,0,1.0274-0.8437,1.625-2.2813,1.625-1.2527,0-3.0497,0.9216-4,2.0313-1.3017,1.5204-2.4006,1.8475-4.4687,1.3437-1.5095-0.3676-3.0914-1.2892-3.5313-2.0312-0.4397-0.742-2.0972-1.3438-3.6874-1.3438-1.5903,0-3.1914-0.4499-3.5313-1-0.3399-0.55-1.7352-1-3.125-1-2.359,0-2.5011-0.2826-2.1875-4.25,0.3154-3.9896,0.1441-4.2654-2.4375-4.5624-1.9428-0.2236-2.75-0.8841-2.75-2.25,0-1.5159-0.6945-1.9376-3.25-1.9376-2.1764,0-3.666-0.6644-4.5-2-0.6947-1.1122-2.3305-2-3.6875-2-1.342,0-3.6726-1.125-5.1562-2.5-1.4838-1.375-3.2866-2.5-4.0313-2.5s-1.375-0.5814-1.375-1.3124c0-0.7311-2.2153-2.3813-4.9375-3.6563-4.5002-2.1078-7.4255-5.0313-5.0312-5.0313,0.5327,0,0.9687-1.125,0.9687-2.5s-0.5625-2.4807-1.25-2.4687c-1.7413,0.031-5.3254,3.1166-6.0625,5.2187-0.428,1.2205-1.6935,1.75-4.1562,1.75-1.9423,0-3.5313-0.4499-3.5313-1,0-0.55-1.5089-1-3.375-1-2.0935,0-3.6136-0.5743-3.9687-1.5-0.4296-1.1192-2.2392-1.5-7.0626-1.5-5.5858,0-6.5452-0.2716-7.0937-2-0.5073-1.5983-1.5046-2-5-2-2.4055,0-4.6359-0.4299-4.9687-0.9687-0.6254-1.0118-3.4071,0.1656-6.8126,2.9063-1.0788,0.8681-3.5477,1.3586-6.25,1.2187-4.1482-0.2147-5.8088,0.8976-3.4687,2.3437,0.55,0.3401,1,1.2901,1,2.0938,0,1.1929-0.7103,1.0833-3.875-0.5312-3.9602-2.0204-5.7756-4.5351-4.0625-5.5938,1.6514-1.0207,1.0233-3.2045-1.0625-3.75-1.532-0.4006-2-1.3724-2-4.125,0-2.405-0.4428-3.5938-1.375-3.5938zm171.34,8c-4.7857,0-5.1995,0.6396-2.375,3.6876,1.8763,2.0244,2.1574,2.9484,1.3438,4.4687-0.8285,1.548-1.6881,1.8029-4.4688,1.2813-2.2484-0.4219-3.4687-0.2565-3.4687,0.4687,0,0.6112-1.4625,1.125-3.25,1.125-2.5302,0.01-3.5172,0.5754-4.4687,2.625-1.3244,2.8528-0.9316,4.3437,1.1562,4.3437,0.7284,0,1.5873,0.9001,1.875,2,0.9138,3.4946,2.6875,2.169,2.6875-2,0-4.7339,1.3517-5.1254,3.4687-1.0312,2.0521,3.9681,2.0053,4.2731-1.4687,6.25-4.2955,2.4444-4.5377,4.0702-1.0625,7.875,1.6822,1.8418,3.0625,4.1476,3.0625,5.125,0,1.229,0.7712,1.7812,2.5,1.7812,2.2641,0,2.5-0.3759,2.5-4.125,0-5.3731,1.9166-6.8027,9.25-6.8437,5.729-0.032,5.75-0.02,5.75,2.9687,0,3.6321,2.7201,4.1096,5.5625,0.9688,1.8065-1.9961,1.7686-2.0644-0.375-2.625-2.1569-0.5641-3.1428-3.3438-1.1875-3.3438,0.55,0,1,0.45,1,1,0,0.5499,0.9,1,2,1s2-0.3861,2-0.875c0-0.4887,1.5817-1.2026,3.5-1.5624,3.5973-0.6748,6.9902-4.5658,4.6563-5.3438-0.6288-0.2096-1.1563-1.7193-1.1563-3.375,0-2.1693,0.5588-3.1543,2-3.5312,3.0219-0.7902,2.8246-6.8637-0.25-7.6876-3.2779-0.8784-3.3191-0.8539-4.5625,1.875-1.2958,2.8438-2.5656,3.0802-6.3125,1.125-1.5017-0.7835-3.1895-1.0246-3.9375-0.5624-0.7215,0.4459-2.1385,0.3716-3.125-0.1563-1.2778-0.6839-2.5003-0.4795-4.2812,0.6875-2.3221,1.521-2.559,1.5251-3.1563-0.031-0.3536-0.9216-0.1631-2.1494,0.4063-2.7188,1.8267-1.8268-1.7828-4.8438-5.8126-4.8438zm-188.16,108.88,0,50.188,24.531,0c-11.395-23.553-21.653-44.642-22.906-47.063l-1.625-3.125zm171.19,28.125c-0.55,0-1,0.45-1,1,0,0.5501,0.45,1,1,1s1-0.4499,1-1c0-0.55-0.45-1-1-1z" filter="url(#filter3967)" stroke="#1b99fa" fill="none"/>
</g>
</svg>
