<?xml version="1.0" encoding="UTF-8" standalone="no"?>
<!-- Created with Inkscape (http://www.inkscape.org/) -->
<svg id="svg2" xmlns:rdf="http://www.w3.org/1999/02/22-rdf-syntax-ns#" xmlns="http://www.w3.org/2000/svg" preserveAspectRatio="none" height="236.47" width="268.16" version="1.1" xmlns:cc="http://creativecommons.org/ns#" xmlns:dc="http://purl.org/dc/elements/1.1/">
<defs id="defs4"></defs>
<metadata id="metadata7">
<rdf:RDF>
<cc:Work rdf:about="">
<dc:format>image/svg+xml</dc:format>
<dc:type rdf:resource="http://purl.org/dc/dcmitype/StillImage"/>
<dc:title/>
</cc:Work>
</rdf:RDF>
</metadata>
<g id="layer1" transform="translate(-127.34375,-583.1875)">
<path id="path4021" fill="none" d="m127.86,584.14,0,2.3438c1.8299-0.6461,3.9851-0.3187,6.9062,0.9375,1.1576,0.4979,1.8466,0.1196,2.2813-1.25,0.2669-0.8411,0.9172-1.5027,2.125-2.0313h-11.312zm29.969,0c1.1175,1.0242,2.52,1.8438,3.2812,1.8438,0.825,0,1.5,0.4411,1.5,1s1.575,1.7696,3.5,2.6875c3.9625,1.8896,4.4047,3.2562,1.5625,5.0313-1.624,1.0142-1.9233,2.2192-1.75,7,0.1767,4.8753,0.4581,5.7171,1.9375,5.4687,1.0701-0.1797,1.75,0.3488,1.75,1.3437,0,0.8949,0.5625,1.4451,1.25,1.2188,0.6924-0.2279,1.3961-2.4401,1.5625-4.9688,0.2611-3.9671,0.5558-4.5055,2.25-4.0624,2.514,0.6572,2.5388-1.3403,0.031-2.9063-1.4923-0.932-1.7327-1.6351-0.9688-3.0625,0.7729-1.4441,0.4931-2.2659-1.3125-3.7812-1.9731-1.656-2.0948-2.0784-0.8125-2.9376,1.9216-1.2879,3-1.2959,3-0.031,0,1.5897,4.0199,1.1583,4.6562-0.5,0.8601-2.2414,3.0362-1.8097,3.7813,0.75l0.6563,2.25,1.5624-2.25c1.3037-1.8523,2.5325-2.25,6.9063-2.25,2.9221,0,6.5882,0.478,8.125,1.0625,1.9723,0.7499,2.875,0.7499,3.125,0,0.1947-0.5843,1.0021-1.0625,1.7813-1.0625,1.0542,0,1.4135,1.4709,1.4374,5.75,0.035,6.2295,1.8695,9.8917,4.4376,8.9062,1.6894-0.6483,2.0729-3.1988,0.625-4.0937-0.4989-0.308-0.6776-1.4313-0.4063-2.4687,0.2713-1.0375,0-2.1931-0.5937-2.5626-1.3183-0.8148-1.4351-6.2096-0.1563-7,0.503-0.3108,1.0705-0.039,1.2813,0.5938,0.288,0.8677,0.9256,0.8593,2.5312,0,0.8078-0.4324,1.7578-0.7745,2.5312-0.9688h-43.344c-0.8394,0.6281-1.7158,1.3281-2.6875,2.1876l-2.25,2-2.75-2.5626c-0.6324-0.5916-1.25-1.1283-1.875-1.625h-6.1562zm60.406,0c2.123,1.3089,6.375,11.133,6.375,15.125,0,2.6937,0.5528,3.9398,2.125,4.7813,1.4556,0.7793,2.3412,0.8059,2.7812,0.094,0.3538-0.5724,1.8994-1.5089,3.4376-2.0937,2.1239-0.8075,2.6489-1.5145,2.1874-2.9687-0.3342-1.0534-0.1347-2.2088,0.4376-2.5626,1.331-0.8222,1.3544-4.5312,0.031-4.5312-0.55,0-1-0.6885-1-1.5312,0-0.8428-1.0017-1.8935-2.2188-2.3438l-2.1874-0.8438,2.2812-1.2187c1.9496-1.0434,2.5099-0.9599,3.6875,0.5937,0.7624,1.006,1.3893,2.1813,1.4063,2.5938,0.064,1.5205,3.0312,0.6946,3.0312-0.8438,0-0.8764,0.9-1.8373,2-2.125,1.1-0.2875,2-0.8541,2-1.2812,0-0.308-0.1579-0.6147-0.4375-0.8438h-3.1875c-0.78,1.1455-1.6233,1.0362-2.0625,0h-13.469c-0.2477,0.4742-0.4663,0.8186-0.625,0.8126-0.1814-0.01-0.7514-0.3365-1.5-0.8126h-5.0938zm28.156,0c0.1417,0.4891,0.2188,1.049,0.2188,1.7188,0,3.2841,7.1722,11.755,9,10.625,0.5665-0.3501,0.7202-1.163,0.3125-1.8125-0.4076-0.6495-0.6029-2.0271-0.4375-3.0313,0.2529-1.5355-0.041-1.648-1.7188-0.75-2.7103,1.4506-3.2811-0.4981-1.2187-4.125,0.8061-1.4176,1.664-2.3115,2.4687-2.625h-8.625zm9.8438,0c0.3285,0.1469,0.6173,0.4268,0.875,0.8438,0.8706,1.4086,7.2692,1.2549,7.75-0.1875,0.2188-0.6561,1.537,1.0959,2.9375,3.9063,1.6029,3.2165,2.2196,5.5979,1.6875,6.4374-0.9809,1.5474-1.1386,8.9343-0.25,11.25,0.6839,1.7823,4.9269,2.1666,5.9375,0.5313,0.3632-0.5877-0.2808-1.3225-1.4375-1.625-1.1553-0.3021-2.125-1.2329-2.125-2.0625,0-1.1541,0.7491-1.3502,3.125-0.875,2.3799,0.476,2.9635,0.2948,2.5625-0.75-0.2877-0.7498,0.8016-2.8056,2.4063-4.5625,1.8431-2.018,2.9062-4.2915,2.9062-6.1563,0-1.6235,0.5455-3.7844,1.1875-4.8124,1.1271-1.8048,1.2949-1.7857,5.5937,0.5,4.5589,2.4239,6.2188,2.3857,6.2188-0.1563,0-1.9346,1.0113-1.8133,2.625,0.3125,1.8575,2.447,1.6903,3.25-0.625,3.25-1.1111,0-2,0.6667-2,1.5,0,0.825,0.45,1.5,1,1.5,1.3517,0,1.301,8.324-0.063,9.6875-0.7801,0.7801-0.6581,1.948,0.5,4.1875,1.3869,2.6819,2.1602,3.125,5.5313,3.125,4.435,0,5.1524-0.7139,5.2812-5.2812,0.05-1.7802,0.939-4.7662,2-6.6563,1.2515-2.2293,1.7439-4.4367,1.375-6.2813-0.4684-2.3418-0.137-3.0378,1.9062-3.9687,2.2723-1.0353,2.927-2.4863,1.9376-3.6563h-58.844zm62.281,0c0.7024,1.0229,1.8466,1.8438,2.625,1.8438,0.8203,0,1.4688,0.45,1.4688,1s-1.575,1-3.5,1c-2.8855,0-3.5,0.3677-3.5,2.0938,0,1.2276,0.8054,2.2977,1.9375,2.5937,1.2011,0.3141,1.7273,1.0507,1.375,1.9687-0.3788,0.9871-1.356,1.3032-2.9375,0.9063-2.7014-0.6781-2.8696-0.3461-1.125,2.4687,1.0128,1.6335,0.9918,2.1993-0.094,2.875-0.7373,0.459-1.8691,1.907-2.5312,3.2188-1.7162,3.4002,0.86,8.0078,4.375,7.8125,6.2043-0.3447,8.5876,0.1512,9.7812,2.0625,1.0527,1.6857,0.9133,2.3055-0.7812,4-2.546,2.5459-3.6802,2.5206-4.5-0.063-0.759-2.3912-3.1231-2.0341-2.6875,0.4063,0.2199,1.232-0.4719,1.6562-2.75,1.6562-2.3271,0-3.0625,0.4491-3.0625,1.9062,0,1.673-0.2915,1.7646-2.4688,0.75-1.3642-0.6358-2.4197-1.6062-2.3437-2.1562s-0.2083-1.7976-0.625-2.75c-0.5907-1.3501-1.175-1.4803-2.6563-0.6875-1.2928,0.6922-2.5276,0.673-3.8437-0.031-3.7812-2.0237-4.3049-0.2579-0.875,2.9376,1.9325,1.8004,1.9765,2.0312,0.4063,2.0312-0.9782,0-2.5766-1.001-3.5626-2.2188-1.5827-1.9546-2.085-2.0716-4.4374-1-4.5404,2.0688-6.3591,1.5169-8.2188-2.5312-0.9476-2.0625-1.8376-3.9118-1.9688-4.0938-0.1311-0.182-1.1653,0.1674-2.3124,0.7813-2.7026,1.4464-2.6623,3.5476,0.125,5.5,2.1329,1.4937,2.0118,1.5625-3,1.5625-3.0091,0-5.2188-0.4524-5.2188-1.0625,0-0.5825-0.4751-0.7694-1.0625-0.4063-0.5874,0.3632-0.8266,1.2933-0.5313,2.0626,0.3097,0.8072-0.09,1.4062-0.9374,1.4062-0.8078,0-1.4688-0.6926-1.4688-1.5312,0-0.9031-1.2397-1.7605-3.0625-2.125-1.9095-0.3819-3.4132-1.4648-3.9375-2.8438-1.4238-3.745-6.0113-4.5648-11.031-1.9688-2.0613,1.0658-2.9688,2.2715-2.9688,4,0,3.453-2.4874,3.1206-4-0.5312-0.8756-2.114-1.9279-3-3.5625-3-1.2758,0-2.5976,0.45-2.9375,1s-1.945,1-3.5625,1-2.9375,0.45-2.9375,1-1.3754,1-3.0625,1c-2.6694,0-2.9601-0.2815-2.375-2.125,0.8938-2.8162-1.669-2.067-3,0.875-0.847,1.8721-1.5331,2.046-6,1.5312-2.774-0.3196-5.4206-1.0841-5.875-1.6874-0.5865-0.779-0.9837-0.7312-1.3437,0.1562-0.5998,1.4782-6.3438,1.7045-6.3438,0.25,0-0.55,0.5588-1,1.2188-1,0.9045,0,0.8827-0.3078-0.063-1.25-1.0037-1.0006-1.6071-0.7697-3.0624,1.1562-1.9541,2.5861-5.0938,2.3554-5.0938-0.375,0-1.3161-2.4126-1.5312-17.281-1.5312-12.467,0-17.67-0.3492-18.625-1.25-1.06-1-1.4147-1-1.7813,0-0.7134,1.9455-2.9136,1.4758-4.6563-1l-1.5624-2.25-0.6563,2.25c-0.4796,1.6476-1.4318,2.25-3.5,2.25-1.5534,0-3.0976-0.45-3.4375-1-1.4997-2.4267-4.1507-0.8461-5.9688,3.5625-2.0172,4.8918-4.8784,7.612-7.125,6.75-1.7883-0.6861-1.8158,1.1127-0.031,2.5937,1.0745,0.8919,2.0992,0.4533,4.625-1.9062,3.7362-3.4901,6-3.8581,6-1,0,1.3333-0.6666,2-2,2-1.355,0-2,0.6618-2,2.0625,0,1.6123,0.4403,1.9325,2,1.4375,1.6595-0.5267,2-0.186,2,2.0312,0,2.5004-0.2416,2.6334-3.75,2.2188-2.0625-0.2438-4.5673-0.8026-5.5938-1.25-1.6781-0.7314-1.7721-0.5891-0.6874,1.4375,0.6639,1.2396,0.9764,3.1764,0.6874,4.2813-0.7258,2.7755,2.6706,6.2858,5.0626,5.25,0.9933-0.4303,2.5409-0.6758,3.4687-0.5626,0.9278,0.1133,2.2279-0.7908,2.875-2,1.0671-1.9938,0.9686-2.1397-1-1.625-1.4061,0.3677-2.03,0.1339-1.7813-0.625,0.2113-0.6441,1.8618-1.2926,3.6563-1.4687,2.7648-0.2712,3.1678-0.042,2.6875,1.5-0.3118,1.0011-0.191,2.4356,0.2812,3.1875,0.7025,1.1186,2.2216,0.8452,8.25-1.4062,10.328-3.8574,13.185-4.1278,15.75-1.5626,1.3208,1.321,3.3875,2.0938,5.5626,2.0938,3.7638,0,8.5312,3.779,8.5312,6.75,0,1.2683-0.2546,1.3704-1.1562,0.4688-0.859-0.8594-1.5334-0.8648-2.5-0.063-1.0504,0.8718-1.3438,0.4462-1.3438-2.0312,0-3.0274-0.131-3.125-4.4375-3.125-2.4425,0-4.7226-0.45-5.0625-1s-1.72-1-3.0625-1-2.4375,0.45-2.4375,1-1.3199,1-2.9375,1c-1.6175,0-3.2226,0.45-3.5625,1s-1.495,1-2.5625,1-1.9375,0.45-1.9375,1-1.0949,1-2.4375,1c-3.3489,0-4.1963,1.806-1.375,2.9375l2.3125,0.9375-2.2812,0.063c-1.2548,0.035-2.5273,0.7375-2.8438,1.5625-0.6776,1.7656-3.046,1.9873-3.5938,0.3438-0.286-0.8579-0.8971-0.8579-2.5,0-1.175,0.6288-4.2168,1.1562-6.75,1.1562-1.8674,0-4.2574,0.4353-6.2812,1.0938v8.1874c0.8204-0.177,1.4198,0.04,2.125,0.625,0.9867,0.8189,1.6501,0.8428,2.0938,0.125,0.4411-0.7132,1.2602-0.7114,2.5312-0.031,1.4974,0.8014,1.9924,0.5991,2.5-1,0.6379-2.0099,4.5-2.8683,4.5-1,0,0.55,0.9,1,2,1s2,0.45,2,1,1.5579,1,3.4688,1c2.849,0,3.7591-0.54,5.0312-3s2.1824-3,5.0312-3c2.6853,0,3.4688,0.4144,3.4688,1.8125,0,0.9948,0.6613,2.6823,1.4688,3.75,0.8074,1.0676,1.483,2.9677,1.5,4.2187,0.021,1.4677,0.9109,2.5953,2.4687,3.1876,1.3279,0.5048,2.7022,1.8335,3.0625,2.9687,0.3603,1.1351,2.6015,2.9698,5,4.0625,2.3986,1.0926,4.6497,2.8963,5,4,0.918,2.8925,6.5,2.3522,6.5-0.625,0-0.7662,0.45-1.375,1-1.375s1,0.675,1,1.5,0.675,1.5,1.5,1.5c0.9545,0,1.5-0.9765,1.5-2.6562,0-2.8095,2.3994-5.2605,5.1875-5.3126,2.7326-0.051,3.2076,1.9789,0.9375,4.0938-2.6508,2.4696-2.711,4.4801-0.125,5.1562,1.532,0.4006,2,1.3723,2,4.125,0,3.9455,0.6482,4.1973,5.6875,2.375,2.0858-0.7541,3.3125-1.8701,3.3125-3,0-2.1857,1.3304-2.3242,3-0.3124,1.7515,2.1104,0.5039,4.5312-2.3438,4.5312-4.0907,0-9.57,3.5595-9.625,6.25-0.01,0.4125,1.3188,0.75,2.9688,0.75,3.0529,0,3.4871,0.5894,2.4062,3.4062-0.8418,2.194-3.1238,1.99-4.4062-0.4062-0.847-1.5828-2.0864-2-5.9688-2-2.6982,0-5.1913-0.45-5.5312-1s-1.8788-1-3.4375-1c-3.4325,0-4.8367,2.6011-1.9063,3.5312,1.5433,0.49,1.8842,1.2207,1.4376,3-0.3236,1.2895-0.1459,2.6277,0.4062,2.9688,0.552,0.3412,1,1.72,1,3.0625,0,1.7743-0.5462,2.4375-2,2.4375-1.619,0-2-0.6667-2-3.5,0-3.5321-2.745-7.4702-5.25-7.5312-0.6937-0.017-0.4712-0.4968,0.5-1.0626,2.4374-1.4196,2.1843-2.8994-0.5-2.9374-3.9922-0.056-5.75-2.2906-5.75-7.2813,0-4.5865-1.5347-7.039-2.9688-4.7187-0.543,0.8788-0.9819,0.9126-1.4687,0.125-1.1687-1.891-2.7313-1.201-2.0625,0.9062,0.5196,1.6371,0.1783,2-1.875,2-1.3796,0-2.7795-0.4724-3.125-1.0312-0.3454-0.559-1.0505-0.754-1.5625-0.4376-1.5902,0.9828-1.0318,5.0874,1.0625,7.75,2.6837,3.4118,2.5183,4.7188-0.5938,4.7188-1.7422,0-2.7466-0.6413-3.0937-1.9688-0.4116-1.5738-0.9034-1.7876-2.375-1-1.4393,0.7704-2.0633,0.5481-2.875-0.9687-1.5232-2.8461-1.3007-4.0625,0.7813-4.0625,1.08,0,2.6451-1.4484,3.75-3.5,1.0365-1.925,2.2313-3.5,2.6562-3.5,0.425,0,0.75-0.9,0.75-2,0-1.3131-0.6631-2-1.9375-2-1.0675,0-2.2226-0.45-2.5625-1s-1.6858-1-3-1-3.6259-1.142-5.125-2.5312c-1.863-1.7266-3.0487-2.2014-3.75-1.5-0.5643,0.5643-2.835,1.0455-5.0625,1.0624-2.2275,0.017-4.9324,0.6926-6,1.5-0.8309,0.6285-2.5084,1.0605-4.3125,1.2813v25.344c0.022-0.021,0.04-0.04,0.063-0.062,0.609-0.609,1.8445-1.0938,2.75-1.0938,2.7595,0,7.8019,2.9664,8.4375,4.9688,0.3297,1.0387,1.3759,2.0971,2.3125,2.3437,0.9367,0.2465-0.3412,0.4985-2.8437,0.5625-2.5026,0.064-5.0312-0.3436-5.5938-0.9062-0.7251-0.7251-3.0404-0.2216-5.125,0.7187v13.719c0.01-0.011,0.02-0.02,0.031-0.031,0.3322-0.3324,1.1844-0.3514,1.9063-0.063,0.7978,0.3193,0.5712,0.5458-0.5937,0.5937-0.7029,0.029-1.1892-0.053-1.3438-0.2187v17.969c0.3771-0.3945,0.7096-0.8645,0.9688-1.4062,1.286-2.6884,1.5417-2.7515,11.062-3.0312,8.0526-0.2368,9.7188-0.034,9.7188,1.1874,0,0.8125-0.45,1.7539-1,2.0938s-1,2.0012-1,3.6875c0,2.8745,0.1822,3.0323,3,2.4687,3.3581-0.6716,8,0.9833,8,2.875,0,1.6854,2.7726,2.637,3.375,1.1563,0.2671-0.6566,0.4688,0.1625,0.4688,1.8125s-0.2225,2.4375-0.5,1.75c-0.6332-1.5689-3.9873-1.6314-4.9376-0.094-1.0178,1.6468,2.6809,4.046,5.4376,3.5313,1.3047-0.2436,2.5428,0.11,2.8124,0.8125,0.2646,0.6897,3.1025,1.5431,6.3126,1.9062,4.8419,0.5478,5.7707,0.9547,5.4062,2.375-0.2524,0.9835,0.3915,2.2358,1.5312,2.9376,1.6957,1.0441,2.0903,0.9349,2.625-0.75,0.3444-1.0845,1.4684-1.9688,2.5313-1.9688s1.9375-0.4268,1.9375-0.9375c0-3.0413,7.3126-5.6558,8.2188-2.9375,0.2838,0.8521,0.9531,0.8468,2.5937-0.031,2.443-1.3075,2.7965-3.0786,1-4.875-0.6508-0.651-0.8796-1.4642-0.5313-1.8126,0.3483-0.3483,1.9969,0.8395,3.6563,2.6563,2.8377,3.1069,3.1501,3.2141,5.5937,1.9063,2.2373-1.1976,2.7262-1.1895,3.5313,0.062,0.6657,1.0353,1.1535,1.1202,1.6875,0.3126,0.4125-0.624,1.65-1.2924,2.75-1.5,1.5871-0.2995,2.0371-1.2619,2.1875-4.625,0.1949-4.3587-0.414-5.0861-2.4687-3.0313-0.6649,0.6648-3.3585,1.0666-6.1876,0.9375-2.9834-0.1361-5.0312,0.1888-5.0312,0.8125,0,2.1327-2.5365,0.9638-4.1875-1.9375-0.9366-1.6466-1.3353-3-0.875-3s1.1262-1.0125,1.4687-2.25l0.625-2.25,1.8438,2.375c1.5449,1.9915,2.1487,2.1906,3.9062,1.25,2.5953-1.389,6.8929-1.4614,7.7188-0.125,0.3399,0.55,3.745,1,7.5625,1,6.2744,0,6.9375-0.1921,6.9375-2,0-1.1-0.9436-2.9747-2.125-4.1562-1.6983-1.6982-1.9228-2.4973-1.0625-3.875,0.8156-1.3059,0.7117-2.2317-0.3437-3.625-0.8707-1.1495-1.4176-1.3594-1.4376-0.5626-0.022,0.883-0.6424,0.7358-1.9687-0.5-1.5453-1.4396-1.7971-2.6828-1.3437-6.0624l0.5624-4.2188h10.375,10.344v3.5c0,1.925,0.5046,3.5,1.0938,3.5,0.5893,0,0.2752,0.7875-0.6876,1.75-1.349,1.3483-3.0187,1.6689-7.3124,1.4062l-5.5938-0.3437,2.2188,2.0937c1.208,1.144,2.8448,1.8115,3.6562,1.5,2.1188-0.8131,5.6537,1.3278,5,3.0313-0.301,0.7844-1.4965,1.5804-2.6875,1.75-1.4067,0.2004-2.3117,1.1345-2.5313,2.6875-0.2379,1.6831,0.058,2.2272,1,1.8438,0.7359-0.2998,2.1113-0.8485,3.0313-1.2188,1.0509-0.423,2.4449,0.1011,3.75,1.4062,2.4104,2.4104,3.3635,2.5552,6.125,0.8438,1.4449-0.8955,2.2033-0.9444,2.7187-0.1562,0.9444,1.4441,4.6988,3.4062,6.5313,3.4062,0.7971,0,1.7546-1.0125,2.0937-2.25,0.522-1.905,0.7765-2.02,1.6876-0.75,0.8103,1.1294,1.1806,1.1912,1.5624,0.25,0.2866-0.7064,2.2452-1.25,4.5-1.25,3.26,0,3.9281,0.3201,3.6563,1.75-0.2566,1.3497-1.4966,1.7994-5.5,2.0312-4.9836,0.2886-5.2645,0.4581-6.9375,4.25-0.9584,2.1722-2.2409,3.9688-2.8438,3.9688s-2.7854,0.8569-4.8437,1.9062c-3.3271,1.6962-4.0379,1.7439-6.5313,0.5-1.5425-0.7694-3.3052-2.4621-3.9062-3.7812-0.8799-1.931-1.7315-2.3729-4.4062-2.1562-2.7523,0.2228-3.2906,0.6487-3.0313,2.4062,0.2231,1.5116-0.4235,2.3994-2.25,3.0938-2.495,0.9485-3.5672,3.0312-1.5625,3.0312,0.55,0,1,2.1025,1,4.6875,0,3.6555,0.2854,4.4333,1.2188,3.5,1.4475-1.4475,4.1543-1.6001,3.2812-0.1875-1.4273,2.3094,0.755,2.9324,3.4688,1,3.598-2.5621,4.6815-2.5268,5.375,0.125,0.3721,1.4227,1.0518,1.9309,2.0937,1.5312,1.0505-0.4032,1.5625-0.035,1.5625,1.1563,0,0.9727,0.5588,2.3088,1.2188,2.9687,1.6712,1.6713,6.2977,1.5063,7.7812-0.2812,1.4713-1.7727,0.6566-4.5-1.3438-4.5-0.781,0-1.3572-0.7875-1.2812-1.75,0.099-1.2498-0.4877-1.6815-2.0312-1.4688-1.1889,0.164-2.4563-0.1736-2.8126-0.75-0.3713-0.6007,0.2256-1.0312,1.4063-1.0312,1.1325,0,2.0625-0.6173,2.0625-1.375,0-2.5707,2.6065-3.5642,9.9688-3.75,7.0579-0.1782,7.4871-0.318,11.281-4,3.4807-3.3779,4.1364-3.6449,5.4375-2.3438,0.8117,0.8118,1.9296,1.4688,2.5,1.4688,0.5935,0,0.7802,1.0096,0.4375,2.375-0.6308,2.5132,1.5077,5.2643,3.25,4.1875,1.5242-0.942,4.1213,0.4882,4.1562,2.2813,0.046,2.3904,2.6684,5.4599,3.9688,4.6562,0.8134-0.5027,0.7918-1.0644-0.063-2.0938-0.9455-1.1393-0.7762-1.4062,0.9375-1.4062,2.1713,0,2.9371-2.3801,1.125-3.5-0.55-0.3399-1-1.9149-1-3.5s0.45-3.1601,1-3.5,1-0.145,1,0.4375c0,0.5824,0.8704,1.0625,1.9062,1.0625,1.0359,0,2.0966,0.8731,2.375,1.9375,0.3655,1.3973,1.1007,1.7737,2.625,1.375,2.341-0.6122,2.8851,1.1141,0.75,2.375-2.0091,1.1866-3.6439,4.8089-3.625,8,0.015,2.4518,0.7182,3.1173,5.5,5.1875l5.5,2.375,2.25-2.375c1.248-1.3076,3.1464-4.0622,4.2188-6.125,1.7943-3.4513,2.0308-3.6004,2.75-1.6562,0.8081,2.1846,1.3556,2.2114,9.1562,0.3124,2.0345-0.4951,2.7065-0.3828,2.2188,0.4063-0.3822,0.6184-0.2557,1.9655,0.2812,2.9687,0.7497,1.4007,0.5134,2.1057-0.9687,3.0313-2.0136,1.2575-2.6719,4.1875-0.9375,4.1875,1.6313,0,1.1561,3.7155-0.5625,4.375-0.8699,0.3338-2.8174,0.625-4.3125,0.625-3.6236,0-5.125,1.6795-5.125,5.7812,0,2.4792,0.503,3.5163,1.875,3.875,1.033,0.2702,2.3862,1.6215,3,2.9688,0.9773,2.1448,0.84,2.5426-1.125,3.2812-1.8538,0.6969-2.5703,0.3278-4.125-2.0937-1.5225-2.3714-2.4844-2.8705-5-2.625-4.0561,0.3959-4.7995,3.4079-1.1875,4.7813,2.616,0.9945,3.3101,2.4466,1.6563,3.4687-0.5031,0.3109-1.0955,0.026-1.3126-0.625-0.2314-0.6946-0.9256-0.8457-1.6874-0.375-0.9435,0.5831-0.9855,0.9875-0.1563,1.5,0.6274,0.3878,0.8525,1.4565,0.5,2.375s-1.5988,1.6875-2.75,1.6875c-1.6279,0-1.8083-0.2854-0.875-1.2188,0.66-0.6599,1.1875-2.46,1.1875-4,0-2.5242-0.3355-2.7812-3.4375-2.7812-1.8925,0-3.7226,0.45-4.0625,1-1.1823,1.913-3.2585,0.9659-4.5-2.0312-1.1667-2.8167-1.5354-2.9756-5.7812-2.6563-3.4633,0.2604-5.0067-0.1316-6.4688-1.5937-1.9633-1.9635-3.6279-1.9699-14-0.1563-2.9762,0.5204-3.75,0.3313-3.75-0.875,0-1.7593-9.3062-6.6875-12.625-6.6875-1.2346,0-2.5433-0.475-2.9062-1.0625-0.3632-0.5873-1.3027-0.8347-2.0938-0.5313-0.7911,0.3037-2.279,0.021-3.3125-0.625-1.4655-0.9151-2.2481-0.8826-3.5,0.1563-2.0531,1.7039-3.3082,0.5136-1.875-1.7813,0.8249-1.3208,0.7276-2.2535-0.3437-3.7187-1.223-1.6725-1.5313-1.7227-2.3438-0.4375-0.5198,0.8223-0.9587,1.8495-0.9688,2.2812-0.01,0.4319-0.9198,0.2823-2.0312-0.3124-2.7924-1.4946-4.2791-0.3778-2.9062,2.1874,1.4268,2.6659,0.4329,3.4408-5.375,4.1876-3.6045,0.4634-4.9093,0.2696-5.3126-0.7813-0.2944-0.7676-1.746-1.7013-3.2187-2.0937-1.4726-0.3925-2.125-0.9345-1.4375-1.1876,1.6242-0.5978,1.6499-8.5063,0.031-10.125-0.9583-0.9578-0.9731-1.648-0.031-3.1562,1.7906-2.8672,0.017-3.2272-4.875-1.0312-2.3932,1.0745-4.5042,1.495-4.6875,0.9687-0.4436-1.2734-4.1875-1.2153-4.1875,0.063,0,0.55-2.1413,1-4.7812,1-5.0255,0-7.2188,1.2276-7.2188,4.0938,0,1.2445-0.5518,1.5594-2.0938,1.1562-1.7935-0.469-2.0154-0.2274-1.4374,1.5938,0.6885,2.1698-0.8014,3.045-1.9688,1.1562-0.3399-0.55-1.874-1-3.4062-1-1.5323,0-3.6013-0.9033-4.5938-2-1.5116-1.6703-2.6431-1.9041-7.125-1.4688-4.98,0.4837-5.375,0.3592-5.375-1.6562,0-2.4063,2.5793-4.7948,5.2188-4.8438,2.728-0.05,0.9459-3.0312-1.8126-3.0312-1.3161,0-2.4062,0.3652-2.4062,0.8125,0,0.4474-1.5781,1.4211-3.5312,2.1875-2.2971,0.9013-4.1141,2.5573-5.125,4.6875-0.8596,1.8113-2.1634,3.3125-2.9063,3.3125-0.743,0-1.8796,1.0125-2.5313,2.25-0.6516,1.2375-1.676,2.5646-2.2812,2.9688-1.6182,1.0805-6.4095,0.9388-7.125-0.2188-0.3399-0.55-2.2153-1-4.1875-1-2.4271,0-4.2603-0.727-5.6875-2.25-2.0913-2.2316-2.1121-2.2926-0.25-6.2188,1.2678-2.6734,1.5091-4.0906,0.75-4.3437-0.6183-0.2061-1.125-0.9525-1.125-1.6875,0-0.9608,1.2535-1.2479,4.4688-1.0312,4.0224,0.2711,4.389,0.1026,3.5312-1.5-0.632-1.1809-2.1186-1.7813-4.4062-1.7813-4.5413,0-5.6133-0.7592-5.5313-4,0.067-2.6574,0.085-2.6594,1.1563-0.4375,1.4747,3.0578,7.2394,3.1541,8.8437,0.1562,1.9038-3.5572,0.4438-5.2522-4-4.6562-2.7838,0.3734-4.0612,0.1368-4.4375-0.8438-0.298-0.7746-1.238-1.1216-2.125-0.7812-0.5817,0.2233-1.4394,0.07-2.25-0.3125v12.656c1.1351,0.2863,1.75,1.1994,1.75,2.7187,0,1.2822-1.0089,1.589-1.75,0.9063v14.437c1.5605,0.1004,2.75,0.4938,2.75,0.9688,0,0.55,1.5927,1,3.5312,1,2.8396,0,3.7031,0.4859,4.4688,2.5,0.5228,1.375,1.3239,2.5388,1.75,2.5938,6.0051,0.7807,10.736,0.7207,12.375-0.1563,1.476-0.7898,2.3913-0.7798,3.4062,0.063,1.6586,1.3764,3.4688,0.4982,3.4688-1.6875,0-1.2716,0.2881-1.3183,1.5-0.3125,1.2322,1.0226,1.6445,0.7987,2.4375-1.1562l0.9687-2.3438,0.6563,2.2188c0.5414,1.8218,1.0161,2.0463,2.5625,1.2187,1.2872-0.6888,1.875-0.6739,1.875,0.031,0,0.5693,0.9,1.0312,2,1.0312s2,0.45,2,1,0.8424,1,1.875,1c1.0327,0,2.4403,0.675,3.125,1.5s2.3313,1.5,3.6562,1.5c1.325,0,2.6836-0.675,3-1.5,0.3166-0.825,1.2108-1.5,2-1.5,0.7891,0,2.4131-0.9,3.5938-2,1.1808-1.1,2.7162-2,3.4375-2,1.6558,0,1.7377,3.6708,0.094,4.2188-0.7784,0.2595-0.2341,1.422,1.5,3.1562,3.256,3.2559,3.3994,4.2643,0.6876,5.125-1.4606,0.4635-1.8731,1.1899-1.4376,2.5625,0.5067,1.5963,0.1086,1.9375-2.3437,1.9375-3.5553,0-8.1875,5.3935-8.1875,9.5312,0,1.8194-0.6322,2.7987-2,3.1563-1.4265,0.3731-2.0107,1.4526-2.0938,3.6875-0.012,0.3291-0.038,0.5647-0.062,0.8125h16.344c1.9687-2.4653,3.9612-4.1875,5.2187-4.1875,3.863,0,6.6409-2.3472,7.25-6.1562,0.8012-5.0105,2.9411-4.9429,4.4688,0.1562,0.9142,3.0518,0.9149,4.623,0.031,6.5625-0.4779,1.049-0.7991,2.2826-0.9687,3.625h182.22v-2.3125c-0.8231-0.4936-2.3186-2.6199-3.5624-5.1562l-2.5938-5.2813,4.125-1.9063c0.9297-0.4319,1.2338-0.5935,2.0312-0.9687v-85.656c-1.6156,0.1667-6.4591-0.2878-8.4062-0.9374-1.6139-0.5387-0.5505-0.6488,3-0.2813,2.3526,0.2435,4.4662,0.5619,5.4062,0.7813v-2.8126c-0.5651-0.079-0.6922-0.2034-0.1562-0.3437,0.044-0.012,0.1084-0.021,0.1562-0.031v-67.125c-0.9563,0.5134-2.0224,0.8438-2.8437,0.8438-1.3425,0-2.7226,0.45-3.0625,1-1.3552,2.1928-4.244,0.999-4.8438-2-0.4295-2.1482-1.175-3-2.625-3-1.1136,0-2.0312,0.45-2.0312,1s-1.8577,1-4.125,1c-3.525,0-3.9246-0.2354-2.875-1.5,0.8932-1.0763,1.7277-1.1831,3.0625-0.4688,1.2092,0.6471,2.0289,0.6298,2.4375-0.031,0.3408-0.5515,2.6339-1,5.0938-1,3.0529,0,4.6696-0.4761,5.0624-1.5,0.3167-0.825,1.4277-1.5,2.4688-1.5,1.0412,0,1.875-0.45,1.875-1,0-0.4452,1.0354-0.8089,2.4062-0.9375v-19.031c-0.6483,0.5236-1.4159,0.7721-2.125,0.5-0.7816-0.2998-2.3847,0.1439-3.5624,0.9688-1.1778,0.8249-3.2081,1.5-4.5,1.5-2.1344,0-2.2079-0.136-0.7813-1.5625,1.8721-1.8721,3.0078-5.8961,2.0937-7.375-1.1055-1.7887-4.26-1.1753-4.8124,0.9375-0.3977,1.5208-1.362,2-4.0313,2-1.9307,0-3.7168-0.5625-3.9687-1.25-0.3667-1-0.7213-1-1.7813,0-0.9569,0.9028-0.9916,1.25-0.125,1.25,0.7048,0,1.1875,1.4444,1.1875,3.5,0,3.2222,0.2381,3.5,3,3.5,1.65,0,3,0.2593,3,0.5938,0,0.3342-2.5005,3.0342-5.5625,6-5.4181,5.2476-7.4375,6.4522-7.4375,4.4062,0-0.55-0.9-1-2-1s-2-0.45-2-1-0.6382-1-1.4375-1c-0.7992,0-2.3426-2.025-3.4375-4.5-2.0391-4.6098-4.3261-5.7297-5.9062-2.9062-0.7241,1.2937-1.5296,1.4106-4.375,0.625-2.8666-0.7914-3.9631-0.6429-5.9376,0.875-2.9968,2.304-10.906,2.6473-10.906,0.4687,0-2.0127,1.9471-3.0217,3.2812-1.6875,1.9549,1.9549,2.7188,1.2177,2.7188-2.6562,0-3.5143,0.3206-3.9127,4.5-5.75,4.1802-1.8378,5.8239-3.4688,3.5-3.4688-1.7963,0-1.0332-1.9221,1.375-3.5,1.6313-1.0688,3.0611-1.2775,4.6562-0.6875,1.9357,0.7161,2.02,0.9334,0.625,1.4687-2.5121,0.9642-2.1073,5.4339,0.5626,6.2813,1.3357,0.4239,2.3651,0.2484,2.5937-0.4375,0.4659-1.3978,3.1875-1.5035,3.1875-0.125,0,0.55,0.6776,1,1.5,1,1.1492,0,1.4792-1.215,1.4062-5.25-0.052-2.8875,0.3949-6.514,1-8.0625,0.7798-1.9959,0.7827-3.4083,0.031-4.8125-0.5831-1.0894-0.9204-3.4254-0.75-5.1875,0.3348-3.4611,2.639-4.4543,7.4375-3.25,1.9821,0.4975,2.2924,1.0262,1.7812,3.0625-0.5144,2.05-0.2444,2.5,1.5,2.5,1.1596,0,2.0938-0.45,2.0938-1s1.3511-1,3-1c2.9148,0,2.9927,0.1056,2.625,4.1875-0.2792,3.1004-1.082,4.7709-3.0938,6.375-2.3405,1.8663-2.5728,2.4831-1.5937,4.3125,2.0902,3.9056,6.0625,1.8695,6.0625-3.0938,0-2.949,0.8912-3.5146,2.6875-1.7187,0.772,0.7764,2.1716,0.7993,4.9375,0.031,2.1285-0.5911,4.9014-1.0938,6.1562-1.0938,0.5816,0,1.1437,0.1885,1.625,0.4688v-12.438c-9.0095-0.073-14.405-0.7959-16-2.125-0.938-0.7817-3.9742-1.9792-6.7812-2.6874-1.3097-0.3306-2.6424-0.6773-4.1562-1.0626h-28.125c0.9763,0.1814,1.6562,0.4835,1.6562,0.8438,0,0.5767,1.0462,0.7789,2.4062,0.4375,1.6699-0.4191,2.6867-0.081,3.3438,1.0937,0.5923,1.0582,2.6811,1.8592,5.5938,2.1876,5.6957,0.642,5.9845,2.1334,1.9374,10.5-2.7106,5.6037-4.7097,6.9466-6.9687,4.6874-0.7902-0.7901-1.6485-0.7901-3.125,0-2.8129,1.5056-7.7179,1.3702-9.0625-0.25-0.6125-0.7381-0.8002-1.6372-0.4375-2,0.3627-0.3627,0.199-1.6696-0.375-2.9062-3.0779-6.6311-3.4133-8.0693-2.0937-8.9062,0.7155-0.4539,1.6187-0.8338,2.0312-0.8438,0.8607-0.018,1.0471-3,0.1875-3-0.3112,0-1.4975,0.4904-2.625,1.0938-1.6204,0.8672-1.9424,0.8148-1.5625-0.25,0.2301-0.6451,0.1099-1.7682-0.25-2.6876h-12.094zm76.5,22.25c-0.2432,0.3411-0.4062,0.7682-0.4062,1.1876,0,0.8947-1.0541,1.4062-2.875,1.4062-2.0138,0-3.0203,0.5811-3.375,1.9375-0.672,2.5699-0.042,3.0625,3.9688,3.0625,1.0898,0,1.9954,0.1523,2.6874,0.4375v-8.0313zm-215.41,12.594,4,0c2.2,0,4,0.45,4,1,0,1.3886,3.7506,1.2485,4.2188-0.1562,0.2795-0.8385,0.9403-0.8325,2.4374-0.031,1.1222,0.6007,3.0613,0.8273,4.3126,0.5,2.0343-0.5319,2.1628-0.3848,1.1874,1.4375-0.8333,1.5571-0.7303,2.7837,0.4688,5.1875,0.8633,1.7305,1.3085,3.7899,1,4.5937-0.6322,1.6476-2.625,2.005-2.625,0.4688,0-0.55-0.4911-1-1.0938-1-0.6026,0-2.2901-0.8159-3.75-1.8125-1.4599-0.9967-4.3715-2.325-6.4687-2.9375l-3.8125-1.0938,0.6562,2.9063c0.4199,1.9118,0.252,2.9375-0.5,2.9375-2.4061,0-4.0312-2.9778-4.0312-7.4375v-4.5625zm81.188,8c0.3935-0.014,0.8309,0,1.3125,0,5.4127,0,5.7833,1.4065,1,3.6875-2.1011,1.0019-3.5,2.4105-3.5,3.5,0,1.9262,1.9778,2.4302,3.5625,0.9063,1.0386-0.9988,3.5596-1.4134,7.4375-1.1876,2.2328,0.1301,2.3209,0.2553,0.7188,1.1876-1.1827,0.6856-1.5892,1.7036-1.1876,2.9687,0.4568,1.4394,0.1377,1.9375-1.2812,1.9375-2.2728,0-4.768,4.2043-3.875,6.5312,0.55,1.4336,0.088,1.5539-3.375,0.9688-3.1563-0.5333-4.113-0.3463-4.5938,0.9062-0.4654,1.2129-2.0565,1.6038-6.75,1.5938-5.5014-0.01-6.2557-0.2613-7.25-2.4062-1.0189-2.1986-0.8631-2.4523,1.875-3,2.4409-0.4882,2.747-0.8677,1.7813-2.0313-0.793-0.9556-0.8569-2.0214-0.2187-3.25,0.5223-1.0056,1.4338-3.05,2.0312-4.5625,0.8318-2.1061,1.7464-2.75,3.9375-2.75,2.0812,0,3.1713-0.6813,4-2.5,0.8492-1.8638,1.6206-2.4001,4.375-2.5zm-132.94,7.7188,0,4.4687c0.4704-1.0897,0.75-2.0431,0.75-2.6875,0-0.8494-0.2666-1.4416-0.75-1.7812zm108.38,28.937c0.1496,0,0.2651,0.03,0.375,0.063,4.3472,1.2764,4.2894,1.1916,2.5312,3.875-2.5579,3.9039-1.3582,5.4062,4.2813,5.4062,5.2606,0,6.7156-0.6716,5.25-2.4375-1.3602-1.6389,0.017-3.2207,3.4687-3.9687,2.6824-0.5815,3.1382-0.3333,4.125,2.2812,0.9694,2.568,0.8598,3.0084-0.7812,3.4375-1.0345,0.2705-1.875,1.2173-1.875,2.0937,0,0.8766-0.689,1.5938-1.5312,1.5938-0.8423,0-1.7773,0.675-2.0938,1.5-0.6116,1.5936-1.9767,1.9977-2.5312,0.75-0.5674-1.2765-6.8438-4.2294-6.8438-3.2188,0,0.5245-0.9,0.9688-2,0.9688s-2-0.4619-2-1.0312c0-0.7137-0.6042-0.7137-1.9375,0-2.7761,1.4856-5.0625,1.2716-5.0625-0.4688,0-1.426,0.5211-1.6766,4-1.9062,1.3716-0.091,1.5849-0.7357,1.1562-3.5938-0.2015-1.3437-5.1562-1.2835-5.1562,0.063,0,0.5825-0.45,0.7774-1,0.4375s-1-1.0248-1-1.5312c0-1.2613,6.3806-4.3579,8.625-4.3126zm155.34,8.3438c1.5061,0-1.3692,5.898-3.6563,7.5-1.1345,0.7946-2.3704,2.5808-2.7187,3.9688-0.3484,1.3877-1.2626,2.5312-2.0313,2.5312s-1.6289,0.5625-1.9063,1.25c-0.3801,0.9419-0.5025,0.9468-0.5624,0.031-0.043-0.6681,0.8062-1.6925,1.9062-2.2812s2-1.5606,2-2.1562c0-0.5955,1.35-2.6209,3-4.5,1.65-1.8792,3-4.0692,3-4.875,0-0.806,0.4453-1.4688,0.9688-1.4688zm-181.84,3c0.275,0,1.7942,1.35,3.375,3s2.65,3,2.375,3-1.7942-1.35-3.375-3-2.65-3-2.375-3zm28.875,13c3.3489,0,4,0.3371,4,2.0312,0,1.7215,0.5349,1.9552,3.5312,1.625,1.9368-0.2133,4.3499-1.1317,5.3438-2.0312,1.9864-1.7977,4.125-2.1487,4.125-0.6875,0,0.5129-0.9,1.2134-2,1.5625-1.2779,0.4056-2,1.5081-2,3.0625,0,2.7829,0.8063,3.0932,2.4062,0.9375,0.9855-1.328,1.4262-1.328,3.9688,0,3.8808,2.0268,5.7202,1.8846,6.3438-0.5,0.2876-1.1,1.2928-2,2.2187-2,0.9258,0,2.1534-0.4972,2.75-1.0938,0.5966-0.5965,2.1678-0.934,3.4687-0.75,2.0595,0.2915,2.3892,0.9462,2.6563,5.125,0.2708,4.2357,0.5349,4.7319,2.25,4.1876,1.5845-0.5029,1.9375-0.1222,1.9375,2,0,2.1585-0.2986,2.4418-1.75,1.6874-0.9625-0.5003-2.65-0.5359-3.75-0.094-2.9338,1.1795-7.916,1.084-9.1562-0.1563-0.593-0.5929-2.3893-0.9304-3.9688-0.75-2.602,0.2974-2.9089,0.743-3.1875,4.5938-0.2825,3.9045-0.5144,4.25-3.0625,4.25-2.023,0-3.1453-0.7441-4.1562-2.75-0.7623-1.5125-1.501-2.9274-1.625-3.125-0.5966-0.9496-6.2789,2.5312-6.6876,4.0938-0.5671,2.1682-2.9441,2.3066-4.625,0.2812-1.507-1.8159-0.6561-4.5,1.4376-4.5,3.2744,0,1.3457-3.1595-3.0938-5.0625-3.5746-1.5323-4.9191-1.7095-6-0.8125-0.7692,0.6384-1.7083,0.8542-2.0625,0.5-1.0409-1.0409,1.8993-5.6213,3.625-5.6562,2.3098-0.046,5.4159-2.6398,4.125-3.4376-2.2359-1.3818-0.8999-2.5312,2.9375-2.5312zm142.34,1.2188c0.1246-0.044,0.3563,0.081,0.6874,0.4062,0.6405,0.629,1.008,1.9854,0.8126,3-0.1955,1.0146-1.2501,1.9502-2.3438,2.0625-1.7192,0.1764-1.7436,0.1166-0.1562-0.3437,1.4252-0.4134,1.6972-1.1222,1.1874-3.1876-0.3111-1.2606-0.3952-1.8645-0.1874-1.9374zm-0.063,8.8124c1.9336-0.1329,3.7188,0.4075,3.7188,1.5,0,2.1838,4.7184,4.1566,6.25,2.625,0.645-0.6451,1.8663-1.1287,2.7188-1.0937,0.9508,0.039,0.6614,0.414-0.7188,0.9687-1.2375,0.4975-2.25,1.3874-2.25,1.9688,0,0.5813-1.0719,1.4421-2.375,1.9375-1.3662,0.5195-2.5669,1.9583-2.8438,3.4063-0.418,2.1863-0.01,2.6325,3.125,3.4687,1.9795,0.5281,2.6938,0.9687,1.5938,0.9687s-3.125-0.3409-4.5-0.7812c-1.375-0.4404-4.075-0.9297-6-1.0625l-3.5-0.2187,4-0.625c3.2286-0.4909,4.0736-1.0593,4.3438-2.9688,0.184-1.3012,1.2047-2.5705,2.25-2.8438,1.7012-0.4448,1.5677-0.8386-1.2813-3.5-2.5699-2.4006-3.7849-2.8467-6.25-2.375-2.2014,0.4213-2.6442,0.3029-1.5625-0.4062,0.9004-0.5902,2.1211-0.889,3.2812-0.9688zm-7.7187,13.719c1.4344-0.019,2.4375,0.1484,2.4375,0.4688,0,0.427-1.8,0.7812-4,0.7812s-4-0.189-4-0.4062c0-0.2173,1.8-0.5715,4-0.7813,0.55-0.052,1.0844-0.056,1.5625-0.063zm-11.438,1.375c0.5437-0.01,1.1385,0.061,1.625,0.1875,0.973,0.2535,0.4,0.48-1.25,0.5s-2.427-0.1948-1.75-0.4687c0.3385-0.1369,0.8313-0.2121,1.375-0.2188zm17.75,1.9688c0.9062,0,1.7913,0.069,2.4062,0.1874,1.2299,0.2374-0.031,0.4476-2.7812,0.4376-2.75-0.01-3.7389-0.2077-2.2188-0.4376,0.7601-0.1147,1.6876-0.19,2.5938-0.1874zm-13.75,1.0312c0.5437-0.01,1.1385,0.061,1.625,0.1875,0.973,0.2536,0.4,0.48-1.25,0.5s-2.427-0.1948-1.75-0.4687c0.3385-0.137,0.8313-0.2121,1.375-0.2188zm-12.625,1.375-1.9688,2.5c-1.0942,1.375-2.1066,2.677-2.25,2.9062-0.1433,0.2292-0.2812-0.037-0.2812-0.5937,0-0.5564,1.0125-1.8585,2.25-2.9063l2.25-1.9062zm-152.59,4c0.2033,0.018,0.4257,0.048,0.625,0.125,1.071,0.411,1.1941,1.0511,0.4688,2.4062-1.4397,2.6902-1.2344,3.1623,0.9375,2,1.2896-0.69,2.1504-0.698,2.5625-0.031,0.3408,0.5515,2.9026,1,5.6875,1,4.2455,0,4.8882,0.2233,3.9063,1.4062-0.8993,1.0831-0.8889,1.5995,0.062,2.1876,0.6946,0.4292,1.404,0.2255,1.625-0.4376,0.2171-0.6509,0.8095-0.9046,1.3126-0.5937,1.4289,0.883,1.0887,4.0411-0.5938,5.4375-1.2733,1.0568-1.4329,0.9975-0.9062-0.375,0.5025-1.3095,0-1.625-2.5313-1.625-2.6728,0-3.1058-0.2931-2.5937-1.9062,0.6569-2.0704-0.906-3.7942-1.9376-2.125-0.8337,1.3487-6.5312,1.3232-6.5312-0.031,0-0.5825-0.4588-0.76-1.0312-0.4063-0.5724,0.3539-0.772,1.4776-0.4376,2.5313,0.4339,1.3671,0.1324,1.9375-1.0624,1.9375-0.9772,0-1.4523,0.5411-1.1563,1.3125,0.2789,0.7269-0.3799,1.8708-1.4375,2.5313-1.5471,0.9662-2.0291,0.9269-2.4688-0.2188-0.3006-0.7833-1.4068-1.6597-2.4687-1.9375-1.0959-0.2865-1.9375-1.3649-1.9375-2.5,0-1.508,0.4924-1.863,2-1.4687,1.7608,0.4604,2,0.03,2-3.5938,0-3.4082,0.3305-4.125,1.9375-4.125,1.0675,0,2.2061-0.4428,2.5313-0.9688,0.2437-0.3944,0.8276-0.585,1.4374-0.5312zm-46.781,0.625c0.5437-0.01,1.1385,0.061,1.625,0.1875,0.973,0.2536,0.4,0.48-1.25,0.5s-2.427-0.1948-1.75-0.4687c0.3385-0.137,0.8313-0.2121,1.375-0.2188zm71.062,0.875c-0.4545,0-0.6485,1.35-0.4063,3s0.6312,3,0.8438,3,0.375-1.35,0.375-3-0.3577-3-0.8125-3zm6,0c-0.4545,0-0.6485,1.35-0.4063,3s0.6312,3,0.8438,3,0.375-1.35,0.375-3-0.3577-3-0.8125-3zm5,0c-0.4545,0-0.6485,1.35-0.4063,3s0.6312,3,0.8438,3,0.375-1.35,0.375-3-0.3577-3-0.8125-3zm-77.906,1.0938c0.084-0.084,0.35,0.1349,0.8438,0.625,0.6834,0.6783,0.9954,1.5046,0.6875,1.8124-0.3079,0.308-0.8745-0.2638-1.25-1.25-0.2713-0.7125-0.3656-1.1031-0.2813-1.1874zm-25.187,1.0312c0.3473-0.014,0.7327,0.043,1.0937,0.1875,0.7978,0.3193,0.5712,0.5458-0.5937,0.5937-1.0543,0.044-1.6449-0.1989-1.3126-0.5312,0.1661-0.1662,0.4652-0.2357,0.8126-0.25zm6.9062,1c0.4531,0,0.9062,0.08,1.25,0.2188,0.6875,0.2773,0.125,0.5-1.25,0.5s-1.9375-0.2227-1.25-0.5c0.3438-0.1387,0.7969-0.2188,1.25-0.2188zm211.53,0.2812c0.1016-0.024,0.2043-0.014,0.2813,0.063,0.3079,0.3078,0,1.1029-0.6875,1.7812-0.9876,0.9803-1.1052,0.8627-0.5625-0.5625,0.2816-0.7396,0.664-1.2088,0.9687-1.2813zm-221.44,1.7188c0.3473-0.014,0.7327,0.043,1.0937,0.1875,0.7978,0.3192,0.5712,0.5458-0.5937,0.5937-1.0543,0.044-1.6449-0.199-1.3126-0.5312,0.1661-0.1662,0.4652-0.2357,0.8126-0.25zm30.281,0.063c0.068-0.025,0.1669-0.021,0.25,0.063,0.3324,0.3323,0.3514,1.2156,0.063,1.9375-0.3192,0.7977-0.5458,0.5399-0.5937-0.625-0.033-0.7906,0.077-1.2997,0.2812-1.375zm-24.375,0.9375c0.4531,0,0.9062,0.08,1.25,0.2188,0.6875,0.2773,0.125,0.5-1.25,0.5s-1.9375-0.2227-1.25-0.5c0.3438-0.1387,0.7969-0.2188,1.25-0.2188zm211.12,2.3125c0.4719-0.07,0.6378,0.1374,0.375,0.5625-0.336,0.5437-1.045,1-1.5625,1-1.4384,0-1.1075-0.7102,0.625-1.375,0.2225-0.085,0.4052-0.1641,0.5625-0.1875zm-11.531,0.5625c0.275,0-0.01,0.9-0.5938,2-0.5887,1.1-1.2875,2-1.5625,2s-0.026-0.9,0.5625-2c0.5887-1.1,1.3187-2,1.5938-2zm-178.31,0.4688c0.31-0.013,0.9438,0.6218,1.5313,1.5624,0.6713,1.075,1.0249,1.9688,0.8125,1.9688-0.7348,0-2.8974-3.0714-2.4688-3.5,0.03-0.03,0.081-0.03,0.125-0.031zm6.5938,0.9687c0.1573,0.023,0.3713,0.1021,0.5938,0.1875,0.8535,0.3276,1.5312,0.7526,1.5312,0.9688,0,0.8098-1.8814,0.3564-2.4688-0.5938-0.2627-0.4251-0.1281-0.6328,0.3438-0.5625zm173.94,2.5625c0.275,0-0.317,0.9-1.3125,2s-2.0375,2-2.3125,2,0.317-0.9,1.3125-2,2.0375-2,2.3125-2zm-176.66,0.2812c0.074-0.048,0.6652,0.22,1.8438,0.7813,1.375,0.6548,2.7083,1.362,2.9375,1.5625,1.3723,1.2007-1.907,0.089-3.5-1.1875-0.9152-0.7332-1.3551-1.1081-1.2813-1.1563zm46.938,1.8438c0.3473-0.014,0.7327,0.043,1.0937,0.1875,0.7978,0.3193,0.5712,0.5458-0.5937,0.5937-1.0543,0.044-1.6449-0.1989-1.3126-0.5312,0.1661-0.1662,0.4652-0.2357,0.8126-0.25zm-12.094,0.875c0.084,0.038-0.2402,0.4406-0.875,1.25-0.7549,0.9625-1.8319,1.75-2.4062,1.75-0.5746,0-0.8543-0.1256-0.625-0.2812,0.2291-0.1557,1.3062-0.9431,2.4062-1.75,0.925-0.6785,1.4157-1.0068,1.5-0.9688zm-24.656,2.0312c0.045-0.013,0.088,0,0.1562,0,0.55,0,1.675,0.4356,2.5,0.9688,0.825,0.5331,1.05,0.9688,0.5,0.9688s-1.675-0.4357-2.5-0.9688c-0.7219-0.4666-0.9704-0.878-0.6562-0.9688zm16.781,1.0938c0.5437-0.01,1.1385,0.061,1.625,0.1875,0.973,0.2536,0.4,0.48-1.25,0.5s-2.427-0.1948-1.75-0.4687c0.3385-0.137,0.8313-0.2121,1.375-0.2188zm122.97,1c0.3473-0.014,0.7327,0.043,1.0937,0.1875,0.7978,0.3193,0.5712,0.5458-0.5937,0.5937-1.0543,0.044-1.6449-0.1989-1.3126-0.5312,0.1661-0.1662,0.4652-0.2357,0.8126-0.25zm-6.0938,1c0.4531,0,0.9062,0.08,1.25,0.2188,0.6875,0.2773,0.125,0.5-1.25,0.5s-1.9375-0.2227-1.25-0.5c0.3438-0.1387,0.7969-0.2188,1.25-0.2188zm-10,1c0.4531,0,0.9062,0.08,1.25,0.2188,0.6875,0.2773,0.125,0.5-1.25,0.5s-1.9375-0.2227-1.25-0.5c0.3438-0.1387,0.7969-0.2188,1.25-0.2188zm-7.9062,2c0.3473-0.014,0.7327,0.043,1.0937,0.1875,0.7978,0.3193,0.5712,0.5458-0.5937,0.5937-1.0543,0.044-1.6449-0.1989-1.3126-0.5312,0.1661-0.1662,0.4652-0.2357,0.8126-0.25zm21.906,0c0.4531,0,0.9062,0.08,1.25,0.2188,0.6875,0.2773,0.125,0.5-1.25,0.5s-1.9375-0.2227-1.25-0.5c0.3438-0.1387,0.7969-0.2188,1.25-0.2188zm-12.875,0.9688c1.2688,0,2.5876,0.048,3.625,0.1562v0.031c2.0748,0.2165,0.6,0.375-3.25,0.375-3.8503,0-5.5252-0.1541-3.75-0.375,0.8876-0.1114,2.1062-0.1858,3.375-0.1874zm61.531,17.844c1.551-0.1541,3.6907,0.6406,4.0626,2.0625,0.5868,2.2444,2.42,2.5331,5.125,0.8438,1.4266-0.8911,2.403-0.749,4.5,0.625,3.3377,2.1869,3.3776,3.876,0.1562,5.3437-1.9845,0.9043-2.5,1.8642-2.5,4.6875,0,3.2468,0.1743,3.4771,2,2.5,1.421-0.7605,2-0.7605,2,0,0,0.7277,0.7216,0.6763,2.2188-0.125,1.6406-0.8779,2.2784-0.8832,2.5624-0.031,0.2097,0.6288,1.6308,1.1562,3.125,1.1562s3.2319,0.5131,3.875,1.1562c0.8927,0.8927,1.3841,0.6156,2.0626-1.2187l0.875-2.4063,0.75,2.3438c0.5391,1.6985,1.0428,2.0197,1.8437,1.2188,1.5414-1.5415,2.6875-1.3631,2.6875,0.4062,0,0.825-0.45,1.5-1,1.5s-1,1.5088-1,3.375c0,2.0173-0.5574,3.6118-1.4062,3.9375-0.7854,0.3014-1.6429,1.83-1.875,3.375-0.2754,1.832-0.4646,1.1844-0.5626-1.875-0.082-2.58,0.3162-4.9983,0.875-5.3437,1.7886-1.1054-0.039-2.4688-3.2812-2.4688-2.3721,0-2.8709,0.2854-2,1.1562,0.7934,0.7935,0.8676,1.7293,0.1875,3-0.6649,1.2429-0.6654,1.8438,0.031,1.8438,0.5693,0,1.0312,0.45,1.0312,1s-0.9,1-2,1c-1.1191,0-2,0.6531-2,1.5,0,0.8324-0.5625,2.4261-1.25,3.5312-1.0283,1.6531-0.9381,2.5256,0.4062,4.875,2.0698,3.6178,0.9998,5.7785-2.0312,4.1563-1.1699-0.6261-2.125-1.5631-2.125-2.0937,0-0.5307-0.7823-0.9688-1.75-0.9688s-2.313-0.9-3-2-1.8618-2-2.5938-2c-1.3753,0-3.6562,4.0284-3.6562,6.4688,0,0.762-0.9004,1.6823-2,2.0312-1.6243,0.5156-1.8092,0.9922-0.9688,2.5625,0.865,1.6162,0.7018,1.9375-1,1.9375-2.2996,0-2.7202-2.825-0.9374-6.1562,1.559-2.9132,0.049-3.7611-2.0626-1.1563l-1.7812,2.2187-5.3438-1.9687c-2.9474-1.0773-6.1806-1.9375-7.1874-1.9375-1.407,0-1.7745-0.6363-1.5313-2.75,0.2747-2.3875,0.8068-2.7931,4.0625-3.0625,2.0625-0.1707,3.75-0.7332,3.75-1.25s0.8652-0.9375,1.9062-0.9375c2.2101,0,3.2682-2.1117,2.0626-4.0625-0.587-0.9498,0.06-1.9007,2.125-3.1563,3.5163-2.1384,4.7975-2.202,7.25-0.3437,1.3872,1.0511,1.617,1.8304,0.875,3.1563-1.863,3.3287,2.3087,8.5977,4.2812,5.4062,0.3399-0.55,1.495-1,2.5625-1,1.0676,0,1.9375-0.45,1.9375-1s0.6796-1,1.5-1c0.8203,0,2.063-0.9,2.75-2s1.8073-2,2.5-2c1.5295,0,1.5644-0.5482,0.2188-3.0625-0.7668-1.4326-0.7067-1.9375,0.2187-1.9375,0.8133,0,0.6593-0.622-0.4687-1.75-2.182-2.182-5.0591-0.6917-5.5,2.8438-0.5833,4.6766-1.0615,4.9698-3.6876,2.3437-1.3944-1.3944-2.5312-3.65-2.5312-5,0-2.9655-2.5329-3.2996-3.2812-0.4375-0.4044,1.5464-1.403,2.0135-4.375,2.0625-2.114,0.035-5.3063,0.1991-7.0938,0.375-2.2798,0.2244-3.25-0.1058-3.25-1.0937,0-0.7747-1.0847-1.8102-2.4062-2.3126-1.3217-0.5025-2.6043-1.2722-2.875-1.7187-0.776-1.2796,1.5554-2.8125,4.2812-2.8125,1.6158,0,2.6143-0.6526,2.8438-1.8438,0.2997-1.5563,0.035-1.6718-1.6876-0.75-1.3401,0.7174-2.2468,0.7562-2.6562,0.094-1.0796-1.7468,0.5137-2.99,3.8125-3,2.4841-0.01,3.4644-0.6235,4.4375-2.7188,0.6875-1.4803,1.25-3.2845,1.25-4,0-0.8258,0.7257-1.2512,1.6562-1.3437zm-229.41,36.5,0,16.75,28.594,0c0.2774-1.0486,0.7109-2.1991,1.3124-3.375,1.2804-2.5027,1.0613-3.0292-1-2.375-1.0891,0.3456-2.4191-0.043-3.1874-0.9687-0.7668-0.9239-2.4584-1.484-4.0938-1.3126-1.8726,0.1966-3.296-0.358-4.2812-1.6874-1.1967-1.6148-1.7999-1.7652-3.3126-0.8438-1.4311,0.8718-2.3027,0.8-3.7812-0.2812-1.0571-0.773-2.5381-1.1602-3.2812-0.875-1.9169,0.7355-4.9705-1.1108-5.7188-3.4688-0.2235-0.7041-0.6504-1.2271-1.25-1.5625zm46.75,12.5,0.3125,4.0313,0.031,0.2187,4.7187,0c-0.5004-0.876-1.5517-1.953-2.625-2.6563l-2.4375-1.5937zm-14.906,4.1563c-0.034,0.01-0.061,0.063-0.094,0.094h0.3125c-0.077-0.059-0.1539-0.1109-0.2187-0.094z" stroke="#1b99fa"/>
</g>
</svg>
